G04*
G04 #@! TF.GenerationSoftware,Altium Limited,Altium Designer,19.1.1 (5)*
G04*
G04 Layer_Color=16711935*
%FSTAX24Y24*%
%MOIN*%
G70*
G01*
G75*
%ADD18C,0.0100*%
%ADD21C,0.0039*%
%ADD102C,0.0020*%
D18*
X037565Y026752D02*
Y033117D01*
Y026752D02*
X04699D01*
Y033117D01*
X037565D02*
X04699D01*
D21*
X041583Y013901D02*
Y015239D01*
X039693Y013901D02*
Y015239D01*
Y013901D02*
X041583D01*
X039693Y015239D02*
X041583D01*
X025204Y019193D02*
X026543D01*
X025204Y017303D02*
X026543D01*
Y019193D01*
X025204Y017303D02*
Y019193D01*
X023652Y019208D02*
X02499D01*
X023652Y017318D02*
X02499D01*
Y019208D01*
X023652Y017318D02*
Y019208D01*
X041889Y024104D02*
Y025442D01*
X039999Y024104D02*
Y025442D01*
Y024104D02*
X041889D01*
X039999Y025442D02*
X041889D01*
X035823Y014303D02*
Y015642D01*
X037712Y014303D02*
Y015642D01*
X035823D02*
X037712D01*
X035823Y014303D02*
X037712D01*
X035823Y015903D02*
Y017242D01*
X037712Y015903D02*
Y017242D01*
X035823D02*
X037712D01*
X035823Y015903D02*
X037712D01*
X027459Y028281D02*
Y030919D01*
X026002Y028281D02*
Y030919D01*
Y028281D02*
X027459D01*
X026002Y030919D02*
X027459D01*
X023361Y030895D02*
X0247D01*
X023361Y029005D02*
X0247D01*
Y030895D01*
X023361Y029005D02*
Y030895D01*
X023363Y026705D02*
X024702D01*
X023363Y028595D02*
X024702D01*
X023363Y026705D02*
Y028595D01*
X024702Y026705D02*
Y028595D01*
D102*
X044768Y033134D02*
X046994D01*
Y026734D02*
Y033134D01*
X044768Y026734D02*
X046994D01*
X044768D02*
Y033134D01*
X046677Y032967D02*
X046694Y032984D01*
Y033017D01*
X046677Y033034D01*
X04661D01*
X046594Y033017D01*
Y032984D01*
X04661Y032967D01*
X046694Y032934D02*
X04661D01*
X046594Y032917D01*
Y032884D01*
X04661Y032867D01*
X046694D01*
Y032834D02*
Y032767D01*
Y032801D01*
X046594D01*
X046694Y032684D02*
Y032717D01*
X046677Y032734D01*
X04661D01*
X046594Y032717D01*
Y032684D01*
X04661Y032667D01*
X046677D01*
X046694Y032684D01*
Y032634D02*
X04661D01*
X046594Y032617D01*
Y032584D01*
X04661Y032567D01*
X046694D01*
Y032534D02*
Y032467D01*
Y032501D01*
X046594D01*
Y032334D02*
X046694D01*
Y032284D01*
X046677Y032267D01*
X046644D01*
X046627Y032284D01*
Y032334D01*
X046694Y032184D02*
Y032217D01*
X046677Y032234D01*
X04661D01*
X046594Y032217D01*
Y032184D01*
X04661Y032167D01*
X046677D01*
X046694Y032184D01*
Y032134D02*
X046594D01*
Y032067D01*
X046694Y032034D02*
X046677D01*
X046644Y032001D01*
X046677Y031968D01*
X046694D01*
X046644Y032001D02*
X046594D01*
X046677Y031868D02*
X046694Y031884D01*
Y031918D01*
X046677Y031934D01*
X04661D01*
X046594Y031918D01*
Y031884D01*
X04661Y031868D01*
X046644D01*
Y031901D01*
X046694Y031784D02*
Y031818D01*
X046677Y031834D01*
X04661D01*
X046594Y031818D01*
Y031784D01*
X04661Y031768D01*
X046677D01*
X046694Y031784D01*
X046594Y031734D02*
X046694D01*
X046594Y031668D01*
X046694D01*
X046794Y033034D02*
X04686D01*
X046894Y033001D01*
X04686Y032967D01*
X046794D01*
X046844D01*
Y033034D01*
X046794Y032934D02*
X046894D01*
X046794Y032867D01*
X046894D01*
Y032834D02*
Y032767D01*
Y032801D01*
X046794D01*
X046894Y032667D02*
Y032734D01*
X046794D01*
Y032667D01*
X046844Y032734D02*
Y032701D01*
X046794Y032634D02*
X046894D01*
X046794Y032567D01*
X046894D01*
X046794Y032534D02*
X046894D01*
X046794Y032467D01*
X046894D01*
X046794Y032434D02*
X04686D01*
X046894Y032401D01*
X04686Y032367D01*
X046794D01*
X046844D01*
Y032434D01*
X046794Y032234D02*
X04686D01*
X046894Y032201D01*
X04686Y032167D01*
X046794D01*
X046844D01*
Y032234D01*
X046794Y032134D02*
X046894D01*
Y032084D01*
X046877Y032067D01*
X046844D01*
X046827Y032084D01*
Y032134D01*
Y032101D02*
X046794Y032067D01*
X046894Y031968D02*
Y032034D01*
X046794D01*
Y031968D01*
X046844Y032034D02*
Y032001D01*
X046794Y031934D02*
X04686D01*
X046894Y031901D01*
X04686Y031868D01*
X046794D01*
X046844D01*
Y031934D01*
M02*
