G04*
G04 #@! TF.GenerationSoftware,Altium Limited,Altium Designer,19.1.1 (5)*
G04*
G04 Layer_Physical_Order=2*
G04 Layer_Color=16711680*
%FSTAX24Y24*%
%MOIN*%
G70*
G01*
G75*
%ADD41C,0.0200*%
%ADD78C,0.0150*%
%ADD79C,0.0400*%
%ADD80C,0.0300*%
%ADD83C,0.0598*%
%ADD84R,0.0598X0.0598*%
%ADD85C,0.1200*%
%ADD86C,0.1100*%
%ADD87C,0.0630*%
%ADD88R,0.0630X0.0630*%
%ADD89R,0.0900X0.0750*%
%ADD90O,0.0900X0.0750*%
%ADD91R,0.0512X0.0512*%
%ADD92C,0.0512*%
%ADD93O,0.1000X0.0600*%
%ADD94R,0.1000X0.0600*%
%ADD95R,0.0709X0.0709*%
%ADD96R,0.0669X0.0669*%
%ADD97R,0.0598X0.0598*%
%ADD98O,0.0750X0.0900*%
%ADD99R,0.0750X0.0900*%
%ADD100C,0.0197*%
%ADD101C,0.0500*%
G36*
X0447Y034171D02*
X044686Y034176D01*
X044673Y034177D01*
X044662Y034174D01*
X044652Y034166D01*
X044644Y034154D01*
X044637Y034137D01*
X044632Y034116D01*
X044628Y034091D01*
X044626Y034061D01*
X044625Y034027D01*
X044475Y034096D01*
X044474Y034132D01*
X044468Y034196D01*
X044463Y034223D01*
X044456Y034247D01*
X044448Y034268D01*
X044439Y034286D01*
X044428Y034301D01*
X044415Y034313D01*
X044401Y034322D01*
X0447Y034171D01*
D02*
G37*
G36*
X048517Y036506D02*
Y033403D01*
X048407Y033293D01*
X04504D01*
X044981Y033281D01*
X044932Y033248D01*
X044812Y033128D01*
X044779Y033079D01*
X044778Y033077D01*
X044728Y033082D01*
Y034067D01*
X044729Y03407D01*
X044824Y034082D01*
X04494Y03413D01*
X045039Y034206D01*
X045115Y034305D01*
X045163Y034421D01*
X045179Y034545D01*
Y034695D01*
X045163Y034819D01*
X045115Y034935D01*
X045039Y035034D01*
X04494Y03511D01*
X044824Y035158D01*
X0447Y035174D01*
X044576Y035158D01*
X04446Y03511D01*
X044361Y035034D01*
X044285Y034935D01*
X044237Y034819D01*
X044225Y034728D01*
X044175D01*
X044163Y034819D01*
X044115Y034935D01*
X044039Y035034D01*
X04394Y03511D01*
X043824Y035158D01*
X0437Y035174D01*
X043576Y035158D01*
X04346Y03511D01*
X043361Y035034D01*
X043285Y034935D01*
X043237Y034819D01*
X043225Y034728D01*
X043175D01*
X043163Y034819D01*
X043115Y034935D01*
X043039Y035034D01*
X04294Y03511D01*
X042824Y035158D01*
X0427Y035174D01*
X042576Y035158D01*
X04246Y03511D01*
X042361Y035034D01*
X042285Y034935D01*
X042237Y034819D01*
X042225Y034726D01*
X042175Y034729D01*
Y03517D01*
X04175D01*
Y03462D01*
Y03407D01*
X042175D01*
Y034511D01*
X042225Y034514D01*
X042237Y034421D01*
X042285Y034305D01*
X042361Y034206D01*
X04246Y03413D01*
X042576Y034082D01*
X0427Y034066D01*
X042824Y034082D01*
X04294Y03413D01*
X043039Y034206D01*
X043115Y034305D01*
X043163Y034421D01*
X043175Y034512D01*
X043225D01*
X043237Y034421D01*
X043285Y034305D01*
X043361Y034206D01*
X04346Y03413D01*
X043576Y034082D01*
X0437Y034066D01*
X043824Y034082D01*
X043885Y034108D01*
X044002Y033991D01*
Y03115D01*
X04389Y031038D01*
X042327D01*
X042325Y031041D01*
X042348Y031091D01*
X043579D01*
X043647Y031104D01*
X043705Y031143D01*
X043846Y031284D01*
X043846Y031284D01*
X043885Y031342D01*
X043898Y03141D01*
Y031496D01*
X043907Y031509D01*
X043922Y031586D01*
X043907Y031664D01*
X043863Y031729D01*
X043797Y031773D01*
X04372Y031789D01*
X043643Y031773D01*
X043577Y031729D01*
X043533Y031664D01*
X043518Y031586D01*
X043533Y031509D01*
X043542Y031496D01*
Y031484D01*
X043505Y031447D01*
X043016D01*
X042989Y031497D01*
X043003Y031518D01*
X043018Y031595D01*
X043003Y031673D01*
X042959Y031738D01*
X042893Y031782D01*
X042816Y031797D01*
X042738Y031782D01*
X042726Y031774D01*
X0412D01*
X041102Y031872D01*
Y032957D01*
X041102Y032957D01*
X041088Y033025D01*
X041049Y033083D01*
X041049Y033083D01*
X040896Y033236D01*
X040839Y033275D01*
X04077Y033288D01*
X03236D01*
X032292Y033275D01*
X032234Y033236D01*
X032234Y033236D01*
X032054Y033056D01*
X032015Y032998D01*
X032002Y03293D01*
Y031594D01*
X031666Y031258D01*
X027518D01*
X027513Y031264D01*
X027497Y031308D01*
X027504Y031316D01*
X027548Y031382D01*
X027564Y03146D01*
X027548Y031538D01*
X027504Y031604D01*
X027438Y031648D01*
X02736Y031664D01*
X027282Y031648D01*
X027245Y031624D01*
X02327D01*
X023192Y031608D01*
X023126Y031564D01*
X022656Y031094D01*
X022612Y031028D01*
X022596Y03095D01*
Y030535D01*
X021728D01*
Y029665D01*
X021908D01*
Y027143D01*
X021857Y027077D01*
X021822Y026991D01*
X02181Y0269D01*
X021822Y026809D01*
X021857Y026723D01*
X021908Y026657D01*
Y016787D01*
X021927Y016689D01*
X021983Y016607D01*
X02234Y01625D01*
X022422Y016194D01*
X02252Y016175D01*
X024514D01*
X024523Y016168D01*
X024596Y016138D01*
X024608Y016136D01*
X024774Y015969D01*
Y013581D01*
X024794Y013483D01*
X024849Y0134D01*
X02524Y01301D01*
Y010783D01*
X014853D01*
X014803Y010833D01*
Y036457D01*
X014903Y036557D01*
X048466D01*
X048517Y036506D01*
D02*
G37*
G36*
X036Y0323D02*
X036005Y032288D01*
X036012Y032276D01*
X036023Y032267D01*
X036036Y032258D01*
X036053Y032252D01*
X036073Y032246D01*
X036095Y032243D01*
X036121Y03224D01*
X03615Y03224D01*
Y03209D01*
X036121Y032089D01*
X036095Y032087D01*
X036073Y032083D01*
X036053Y032078D01*
X036036Y032071D01*
X036023Y032063D01*
X036012Y032053D01*
X036005Y032042D01*
X036Y032029D01*
X035999Y032015D01*
Y032315D01*
X036Y0323D01*
D02*
G37*
G36*
X032904Y031961D02*
X032887Y031941D01*
X032871Y03192D01*
X032857Y031898D01*
X032846Y031877D01*
X032837Y031855D01*
X032829Y031833D01*
X032824Y031811D01*
X032821Y031789D01*
X03282Y031766D01*
X03267D01*
X032669Y031789D01*
X032666Y031811D01*
X032661Y031833D01*
X032653Y031855D01*
X032644Y031877D01*
X032633Y031898D01*
X032619Y03192D01*
X032603Y031941D01*
X032586Y031961D01*
X032566Y031982D01*
X032924D01*
X032904Y031961D01*
D02*
G37*
G36*
X040745Y032883D02*
Y031798D01*
X040758Y031729D01*
X040797Y031672D01*
X040971Y031497D01*
X04095Y031447D01*
X040693D01*
X040669Y031492D01*
X040681Y031509D01*
X040696Y031586D01*
X040681Y031664D01*
X040678Y031667D01*
Y03205D01*
X040678Y03205D01*
X040665Y032118D01*
X040626Y032176D01*
X040512Y032291D01*
X040454Y032329D01*
X040385Y032343D01*
X036117D01*
X036108Y032344D01*
X036101Y032345D01*
Y03252D01*
X035389D01*
Y031809D01*
X036101D01*
Y031984D01*
X036108Y031985D01*
X036117Y031986D01*
X040312D01*
X040322Y031976D01*
Y031686D01*
X040307Y031664D01*
X040291Y031586D01*
X040301Y031538D01*
X040265Y031488D01*
X038D01*
X037987Y031497D01*
X03791Y031512D01*
X037833Y031497D01*
X037767Y031453D01*
X037723Y031387D01*
X037708Y03131D01*
X037723Y031233D01*
X037767Y031167D01*
X037833Y031123D01*
X03791Y031108D01*
X037987Y031123D01*
X038Y031132D01*
X040339D01*
X04038Y031104D01*
X040448Y031091D01*
X042095D01*
X042096Y031089D01*
X042103Y031041D01*
X042047Y031003D01*
X042003Y030937D01*
X041988Y03086D01*
X042003Y030783D01*
X042047Y030717D01*
X042113Y030673D01*
X04219Y030658D01*
X042267Y030673D01*
X04228Y030682D01*
X043964D01*
X044032Y030695D01*
X04409Y030734D01*
X044306Y03095D01*
X044322Y030973D01*
X044372Y030958D01*
Y026419D01*
X044221Y026268D01*
X041445D01*
X041402Y026297D01*
X041325Y026312D01*
X041248Y026297D01*
X041205Y026268D01*
X035448D01*
X035405Y026297D01*
X035327Y026312D01*
X03525Y026297D01*
X035184Y026253D01*
X035141Y026187D01*
X035125Y02611D01*
X035141Y026033D01*
X035184Y025967D01*
X035235Y025933D01*
X03522Y025883D01*
X034448D01*
X034427Y025897D01*
X03435Y025913D01*
X034273Y025897D01*
X034207Y025853D01*
X034163Y025788D01*
X034148Y02571D01*
X034163Y025633D01*
X034177Y025613D01*
X034153Y025568D01*
X033684D01*
X03362Y025632D01*
Y02806D01*
X03362Y02806D01*
X033607Y028128D01*
X033568Y028186D01*
X033568Y028186D01*
X033437Y028317D01*
X033379Y028356D01*
X033311Y028369D01*
X031566D01*
X031553Y028378D01*
X031476Y028393D01*
X031398Y028378D01*
X031333Y028334D01*
X031289Y028268D01*
X031273Y028191D01*
X031289Y028113D01*
X031333Y028048D01*
X031398Y028004D01*
X031476Y027988D01*
X031553Y028004D01*
X031566Y028012D01*
X033237D01*
X033263Y027986D01*
Y025558D01*
X033277Y02549D01*
X033316Y025432D01*
X033484Y025264D01*
X033484Y025264D01*
X033542Y025225D01*
X03361Y025212D01*
X035662D01*
X035668Y025208D01*
X035745Y025193D01*
X035822Y025208D01*
X035888Y025252D01*
X035932Y025318D01*
X035947Y025395D01*
X035932Y025472D01*
X035925Y025482D01*
X035949Y025526D01*
X042065D01*
X042133Y02554D01*
X042158Y025557D01*
X042171Y025559D01*
X042237Y025603D01*
X042281Y025669D01*
X042296Y025746D01*
X042281Y025824D01*
X042255Y025862D01*
X042282Y025912D01*
X044295D01*
X044363Y025925D01*
X044421Y025964D01*
X044676Y026219D01*
X044676Y026219D01*
X044715Y026277D01*
X044728Y026345D01*
Y026812D01*
X044778Y026817D01*
X044779Y026815D01*
X044812Y026766D01*
X044946Y026632D01*
X044995Y026599D01*
X045054Y026587D01*
X048467D01*
X048517Y026537D01*
Y01986D01*
X042161D01*
X042106Y019915D01*
Y019915D01*
X042106Y019915D01*
X042095Y019926D01*
X042065Y019932D01*
X042065Y019932D01*
X042037Y019921D01*
X04202Y019895D01*
Y016807D01*
X040228D01*
Y021848D01*
X040316Y021935D01*
X04149D01*
X041588Y021955D01*
X04167Y02201D01*
X041726Y022092D01*
X041745Y02219D01*
X041726Y022288D01*
X04167Y02237D01*
X041588Y022425D01*
X04149Y022445D01*
X040258D01*
X040237Y022495D01*
X040446Y022704D01*
X043708D01*
X043718Y022654D01*
X043695Y022645D01*
X043596Y022569D01*
X04352Y02247D01*
X043472Y022354D01*
X043462Y02228D01*
X04401D01*
X044558D01*
X044548Y022354D01*
X0445Y02247D01*
X044424Y022569D01*
X044325Y022645D01*
X044302Y022654D01*
X044312Y022704D01*
X045083D01*
X045151Y022718D01*
X045209Y022756D01*
X045526Y023074D01*
X045526Y023074D01*
X045565Y023132D01*
X045578Y0232D01*
Y024926D01*
X045674Y025022D01*
X045971D01*
X04598Y025021D01*
X045987Y02502D01*
Y024706D01*
X046428D01*
X046431Y024656D01*
X046338Y024643D01*
X046223Y024596D01*
X046124Y024519D01*
X046047Y02442D01*
X046Y024305D01*
X04599Y024231D01*
X046537D01*
X047085D01*
X047075Y024305D01*
X047027Y02442D01*
X046951Y024519D01*
X046852Y024596D01*
X046736Y024643D01*
X046643Y024656D01*
X046647Y024706D01*
X047087D01*
Y025656D01*
X045987D01*
Y02538D01*
X04598Y025379D01*
X045971Y025378D01*
X0456D01*
X0456Y025378D01*
X045532Y025365D01*
X045474Y025326D01*
X045474Y025326D01*
X045274Y025126D01*
X045265Y025113D01*
X045197Y025101D01*
X045188Y025107D01*
Y026115D01*
X045191Y026119D01*
X045206Y026196D01*
X045191Y026274D01*
X045147Y026339D01*
X045081Y026383D01*
X045004Y026399D01*
X044926Y026383D01*
X044861Y026339D01*
X044817Y026274D01*
X044801Y026196D01*
X044817Y026119D01*
X044832Y026097D01*
Y023398D01*
X042734D01*
X042708Y023424D01*
Y024576D01*
X042695Y024644D01*
X042656Y024702D01*
X042568Y02479D01*
X04251Y024828D01*
X042442Y024842D01*
X036748D01*
X036748Y024842D01*
X036731Y024838D01*
X034245D01*
X034211Y024888D01*
X034214Y024902D01*
X034215Y024903D01*
X034228Y024971D01*
X034215Y02504D01*
X034176Y025098D01*
X034118Y025136D01*
X03405Y02515D01*
X033982Y025136D01*
X03398Y025135D01*
X033942Y025128D01*
X033929Y025119D01*
X033203D01*
X033128Y025194D01*
Y027187D01*
X033115Y027255D01*
X033076Y027313D01*
X032988Y027401D01*
X03293Y02744D01*
X032862Y027453D01*
X031566D01*
X031553Y027462D01*
X031476Y027477D01*
X031398Y027462D01*
X031333Y027418D01*
X031289Y027352D01*
X031273Y027275D01*
X031289Y027198D01*
X031333Y027132D01*
X031398Y027088D01*
X031476Y027073D01*
X031553Y027088D01*
X031566Y027097D01*
X032772D01*
Y02512D01*
X032785Y025052D01*
X032824Y024994D01*
X032933Y024885D01*
X032914Y024838D01*
X03096D01*
X030892Y024906D01*
X030834Y024945D01*
X030766Y024958D01*
X02756D01*
X02756Y024958D01*
X027492Y024945D01*
X027434Y024906D01*
X027434Y024906D01*
X027309Y024781D01*
X027288Y024751D01*
X027238Y024766D01*
Y024866D01*
X027444Y025072D01*
X02861D01*
X028678Y025085D01*
X028736Y025124D01*
X029126Y025514D01*
X029126Y025514D01*
X029165Y025572D01*
X029178Y02564D01*
Y02889D01*
X029217Y028911D01*
X029228Y028911D01*
X029293Y028898D01*
X035237D01*
X03525Y02889D01*
X035327Y028874D01*
X035405Y02889D01*
X035418Y028898D01*
X035677D01*
X035745Y028912D01*
X035803Y028951D01*
X036263Y029411D01*
X036286Y029401D01*
X03639Y029387D01*
X036494Y029401D01*
X036591Y029441D01*
X036675Y029505D01*
X036739Y029589D01*
X036761Y029643D01*
X0386D01*
X038644Y029634D01*
X038721Y029649D01*
X038787Y029693D01*
X038831Y029759D01*
X038846Y029836D01*
X038831Y029914D01*
X038787Y029979D01*
X038721Y030023D01*
X038644Y030039D01*
X038566Y030023D01*
X038531Y029999D01*
X036732D01*
X036675Y030075D01*
X036591Y030139D01*
X036494Y030179D01*
X03639Y030193D01*
X036286Y030179D01*
X036189Y030139D01*
X036105Y030075D01*
X036041Y029991D01*
X036001Y029894D01*
X035987Y02979D01*
X036001Y029686D01*
X036011Y029663D01*
X035603Y029255D01*
X035418D01*
X035405Y029264D01*
X035327Y029279D01*
X03525Y029264D01*
X035237Y029255D01*
X029367D01*
X029126Y029496D01*
X028965Y029657D01*
X028962Y029672D01*
X028918Y029738D01*
X028852Y029782D01*
X028775Y029797D01*
X028698Y029782D01*
X028632Y029738D01*
X028588Y029672D01*
X028573Y029595D01*
X028588Y029518D01*
X028632Y029452D01*
X028698Y029408D01*
X028713Y029405D01*
X028822Y029296D01*
Y025714D01*
X028536Y025428D01*
X027818D01*
X027808Y025478D01*
X027825Y025485D01*
X027924Y025561D01*
X028Y02566D01*
X028048Y025776D01*
X028058Y02585D01*
X02751D01*
X026962D01*
X026972Y025776D01*
X02702Y02566D01*
X027096Y025561D01*
X027195Y025485D01*
X02727Y025454D01*
X027276Y025398D01*
X027244Y025376D01*
X026934Y025066D01*
X026895Y025008D01*
X026882Y02494D01*
Y024274D01*
X026873Y024261D01*
X026858Y024184D01*
X026873Y024107D01*
X026917Y024041D01*
X026983Y023997D01*
X02706Y023982D01*
X027137Y023997D01*
X027203Y024041D01*
X027207Y024046D01*
X027257Y024031D01*
Y023862D01*
X025731D01*
X025731Y023863D01*
X025674Y023937D01*
X025599Y023994D01*
X025513Y02403D01*
X02542Y024042D01*
X025327Y02403D01*
X025241Y023994D01*
X025166Y023937D01*
X025109Y023863D01*
X025073Y023776D01*
X025061Y023683D01*
X025073Y023591D01*
X025109Y023504D01*
X025166Y02343D01*
X025241Y023373D01*
X025327Y023337D01*
X02542Y023324D01*
X025513Y023337D01*
X025599Y023373D01*
X025674Y02343D01*
X025731Y023504D01*
X025731Y023505D01*
X02734D01*
X027408Y023519D01*
X027466Y023557D01*
X027561Y023652D01*
X027561Y023652D01*
X0276Y02371D01*
X027613Y023778D01*
Y024581D01*
X027634Y024602D01*
X030657D01*
X030664Y024592D01*
X030637Y024542D01*
X028491D01*
X028422Y024528D01*
X028364Y02449D01*
X028364Y02449D01*
X027863Y023988D01*
X027824Y02393D01*
X027811Y023862D01*
Y023114D01*
X027824Y023046D01*
X027863Y022988D01*
X028074Y022777D01*
X028073Y022776D01*
X028061Y022683D01*
X028073Y022591D01*
X028109Y022504D01*
X028166Y02243D01*
X028241Y022373D01*
X028327Y022337D01*
X02842Y022324D01*
X028513Y022337D01*
X028599Y022373D01*
X028674Y02243D01*
X028731Y022504D01*
X028767Y022591D01*
X028779Y022683D01*
X028767Y022776D01*
X028731Y022863D01*
X028674Y022937D01*
X028599Y022994D01*
X028513Y02303D01*
X02842Y023042D01*
X028327Y02303D01*
X028326Y02303D01*
X028168Y023188D01*
Y023372D01*
X028212Y023394D01*
X028241Y023373D01*
X028327Y023337D01*
X02842Y023324D01*
X028513Y023337D01*
X028599Y023373D01*
X028674Y02343D01*
X028731Y023504D01*
X028731Y023505D01*
X033963D01*
X034032Y023519D01*
X03409Y023557D01*
X034424Y023892D01*
X03633D01*
X036398Y023905D01*
X036408Y023912D01*
X03644D01*
X036453Y023903D01*
X03653Y023888D01*
X036607Y023903D01*
X036673Y023947D01*
X036717Y024013D01*
X036732Y02409D01*
X036723Y024135D01*
X036761Y024185D01*
X036846D01*
X036859Y024176D01*
X036937Y024161D01*
X037014Y024176D01*
X03708Y02422D01*
X037124Y024286D01*
X037139Y024363D01*
X037125Y024435D01*
X037129Y024451D01*
X037147Y024485D01*
X042352D01*
Y02335D01*
X042365Y023282D01*
X042404Y023224D01*
X042517Y023111D01*
X042496Y023061D01*
X040372D01*
X040304Y023047D01*
X040246Y023009D01*
X040246Y023009D01*
X039472Y022235D01*
X039433Y022177D01*
X03942Y022108D01*
Y020032D01*
X03937Y020002D01*
X039311Y020013D01*
X039233Y019998D01*
X039221Y019989D01*
X037943D01*
X037778Y020154D01*
Y024091D01*
X037787Y024103D01*
X037802Y024181D01*
X037787Y024258D01*
X037743Y024324D01*
X037677Y024368D01*
X0376Y024383D01*
X037523Y024368D01*
X037457Y024324D01*
X037413Y024258D01*
X037398Y024181D01*
X037413Y024103D01*
X037422Y024091D01*
Y02008D01*
X037435Y020012D01*
X037474Y019954D01*
X037743Y019685D01*
X037743Y019685D01*
X037801Y019646D01*
X037869Y019633D01*
X037869Y019633D01*
X039221D01*
X039233Y019624D01*
X039311Y019609D01*
X03937Y01962D01*
X03942Y01959D01*
Y019072D01*
X039336Y018988D01*
X036094D01*
X035918Y019164D01*
Y019715D01*
X035905Y019783D01*
X035866Y019841D01*
X035866Y019841D01*
X035589Y020119D01*
X035531Y020157D01*
X035463Y020171D01*
X034019D01*
X034019Y020171D01*
X033951Y020157D01*
X033893Y020119D01*
X033893Y020119D01*
X033614Y019839D01*
X033575Y019782D01*
X033562Y019713D01*
Y019467D01*
X033515Y019448D01*
X033172Y019791D01*
X033114Y01983D01*
X033046Y019844D01*
X032248D01*
X032235Y019852D01*
X032157Y019867D01*
X03208Y019852D01*
X032014Y019808D01*
X031971Y019743D01*
X031955Y019665D01*
X031971Y019588D01*
X032003Y01954D01*
X03198Y01949D01*
X030489D01*
X030454Y019543D01*
X030388Y019587D01*
X030311Y019602D01*
X030233Y019587D01*
X030168Y019543D01*
X030128Y019484D01*
X0301Y019486D01*
X030078Y019493D01*
Y02013D01*
X030065Y020198D01*
X030026Y020256D01*
X029276Y021006D01*
X029276Y021006D01*
X028956Y021326D01*
X028956Y021326D01*
X028898Y021365D01*
X02883Y021378D01*
X028685D01*
X028669Y021426D01*
X028674Y02143D01*
X028731Y021504D01*
X028767Y021591D01*
X028779Y021683D01*
X028767Y021776D01*
X028731Y021863D01*
X028674Y021937D01*
X028599Y021994D01*
X028513Y02203D01*
X02842Y022042D01*
X028327Y02203D01*
X028241Y021994D01*
X028166Y021937D01*
X028109Y021863D01*
X028073Y021776D01*
X028061Y021683D01*
X028073Y021591D01*
X028109Y021504D01*
X028166Y02143D01*
X028171Y021426D01*
X028155Y021378D01*
X027101D01*
X027101Y021378D01*
X027033Y021365D01*
X026975Y021326D01*
X025997Y020348D01*
X02565D01*
X025633Y020398D01*
X025674Y02043D01*
X025731Y020504D01*
X025767Y020591D01*
X025779Y020683D01*
X025767Y020776D01*
X025731Y020863D01*
X025674Y020937D01*
X025599Y020994D01*
X025513Y02103D01*
X02542Y021042D01*
X025327Y02103D01*
X025241Y020994D01*
X025166Y020937D01*
X025109Y020863D01*
X025073Y020776D01*
X025061Y020683D01*
X025073Y020591D01*
X025109Y020504D01*
X025166Y02043D01*
X025207Y020398D01*
X02519Y020348D01*
X022881D01*
X022868Y020357D01*
X022791Y020372D01*
X022713Y020357D01*
X022647Y020313D01*
X022604Y020247D01*
X022588Y02017D01*
X022604Y020093D01*
X022647Y020027D01*
X022713Y019983D01*
X022791Y019968D01*
X022868Y019983D01*
X022881Y019992D01*
X024296D01*
X024315Y019942D01*
X02428Y019888D01*
X024264Y019811D01*
X02428Y019734D01*
X024323Y019668D01*
X024389Y019624D01*
X024467Y019609D01*
X024544Y019624D01*
X024557Y019633D01*
X028248D01*
Y019106D01*
X028226Y019096D01*
X028142Y019032D01*
X028078Y018949D01*
X028038Y018852D01*
X028024Y018748D01*
X028038Y018643D01*
X028078Y018546D01*
X028142Y018463D01*
X028226Y018399D01*
X028323Y018359D01*
X028427Y018345D01*
X028531Y018359D01*
X028628Y018399D01*
X028712Y018463D01*
X028776Y018546D01*
X028816Y018643D01*
X02883Y018748D01*
X028816Y018852D01*
X028776Y018949D01*
X028712Y019032D01*
X028628Y019096D01*
X028605Y019106D01*
Y019633D01*
X028664D01*
X029152Y019145D01*
Y016807D01*
X028654D01*
X028623Y016845D01*
X028623Y016848D01*
Y017348D01*
X028826D01*
Y018147D01*
X028028D01*
Y017348D01*
X028114D01*
Y016954D01*
X027966Y016807D01*
X02524D01*
Y016695D01*
X024845D01*
X024836Y016702D01*
X024763Y016732D01*
X024684Y016743D01*
X024606Y016732D01*
X024533Y016702D01*
X024511Y016685D01*
X022626D01*
X022418Y016893D01*
Y026657D01*
X022469Y026723D01*
X022504Y026809D01*
X022516Y0269D01*
X022504Y026991D01*
X022469Y027077D01*
X022418Y027143D01*
Y029665D01*
X022596D01*
Y02765D01*
X022612Y027572D01*
X022656Y027506D01*
X022722Y027462D01*
X0228Y027446D01*
X022878Y027462D01*
X022944Y027506D01*
X022988Y027572D01*
X023004Y02765D01*
Y030866D01*
X023354Y031216D01*
X024933D01*
X024954Y031166D01*
X024294Y030506D01*
X024255Y030448D01*
X024242Y03038D01*
Y023194D01*
X024255Y023125D01*
X024294Y023068D01*
X024804Y022557D01*
X024804Y022557D01*
X024862Y022519D01*
X02493Y022505D01*
X025109D01*
X025109Y022504D01*
X025166Y02243D01*
X025241Y022373D01*
X025327Y022337D01*
X02542Y022324D01*
X025513Y022337D01*
X025599Y022373D01*
X025674Y02243D01*
X025731Y022504D01*
X025767Y022591D01*
X025779Y022683D01*
X025767Y022776D01*
X025731Y022863D01*
X025674Y022937D01*
X025599Y022994D01*
X025513Y02303D01*
X02542Y023042D01*
X025327Y02303D01*
X025241Y022994D01*
X025166Y022937D01*
X025109Y022863D01*
X025109Y022862D01*
X025004D01*
X024598Y023268D01*
Y030306D01*
X025194Y030902D01*
X026247D01*
X026273Y030852D01*
X026253Y030821D01*
X026239Y030753D01*
Y030751D01*
X026231Y030738D01*
X026215Y030661D01*
X026231Y030584D01*
X026239Y030571D01*
Y024973D01*
X026231Y02496D01*
X026215Y024883D01*
X026231Y024805D01*
X026274Y02474D01*
X02634Y024696D01*
X026418Y02468D01*
X026495Y024696D01*
X026561Y02474D01*
X026604Y024805D01*
X02662Y024883D01*
X026604Y02496D01*
X026596Y024973D01*
Y030571D01*
X026604Y030584D01*
X02662Y030661D01*
X026604Y030738D01*
X026597Y030749D01*
X026598Y030755D01*
X026585Y030823D01*
X026566Y030852D01*
X026593Y030902D01*
X029652D01*
X029673Y030852D01*
X029615Y030793D01*
X029576Y030735D01*
X029563Y030667D01*
Y030366D01*
X029562Y030356D01*
X029561Y030349D01*
X029342D01*
Y03D01*
X03014D01*
Y030349D01*
X029921D01*
X02992Y030356D01*
X029919Y030366D01*
Y030577D01*
X036335D01*
X036348Y030568D01*
X036375Y030563D01*
Y030755D01*
Y030947D01*
X036348Y030942D01*
X036335Y030933D01*
X032923D01*
Y031785D01*
X032924Y031792D01*
X032928Y031806D01*
X032932Y031819D01*
X032938Y031833D01*
X032946Y031847D01*
X032955Y031862D01*
X032966Y031877D01*
X03298Y031893D01*
X032993Y031906D01*
X032999Y031911D01*
X033056Y031985D01*
X033092Y032072D01*
X033097Y032115D01*
X032745D01*
Y032165D01*
X032695D01*
Y032517D01*
X032652Y032511D01*
X032566Y032475D01*
X032491Y032418D01*
X032434Y032344D01*
X032408Y032282D01*
X032358Y032292D01*
Y032856D01*
X032434Y032932D01*
X040696D01*
X040745Y032883D01*
D02*
G37*
G36*
X032434Y031985D02*
X032491Y031911D01*
X032497Y031906D01*
X03251Y031893D01*
X032524Y031877D01*
X032535Y031862D01*
X032544Y031847D01*
X032552Y031833D01*
X032558Y031819D01*
X032562Y031806D01*
X032566Y031792D01*
X032567Y031785D01*
Y030933D01*
X031916D01*
X031896Y030983D01*
X032306Y031394D01*
X032345Y031452D01*
X032358Y03152D01*
X032358Y03152D01*
Y032037D01*
X032408Y032047D01*
X032434Y031985D01*
D02*
G37*
G36*
X029817Y030369D02*
X029819Y030344D01*
X029823Y030321D01*
X029828Y030301D01*
X029835Y030285D01*
X029843Y030271D01*
X029853Y03026D01*
X029864Y030253D01*
X029877Y030248D01*
X029891Y030247D01*
X029591D01*
X029605Y030248D01*
X029618Y030253D01*
X029629Y03026D01*
X029639Y030271D01*
X029647Y030285D01*
X029654Y030301D01*
X029659Y030321D01*
X029663Y030344D01*
X029665Y030369D01*
X029666Y030398D01*
X029816D01*
X029817Y030369D01*
D02*
G37*
G36*
X04609Y02505D02*
X046088Y025064D01*
X046084Y025077D01*
X046076Y025088D01*
X046065Y025098D01*
X046052Y025106D01*
X046035Y025113D01*
X046016Y025118D01*
X045993Y025122D01*
X045967Y025124D01*
X045938Y025125D01*
Y025275D01*
X045967Y025276D01*
X045993Y025278D01*
X046016Y025282D01*
X046035Y025287D01*
X046052Y025294D01*
X046065Y025302D01*
X046076Y025312D01*
X046084Y025323D01*
X046088Y025336D01*
X04609Y02535D01*
Y02505D01*
D02*
G37*
G36*
X034166Y024139D02*
X03389Y023862D01*
X028731D01*
X028731Y023863D01*
X028674Y023937D01*
X028599Y023994D01*
X028513Y02403D01*
X028478Y024035D01*
X028462Y024082D01*
X028564Y024185D01*
X034147D01*
X034166Y024139D01*
D02*
G37*
G36*
X028675Y020796D02*
X02868Y020783D01*
X028687Y020772D01*
X028698Y020762D01*
X028711Y020754D01*
X028728Y020747D01*
X028748Y020742D01*
X02877Y020738D01*
X028796Y020736D01*
X028825Y020735D01*
Y020585D01*
X028796Y020584D01*
X02877Y020582D01*
X028748Y020578D01*
X028728Y020573D01*
X028711Y020566D01*
X028698Y020558D01*
X028687Y020548D01*
X02868Y020537D01*
X028675Y020524D01*
X028674Y02051D01*
Y02081D01*
X028675Y020796D01*
D02*
G37*
G36*
X028064Y020328D02*
X028776D01*
Y02048D01*
X028783Y020481D01*
X028792Y020482D01*
X028871D01*
X029434Y019919D01*
Y019432D01*
X029388Y019413D01*
X028864Y019937D01*
X028806Y019976D01*
X028738Y019989D01*
X026206D01*
X026191Y020039D01*
X026197Y020044D01*
X027175Y021022D01*
X028064D01*
Y020328D01*
D02*
G37*
G36*
X035562Y019641D02*
Y01909D01*
X035575Y019022D01*
X035614Y018964D01*
X035877Y0187D01*
X035856Y01865D01*
X035706D01*
X03515Y019206D01*
Y01954D01*
X03395D01*
X033918Y019577D01*
Y019639D01*
X034093Y019814D01*
X035389D01*
X035562Y019641D01*
D02*
G37*
G36*
X030399Y019133D02*
X032787D01*
X033042Y018879D01*
Y016807D01*
X029791D01*
Y019082D01*
X029837Y019101D01*
X030224Y018714D01*
X030282Y018675D01*
X03035Y018662D01*
X03263D01*
X032643Y018653D01*
X03272Y018638D01*
X032797Y018653D01*
X032863Y018697D01*
X032907Y018763D01*
X032922Y01884D01*
X032907Y018917D01*
X032863Y018983D01*
X032797Y019027D01*
X03272Y019042D01*
X032643Y019027D01*
X03263Y019018D01*
X030424D01*
X030351Y019092D01*
X030376Y019138D01*
X030399Y019133D01*
D02*
G37*
G36*
X035506Y018346D02*
X035563Y018307D01*
X035632Y018294D01*
X039173D01*
X039388Y018079D01*
Y016807D01*
X039335D01*
X039325Y016857D01*
X039286Y016915D01*
X03868Y01752D01*
X038622Y017559D01*
X038554Y017573D01*
X034804D01*
X034804Y017573D01*
X034736Y017559D01*
X034713Y017543D01*
X03435D01*
X034246Y01753D01*
X034148Y017489D01*
X034065Y017425D01*
X034049Y017405D01*
X033938D01*
X033648Y017694D01*
Y018164D01*
X033695Y018183D01*
X033778Y0181D01*
X033778Y0181D01*
X033836Y018061D01*
X033904Y018048D01*
X033959D01*
X03396Y018036D01*
X034001Y017938D01*
X034065Y017855D01*
X034148Y017791D01*
X034246Y01775D01*
X03435Y017737D01*
X03475D01*
X034854Y01775D01*
X034952Y017791D01*
X035035Y017855D01*
X035099Y017938D01*
X03514Y018036D01*
X035153Y01814D01*
X03514Y018244D01*
X035099Y018342D01*
X035035Y018425D01*
X034952Y018489D01*
X034854Y01853D01*
X03475Y018543D01*
X03435D01*
X034246Y01853D01*
X034148Y018489D01*
X034065Y018425D01*
X034049Y018405D01*
X033978D01*
X033918Y018464D01*
Y018703D01*
X03395Y01874D01*
X035111D01*
X035506Y018346D01*
D02*
G37*
G36*
X03514Y017319D02*
X035103Y017318D01*
X035072Y017316D01*
X035047Y017312D01*
X035027Y017307D01*
X035013Y0173D01*
X035005Y017292D01*
X035003Y017282D01*
X035006Y017271D01*
X035015Y017258D01*
X03503Y017244D01*
X034809Y017434D01*
X034791Y017441D01*
X034782Y017447D01*
X034783Y017452D01*
X034794Y017457D01*
X034814Y01746D01*
X034844Y017464D01*
X034932Y017468D01*
X035058Y017469D01*
X03514Y017319D01*
D02*
G37*
G36*
X038843Y016853D02*
X038824Y016807D01*
X035051D01*
X03504Y016839D01*
X035037Y016857D01*
X035099Y016938D01*
X03514Y017036D01*
X035153Y01714D01*
X035148Y017178D01*
X035181Y017216D01*
X03848D01*
X038843Y016853D01*
D02*
G37*
%LPC*%
G36*
X0379Y035862D02*
Y0355D01*
X038262D01*
X038254Y035558D01*
X038212Y035659D01*
X038146Y035746D01*
X038059Y035812D01*
X037958Y035854D01*
X0379Y035862D01*
D02*
G37*
G36*
X0378D02*
X037742Y035854D01*
X037641Y035812D01*
X037554Y035746D01*
X037488Y035659D01*
X037446Y035558D01*
X037438Y0355D01*
X0378D01*
Y035862D01*
D02*
G37*
G36*
X038262Y0354D02*
X0379D01*
Y035038D01*
X037958Y035046D01*
X038059Y035088D01*
X038146Y035154D01*
X038212Y035241D01*
X038254Y035342D01*
X038262Y0354D01*
D02*
G37*
G36*
X0378D02*
X037438D01*
X037446Y035342D01*
X037488Y035241D01*
X037554Y035154D01*
X037641Y035088D01*
X037742Y035046D01*
X0378Y035038D01*
Y0354D01*
D02*
G37*
G36*
X040265Y035865D02*
X039435D01*
Y035035D01*
X040265D01*
Y035865D01*
D02*
G37*
G36*
X03885Y035869D02*
X038742Y035854D01*
X038641Y035812D01*
X038554Y035746D01*
X038488Y035659D01*
X038446Y035558D01*
X038431Y03545D01*
X038446Y035342D01*
X038488Y035241D01*
X038554Y035154D01*
X038641Y035088D01*
X038742Y035046D01*
X03885Y035031D01*
X038958Y035046D01*
X039059Y035088D01*
X039146Y035154D01*
X039212Y035241D01*
X039254Y035342D01*
X039269Y03545D01*
X039254Y035558D01*
X039212Y035659D01*
X039146Y035746D01*
X039059Y035812D01*
X038958Y035854D01*
X03885Y035869D01*
D02*
G37*
G36*
X03685D02*
X036742Y035854D01*
X036641Y035812D01*
X036554Y035746D01*
X036488Y035659D01*
X036446Y035558D01*
X036431Y03545D01*
X036446Y035342D01*
X036488Y035241D01*
X036554Y035154D01*
X036641Y035088D01*
X036742Y035046D01*
X03685Y035031D01*
X036958Y035046D01*
X037059Y035088D01*
X037146Y035154D01*
X037212Y035241D01*
X037254Y035342D01*
X037269Y03545D01*
X037254Y035558D01*
X037212Y035659D01*
X037146Y035746D01*
X037059Y035812D01*
X036958Y035854D01*
X03685Y035869D01*
D02*
G37*
G36*
X03585D02*
X035742Y035854D01*
X035641Y035812D01*
X035554Y035746D01*
X035488Y035659D01*
X035446Y035558D01*
X035431Y03545D01*
X035446Y035342D01*
X035488Y035241D01*
X035554Y035154D01*
X035641Y035088D01*
X035742Y035046D01*
X03585Y035031D01*
X035958Y035046D01*
X036059Y035088D01*
X036146Y035154D01*
X036212Y035241D01*
X036254Y035342D01*
X036269Y03545D01*
X036254Y035558D01*
X036212Y035659D01*
X036146Y035746D01*
X036059Y035812D01*
X035958Y035854D01*
X03585Y035869D01*
D02*
G37*
G36*
X03485D02*
X034742Y035854D01*
X034641Y035812D01*
X034554Y035746D01*
X034488Y035659D01*
X034446Y035558D01*
X034431Y03545D01*
X034446Y035342D01*
X034488Y035241D01*
X034554Y035154D01*
X034641Y035088D01*
X034742Y035046D01*
X03485Y035031D01*
X034958Y035046D01*
X035059Y035088D01*
X035146Y035154D01*
X035212Y035241D01*
X035254Y035342D01*
X035269Y03545D01*
X035254Y035558D01*
X035212Y035659D01*
X035146Y035746D01*
X035059Y035812D01*
X034958Y035854D01*
X03485Y035869D01*
D02*
G37*
G36*
X03385D02*
X033742Y035854D01*
X033641Y035812D01*
X033554Y035746D01*
X033488Y035659D01*
X033446Y035558D01*
X033431Y03545D01*
X033446Y035342D01*
X033488Y035241D01*
X033554Y035154D01*
X033641Y035088D01*
X033742Y035046D01*
X03385Y035031D01*
X033958Y035046D01*
X034059Y035088D01*
X034146Y035154D01*
X034212Y035241D01*
X034254Y035342D01*
X034269Y03545D01*
X034254Y035558D01*
X034212Y035659D01*
X034146Y035746D01*
X034059Y035812D01*
X033958Y035854D01*
X03385Y035869D01*
D02*
G37*
G36*
X03285D02*
X032742Y035854D01*
X032641Y035812D01*
X032554Y035746D01*
X032488Y035659D01*
X032446Y035558D01*
X032431Y03545D01*
X032446Y035342D01*
X032488Y035241D01*
X032554Y035154D01*
X032641Y035088D01*
X032742Y035046D01*
X03285Y035031D01*
X032958Y035046D01*
X033059Y035088D01*
X033146Y035154D01*
X033212Y035241D01*
X033254Y035342D01*
X033269Y03545D01*
X033254Y035558D01*
X033212Y035659D01*
X033146Y035746D01*
X033059Y035812D01*
X032958Y035854D01*
X03285Y035869D01*
D02*
G37*
G36*
X040304Y034812D02*
X040276Y034807D01*
X040263Y034798D01*
X03794D01*
X037927Y034807D01*
X0379Y034812D01*
Y03462D01*
Y034428D01*
X037927Y034433D01*
X03794Y034442D01*
X040263D01*
X040276Y034433D01*
X040304Y034428D01*
Y03462D01*
Y034812D01*
D02*
G37*
G36*
X04165Y03517D02*
X041225D01*
Y03467D01*
X04165D01*
Y03517D01*
D02*
G37*
G36*
X040404Y034812D02*
Y03467D01*
X040546D01*
X04054Y034697D01*
X040497Y034763D01*
X040431Y034807D01*
X040404Y034812D01*
D02*
G37*
G36*
X0378D02*
X037773Y034807D01*
X037707Y034763D01*
X037663Y034697D01*
X037658Y03467D01*
X0378D01*
Y034812D01*
D02*
G37*
G36*
X035165Y03467D02*
X035088Y034655D01*
X035075Y034646D01*
X03294D01*
X032927Y034655D01*
X03285Y03467D01*
X032773Y034655D01*
X032707Y034611D01*
X032663Y034545D01*
X032648Y034468D01*
X032663Y03439D01*
X032707Y034325D01*
X032773Y034281D01*
X03285Y034265D01*
X032927Y034281D01*
X03294Y034289D01*
X035075D01*
X035088Y034281D01*
X035165Y034265D01*
X035242Y034281D01*
X035308Y034325D01*
X035352Y03439D01*
X035367Y034468D01*
X035352Y034545D01*
X035308Y034611D01*
X035242Y034655D01*
X035165Y03467D01*
D02*
G37*
G36*
X0178Y035575D02*
X0167D01*
Y034625D01*
X0178D01*
Y035575D01*
D02*
G37*
G36*
X040546Y03457D02*
X040404D01*
Y034428D01*
X040431Y034433D01*
X040497Y034477D01*
X04054Y034543D01*
X040546Y03457D01*
D02*
G37*
G36*
X0378D02*
X037658D01*
X037663Y034543D01*
X037707Y034477D01*
X037773Y034433D01*
X0378Y034428D01*
Y03457D01*
D02*
G37*
G36*
X035834Y034178D02*
X035756Y034163D01*
X035744Y034155D01*
X034376D01*
X034375Y034155D01*
X034298Y03417D01*
X034221Y034155D01*
X034155Y034111D01*
X034111Y034045D01*
X034096Y033968D01*
X034111Y033891D01*
X034155Y033825D01*
X034206Y033791D01*
X034191Y033741D01*
X031319D01*
X031307Y033749D01*
X031229Y033765D01*
X031152Y033749D01*
X031086Y033705D01*
X031042Y03364D01*
X031027Y033562D01*
X031042Y033485D01*
X031086Y033419D01*
X031152Y033375D01*
X031229Y03336D01*
X031307Y033375D01*
X031319Y033384D01*
X036752D01*
X036758Y033385D01*
X036773Y033375D01*
X03685Y03336D01*
X036927Y033375D01*
X036993Y033419D01*
X037037Y033485D01*
X037052Y033562D01*
X037037Y03364D01*
X036993Y033705D01*
X036927Y033749D01*
X03685Y033765D01*
X036795Y033754D01*
X03677Y033758D01*
X036702Y033745D01*
X036695Y033741D01*
X035928D01*
X035913Y033787D01*
X035913Y033791D01*
X035977Y033833D01*
X036021Y033899D01*
X036036Y033976D01*
X036021Y034054D01*
X035977Y034119D01*
X035911Y034163D01*
X035834Y034178D01*
D02*
G37*
G36*
X02345Y034396D02*
Y0341D01*
X023746D01*
X023741Y034141D01*
X023706Y034227D01*
X02365Y0343D01*
X023577Y034356D01*
X023491Y034391D01*
X02345Y034396D01*
D02*
G37*
G36*
X04165Y03457D02*
X041225D01*
Y03407D01*
X04165D01*
Y03457D01*
D02*
G37*
G36*
X017325Y034529D02*
X0173D01*
Y03405D01*
X0172D01*
Y034529D01*
X017175D01*
X017051Y034513D01*
X016935Y034465D01*
X016836Y034389D01*
X01676Y03429D01*
X016751Y034267D01*
X016744Y034264D01*
X016723Y03426D01*
X016665Y034254D01*
X0164D01*
X016322Y034238D01*
X016256Y034194D01*
X015956Y033894D01*
X015912Y033828D01*
X015896Y03375D01*
Y030589D01*
X015895Y030574D01*
X015891Y030552D01*
X015887Y030537D01*
X015886Y030535D01*
X015665D01*
Y03015D01*
X0161D01*
X016535D01*
Y030535D01*
X016314D01*
X016313Y030537D01*
X016309Y030552D01*
X016305Y030574D01*
X016304Y030589D01*
Y033666D01*
X016484Y033846D01*
X016671D01*
X016692Y033845D01*
X016722Y033841D01*
X016744Y033836D01*
X016751Y033833D01*
X01676Y03381D01*
X016836Y033711D01*
X016935Y033635D01*
X017051Y033587D01*
X017142Y033575D01*
Y033525D01*
X017051Y033513D01*
X016935Y033465D01*
X016836Y033389D01*
X01676Y03329D01*
X016712Y033174D01*
X016696Y03305D01*
X016712Y032926D01*
X01676Y03281D01*
X016836Y032711D01*
X016935Y032635D01*
X017051Y032587D01*
X017175Y032571D01*
X017325D01*
X017449Y032587D01*
X017565Y032635D01*
X017664Y032711D01*
X01774Y03281D01*
X017755Y032846D01*
X023115D01*
X02315Y0328D01*
X023223Y032744D01*
X023309Y032709D01*
X0234Y032697D01*
X023491Y032709D01*
X023577Y032744D01*
X02365Y0328D01*
X023706Y032873D01*
X023741Y032959D01*
X023753Y03305D01*
X023741Y033141D01*
X023706Y033227D01*
X02365Y0333D01*
X023577Y033356D01*
X023491Y033391D01*
X0234Y033403D01*
X023309Y033391D01*
X023223Y033356D01*
X02315Y0333D01*
X023115Y033254D01*
X017755D01*
X01774Y03329D01*
X017664Y033389D01*
X017565Y033465D01*
X017449Y033513D01*
X017358Y033525D01*
Y033575D01*
X017449Y033587D01*
X017565Y033635D01*
X017664Y033711D01*
X01774Y03381D01*
X017749Y033833D01*
X017756Y033836D01*
X017777Y03384D01*
X017835Y033846D01*
X023054D01*
X023056Y033846D01*
X023072Y033843D01*
X023086Y03384D01*
X023099Y033836D01*
X02311Y033831D01*
X023121Y033825D01*
X023131Y033819D01*
X02314Y033812D01*
X023146Y033806D01*
X02315Y0338D01*
X023223Y033744D01*
X023309Y033709D01*
X02335Y033704D01*
Y03405D01*
Y034396D01*
X023309Y034391D01*
X023223Y034356D01*
X02315Y0343D01*
X023146Y034294D01*
X02314Y034288D01*
X023131Y034281D01*
X023121Y034275D01*
X02311Y034269D01*
X023099Y034264D01*
X023086Y03426D01*
X023072Y034257D01*
X023056Y034254D01*
X023054Y034254D01*
X017829D01*
X017808Y034255D01*
X017778Y034259D01*
X017756Y034264D01*
X017749Y034267D01*
X01774Y03429D01*
X017664Y034389D01*
X017565Y034465D01*
X017449Y034513D01*
X017325Y034529D01*
D02*
G37*
G36*
X023746Y034D02*
X02345D01*
Y033704D01*
X023491Y033709D01*
X023577Y033744D01*
X02365Y0338D01*
X023706Y033873D01*
X023741Y033959D01*
X023746Y034D01*
D02*
G37*
G36*
X016535Y03005D02*
X0161D01*
X015665D01*
Y029665D01*
X015886D01*
X015887Y029662D01*
X015891Y029647D01*
X015895Y029626D01*
X015896Y029611D01*
Y028846D01*
X015896Y028844D01*
X015893Y028828D01*
X01589Y028814D01*
X015886Y028801D01*
X015881Y02879D01*
X015875Y028779D01*
X015869Y028769D01*
X015862Y02876D01*
X015856Y028754D01*
X01585Y02875D01*
X015794Y028677D01*
X015759Y028591D01*
X015754Y02855D01*
X016446D01*
X016441Y028591D01*
X016406Y028677D01*
X01635Y02875D01*
X016344Y028754D01*
X016338Y02876D01*
X016331Y028769D01*
X016325Y028779D01*
X016319Y02879D01*
X016314Y028801D01*
X01631Y028814D01*
X016307Y028828D01*
X016304Y028844D01*
X016304Y028846D01*
Y029611D01*
X016305Y029626D01*
X016309Y029647D01*
X016313Y029662D01*
X016314Y029665D01*
X016535D01*
Y03005D01*
D02*
G37*
G36*
X016446Y02845D02*
X01615D01*
Y028154D01*
X016191Y028159D01*
X016277Y028194D01*
X01635Y02825D01*
X016406Y028323D01*
X016441Y028409D01*
X016446Y02845D01*
D02*
G37*
G36*
X01605D02*
X015754D01*
X015759Y028409D01*
X015794Y028323D01*
X01585Y02825D01*
X015923Y028194D01*
X016009Y028159D01*
X01605Y028154D01*
Y02845D01*
D02*
G37*
G36*
X01835Y030422D02*
X018273Y030407D01*
X018207Y030363D01*
X018163Y030297D01*
X018148Y03022D01*
X018163Y030143D01*
X018172Y03013D01*
Y021621D01*
X018185Y021553D01*
X018224Y021495D01*
X019645Y020074D01*
X019645Y020074D01*
X019703Y020035D01*
X019771Y020022D01*
X019771Y020022D01*
X02146D01*
X021473Y020013D01*
X02155Y019998D01*
X021627Y020013D01*
X021693Y020057D01*
X021737Y020123D01*
X021752Y0202D01*
X021737Y020277D01*
X021693Y020343D01*
X021627Y020387D01*
X02155Y020402D01*
X021473Y020387D01*
X02146Y020378D01*
X019845D01*
X018528Y021695D01*
Y03013D01*
X018537Y030143D01*
X018552Y03022D01*
X018537Y030297D01*
X018493Y030363D01*
X018427Y030407D01*
X01835Y030422D01*
D02*
G37*
G36*
X02057Y01898D02*
X019661D01*
Y018071D01*
X02057D01*
Y01898D01*
D02*
G37*
G36*
X018602D02*
X017693D01*
Y018071D01*
X018602D01*
Y01898D01*
D02*
G37*
G36*
X0216Y015398D02*
Y0148D01*
X022198D01*
X022191Y014877D01*
X022153Y015D01*
X022093Y015113D01*
X022012Y015212D01*
X021913Y015293D01*
X0218Y015353D01*
X021677Y015391D01*
X0216Y015398D01*
D02*
G37*
G36*
X0215D02*
X021423Y015391D01*
X0213Y015353D01*
X021187Y015293D01*
X021088Y015212D01*
X021007Y015113D01*
X020947Y015D01*
X020909Y014877D01*
X020902Y0148D01*
X0215D01*
Y015398D01*
D02*
G37*
G36*
X022198Y0147D02*
X0216D01*
Y014102D01*
X021677Y014109D01*
X0218Y014147D01*
X021913Y014207D01*
X022012Y014288D01*
X022093Y014387D01*
X022153Y0145D01*
X022191Y014623D01*
X022198Y0147D01*
D02*
G37*
G36*
X0215D02*
X020902D01*
X020909Y014623D01*
X020947Y0145D01*
X021007Y014387D01*
X021088Y014288D01*
X021187Y014207D01*
X0213Y014147D01*
X021423Y014109D01*
X0215Y014102D01*
Y0147D01*
D02*
G37*
G36*
X02355Y015403D02*
X023423Y015391D01*
X0233Y015353D01*
X023187Y015293D01*
X023088Y015212D01*
X023007Y015113D01*
X022947Y015D01*
X022909Y014877D01*
X022897Y01475D01*
X022909Y014623D01*
X022947Y0145D01*
X023007Y014387D01*
X023088Y014288D01*
X023187Y014207D01*
X0233Y014147D01*
X023423Y014109D01*
X02355Y014097D01*
X023677Y014109D01*
X0238Y014147D01*
X023913Y014207D01*
X024012Y014288D01*
X024093Y014387D01*
X024153Y0145D01*
X024191Y014623D01*
X024203Y01475D01*
X024191Y014877D01*
X024153Y015D01*
X024093Y015113D01*
X024012Y015212D01*
X023913Y015293D01*
X0238Y015353D01*
X023677Y015391D01*
X02355Y015403D01*
D02*
G37*
G36*
X018147D02*
X01802Y015391D01*
X017897Y015353D01*
X017784Y015293D01*
X017685Y015212D01*
X017604Y015113D01*
X017544Y015D01*
X017507Y014877D01*
X017494Y01475D01*
X017507Y014623D01*
X017544Y0145D01*
X017604Y014387D01*
X017685Y014288D01*
X017784Y014207D01*
X017897Y014147D01*
X01802Y014109D01*
X018147Y014097D01*
X018275Y014109D01*
X018397Y014147D01*
X01851Y014207D01*
X018609Y014288D01*
X01869Y014387D01*
X018751Y0145D01*
X018788Y014623D01*
X0188Y01475D01*
X018788Y014877D01*
X018751Y015D01*
X01869Y015113D01*
X018609Y015212D01*
X01851Y015293D01*
X018397Y015353D01*
X018275Y015391D01*
X018147Y015403D01*
D02*
G37*
G36*
X016147D02*
X01602Y015391D01*
X015897Y015353D01*
X015784Y015293D01*
X015685Y015212D01*
X015604Y015113D01*
X015544Y015D01*
X015507Y014877D01*
X015494Y01475D01*
X015507Y014623D01*
X015544Y0145D01*
X015604Y014387D01*
X015685Y014288D01*
X015784Y014207D01*
X015897Y014147D01*
X01602Y014109D01*
X016147Y014097D01*
X016275Y014109D01*
X016397Y014147D01*
X01651Y014207D01*
X016609Y014288D01*
X01669Y014387D01*
X016751Y0145D01*
X016788Y014623D01*
X0168Y01475D01*
X016788Y014877D01*
X016751Y015D01*
X01669Y015113D01*
X016609Y015212D01*
X01651Y015293D01*
X016397Y015353D01*
X016275Y015391D01*
X016147Y015403D01*
D02*
G37*
%LPD*%
G36*
X023221Y033875D02*
X023206Y033889D01*
X02319Y033902D01*
X023173Y033913D01*
X023154Y033923D01*
X023135Y033931D01*
X023114Y033938D01*
X023092Y033943D01*
X02307Y033947D01*
X023046Y033949D01*
X023021Y03395D01*
Y03415D01*
X023046Y034151D01*
X02307Y034153D01*
X023092Y034157D01*
X023114Y034162D01*
X023135Y034169D01*
X023154Y034177D01*
X023173Y034187D01*
X02319Y034198D01*
X023206Y034211D01*
X023221Y034225D01*
Y033875D01*
D02*
G37*
G36*
X017643Y034231D02*
X017651Y034214D01*
X017663Y034199D01*
X01768Y034186D01*
X017702Y034175D01*
X017729Y034166D01*
X017761Y034159D01*
X017797Y034154D01*
X017839Y034151D01*
X017885Y03415D01*
Y03395D01*
X017839Y033949D01*
X017761Y033941D01*
X017729Y033934D01*
X017702Y033925D01*
X01768Y033914D01*
X017663Y033901D01*
X017651Y033886D01*
X017643Y033869D01*
X017641Y033851D01*
Y034249D01*
X017643Y034231D01*
D02*
G37*
G36*
X016859Y033851D02*
X016857Y033869D01*
X016849Y033886D01*
X016837Y033901D01*
X01682Y033914D01*
X016798Y033925D01*
X016771Y033934D01*
X016739Y033941D01*
X016703Y033946D01*
X016661Y033949D01*
X016615Y03395D01*
Y03415D01*
X016661Y034151D01*
X016739Y034159D01*
X016771Y034166D01*
X016798Y034175D01*
X01682Y034186D01*
X016837Y034199D01*
X016849Y034214D01*
X016857Y034231D01*
X016859Y034249D01*
Y033851D01*
D02*
G37*
G36*
X016201Y030595D02*
X016204Y030561D01*
X016209Y030531D01*
X016216Y030505D01*
X016225Y030483D01*
X016236Y030464D01*
X016249Y03045D01*
X016264Y03044D01*
X016281Y030434D01*
X0163Y030432D01*
X0159D01*
X015919Y030434D01*
X015936Y03044D01*
X015951Y03045D01*
X015964Y030464D01*
X015975Y030483D01*
X015984Y030505D01*
X015991Y030531D01*
X015996Y030561D01*
X015999Y030595D01*
X016Y030633D01*
X0162D01*
X016201Y030595D01*
D02*
G37*
G36*
X016281Y029765D02*
X016264Y029759D01*
X016249Y029749D01*
X016236Y029735D01*
X016225Y029717D01*
X016216Y029695D01*
X016209Y029669D01*
X016204Y029639D01*
X016201Y029605D01*
X0162Y029567D01*
X016D01*
X015999Y029605D01*
X015996Y029639D01*
X015991Y029669D01*
X015984Y029695D01*
X015975Y029717D01*
X015964Y029735D01*
X015951Y029749D01*
X015936Y029759D01*
X015919Y029765D01*
X0159Y029767D01*
X0163D01*
X016281Y029765D01*
D02*
G37*
G36*
X016201Y028854D02*
X016203Y02883D01*
X016207Y028808D01*
X016212Y028786D01*
X016219Y028765D01*
X016227Y028746D01*
X016237Y028727D01*
X016248Y02871D01*
X016261Y028694D01*
X016275Y028679D01*
X015925D01*
X015939Y028694D01*
X015952Y02871D01*
X015963Y028727D01*
X015973Y028746D01*
X015981Y028765D01*
X015988Y028786D01*
X015993Y028808D01*
X015997Y02883D01*
X015999Y028854D01*
X016Y028879D01*
X0162D01*
X016201Y028854D01*
D02*
G37*
%LPC*%
G36*
X032795Y032517D02*
Y032215D01*
X033097D01*
X033092Y032257D01*
X033056Y032344D01*
X032999Y032418D01*
X032924Y032475D01*
X032838Y032511D01*
X032795Y032517D01*
D02*
G37*
G36*
X038104Y030954D02*
X038077Y030948D01*
X038055Y030933D01*
X036515D01*
X036502Y030942D01*
X036475Y030947D01*
Y030755D01*
Y030563D01*
X036502Y030568D01*
X036515Y030577D01*
X038074D01*
X038077Y030574D01*
X038104Y030569D01*
Y030761D01*
Y030954D01*
D02*
G37*
G36*
X038204D02*
Y030811D01*
X038347D01*
X038341Y030839D01*
X038297Y030904D01*
X038232Y030948D01*
X038204Y030954D01*
D02*
G37*
G36*
X038347Y030711D02*
X038204D01*
Y030569D01*
X038232Y030574D01*
X038297Y030618D01*
X038341Y030684D01*
X038347Y030711D01*
D02*
G37*
G36*
X03014Y0299D02*
X029791D01*
Y029551D01*
X03014D01*
Y0299D01*
D02*
G37*
G36*
X029691D02*
X029342D01*
Y029551D01*
X029691D01*
Y0299D01*
D02*
G37*
G36*
X034741Y030353D02*
X034637Y030339D01*
X03454Y030299D01*
X034456Y030235D01*
X034392Y030151D01*
X034352Y030054D01*
X034338Y02995D01*
X034352Y029846D01*
X034392Y029749D01*
X034456Y029665D01*
X03454Y029601D01*
X034637Y029561D01*
X034741Y029547D01*
X034845Y029561D01*
X034942Y029601D01*
X035026Y029665D01*
X03509Y029749D01*
X03513Y029846D01*
X035144Y02995D01*
X03513Y030054D01*
X03509Y030151D01*
X035026Y030235D01*
X034942Y030299D01*
X034845Y030339D01*
X034741Y030353D01*
D02*
G37*
G36*
X033741D02*
X033637Y030339D01*
X03354Y030299D01*
X033456Y030235D01*
X033392Y030151D01*
X033352Y030054D01*
X033338Y02995D01*
X033352Y029846D01*
X033392Y029749D01*
X033456Y029665D01*
X03354Y029601D01*
X033637Y029561D01*
X033741Y029547D01*
X033845Y029561D01*
X033942Y029601D01*
X034026Y029665D01*
X03409Y029749D01*
X03413Y029846D01*
X034144Y02995D01*
X03413Y030054D01*
X03409Y030151D01*
X034026Y030235D01*
X033942Y030299D01*
X033845Y030339D01*
X033741Y030353D01*
D02*
G37*
G36*
X032741D02*
X032637Y030339D01*
X03254Y030299D01*
X032456Y030235D01*
X032392Y030151D01*
X032352Y030054D01*
X032338Y02995D01*
X032352Y029846D01*
X032392Y029749D01*
X032456Y029665D01*
X03254Y029601D01*
X032637Y029561D01*
X032741Y029547D01*
X032845Y029561D01*
X032942Y029601D01*
X033026Y029665D01*
X03309Y029749D01*
X03313Y029846D01*
X033144Y02995D01*
X03313Y030054D01*
X03309Y030151D01*
X033026Y030235D01*
X032942Y030299D01*
X032845Y030339D01*
X032741Y030353D01*
D02*
G37*
G36*
X031741D02*
X031637Y030339D01*
X03154Y030299D01*
X031456Y030235D01*
X031392Y030151D01*
X031352Y030054D01*
X031338Y02995D01*
X031352Y029846D01*
X031392Y029749D01*
X031456Y029665D01*
X03154Y029601D01*
X031637Y029561D01*
X031741Y029547D01*
X031845Y029561D01*
X031942Y029601D01*
X032026Y029665D01*
X03209Y029749D01*
X03213Y029846D01*
X032144Y02995D01*
X03213Y030054D01*
X03209Y030151D01*
X032026Y030235D01*
X031942Y030299D01*
X031845Y030339D01*
X031741Y030353D01*
D02*
G37*
G36*
X030741D02*
X030637Y030339D01*
X03054Y030299D01*
X030456Y030235D01*
X030392Y030151D01*
X030352Y030054D01*
X030338Y02995D01*
X030352Y029846D01*
X030392Y029749D01*
X030456Y029665D01*
X03054Y029601D01*
X030637Y029561D01*
X030741Y029547D01*
X030845Y029561D01*
X030942Y029601D01*
X031026Y029665D01*
X03109Y029749D01*
X03113Y029846D01*
X031144Y02995D01*
X03113Y030054D01*
X03109Y030151D01*
X031026Y030235D01*
X030942Y030299D01*
X030845Y030339D01*
X030741Y030353D01*
D02*
G37*
G36*
X03634Y029186D02*
X036286Y029179D01*
X036189Y029139D01*
X036105Y029075D01*
X036041Y028991D01*
X036001Y028894D01*
X035994Y02884D01*
X03634D01*
Y029186D01*
D02*
G37*
G36*
X038194Y02896D02*
Y028766D01*
Y028574D01*
X038221Y028579D01*
X038244Y028594D01*
X038248Y028595D01*
X038306Y028634D01*
X038345Y028692D01*
X038358Y02876D01*
X038345Y028828D01*
X038306Y028886D01*
X038294Y028898D01*
X038287Y028909D01*
X038221Y028953D01*
X038221Y028953D01*
X038218Y028955D01*
X038194Y02896D01*
D02*
G37*
G36*
X03644Y029186D02*
Y02879D01*
Y028394D01*
X036494Y028401D01*
X036591Y028441D01*
X036675Y028505D01*
X036681Y028514D01*
X036699Y028531D01*
X036721Y02855D01*
X036742Y028567D01*
X036762Y02858D01*
X036781Y028591D01*
X036799Y028599D01*
X036815Y028606D01*
X036831Y02861D01*
X036842Y028612D01*
X038018D01*
X038066Y028579D01*
X038094Y028574D01*
Y028766D01*
Y028968D01*
X036842D01*
X036831Y02897D01*
X036815Y028974D01*
X036799Y028981D01*
X036781Y028989D01*
X036762Y029D01*
X036743Y029013D01*
X036698Y02905D01*
X036681Y029066D01*
X036675Y029075D01*
X036591Y029139D01*
X036494Y029179D01*
X03644Y029186D01*
D02*
G37*
G36*
X03634Y02874D02*
X035994D01*
X036001Y028686D01*
X036041Y028589D01*
X036105Y028505D01*
X036189Y028441D01*
X036286Y028401D01*
X03634Y028394D01*
Y02874D01*
D02*
G37*
G36*
X03639Y028193D02*
X036286Y028179D01*
X036189Y028139D01*
X036105Y028075D01*
X036041Y027991D01*
X036001Y027894D01*
X035987Y02779D01*
X036001Y027686D01*
X036041Y027589D01*
X036105Y027505D01*
X036189Y027441D01*
X036286Y027401D01*
X03639Y027387D01*
X036494Y027401D01*
X036591Y027441D01*
X036675Y027505D01*
X036739Y027589D01*
X036779Y027686D01*
X036793Y02779D01*
X036779Y027894D01*
X036739Y027991D01*
X036675Y028075D01*
X036591Y028139D01*
X036494Y028179D01*
X03639Y028193D01*
D02*
G37*
G36*
X036789Y027189D02*
X035991D01*
Y026391D01*
X036789D01*
Y027189D01*
D02*
G37*
G36*
X02806Y027375D02*
X02696D01*
Y026425D01*
X027401D01*
X027404Y026375D01*
X027311Y026363D01*
X027195Y026315D01*
X027096Y026239D01*
X02702Y02614D01*
X026972Y026024D01*
X026962Y02595D01*
X02751D01*
X028058D01*
X028048Y026024D01*
X028Y02614D01*
X027924Y026239D01*
X027825Y026315D01*
X027709Y026363D01*
X027616Y026375D01*
X027619Y026425D01*
X02806D01*
Y027375D01*
D02*
G37*
G36*
X029442Y027291D02*
X029364Y027276D01*
X029298Y027232D01*
X029255Y027166D01*
X029239Y027089D01*
X029255Y027012D01*
X029263Y026999D01*
Y025694D01*
X029254Y025681D01*
X029239Y025604D01*
X029254Y025526D01*
X029298Y025461D01*
X029364Y025417D01*
X029441Y025401D01*
X029519Y025417D01*
X029584Y025461D01*
X029628Y025526D01*
X029644Y025604D01*
X029628Y025681D01*
X02962Y025694D01*
Y026999D01*
X029628Y027012D01*
X029644Y027089D01*
X029628Y027166D01*
X029585Y027232D01*
X029519Y027276D01*
X029442Y027291D01*
D02*
G37*
G36*
X04421Y025656D02*
X04311D01*
Y024706D01*
X043551D01*
X043554Y024656D01*
X043461Y024643D01*
X043345Y024596D01*
X043246Y024519D01*
X04317Y02442D01*
X043122Y024305D01*
X043112Y024231D01*
X04366D01*
X044208D01*
X044198Y024305D01*
X04415Y02442D01*
X044074Y024519D01*
X043975Y024596D01*
X043859Y024643D01*
X043766Y024656D01*
X043769Y024706D01*
X04421D01*
Y025656D01*
D02*
G37*
G36*
X047085Y024131D02*
X046587D01*
Y023702D01*
X046612D01*
X046736Y023718D01*
X046852Y023766D01*
X046951Y023842D01*
X047027Y023941D01*
X047075Y024057D01*
X047085Y024131D01*
D02*
G37*
G36*
X046487D02*
X04599D01*
X046Y024057D01*
X046047Y023941D01*
X046124Y023842D01*
X046223Y023766D01*
X046338Y023718D01*
X046462Y023702D01*
X046487D01*
Y024131D01*
D02*
G37*
G36*
X044208Y024131D02*
X04371D01*
Y023702D01*
X043735D01*
X043859Y023718D01*
X043975Y023766D01*
X044074Y023842D01*
X04415Y023941D01*
X044198Y024057D01*
X044208Y024131D01*
D02*
G37*
G36*
X04361D02*
X043112D01*
X043122Y024057D01*
X04317Y023941D01*
X043246Y023842D01*
X043345Y023766D01*
X043461Y023718D01*
X043585Y023702D01*
X04361D01*
Y024131D01*
D02*
G37*
G36*
X046955Y022669D02*
X04693D01*
Y02224D01*
X047428D01*
X047418Y022314D01*
X04737Y02243D01*
X047294Y022529D01*
X047195Y022605D01*
X047079Y022653D01*
X046955Y022669D01*
D02*
G37*
G36*
X04683D02*
X046805D01*
X046681Y022653D01*
X046565Y022605D01*
X046466Y022529D01*
X04639Y02243D01*
X046342Y022314D01*
X046332Y02224D01*
X04683D01*
Y022669D01*
D02*
G37*
G36*
X02542Y022042D02*
X025327Y02203D01*
X025241Y021994D01*
X025166Y021937D01*
X025109Y021863D01*
X025073Y021776D01*
X025061Y021683D01*
X025073Y021591D01*
X025109Y021504D01*
X025166Y02143D01*
X025241Y021373D01*
X025327Y021337D01*
X02542Y021324D01*
X025513Y021337D01*
X025599Y021373D01*
X025674Y02143D01*
X025731Y021504D01*
X025767Y021591D01*
X025779Y021683D01*
X025767Y021776D01*
X025731Y021863D01*
X025674Y021937D01*
X025599Y021994D01*
X025513Y02203D01*
X02542Y022042D01*
D02*
G37*
G36*
X03455Y023799D02*
X034473Y023783D01*
X034407Y02374D01*
X034363Y023674D01*
X034348Y023596D01*
X034363Y023519D01*
X034372Y023506D01*
Y021227D01*
X034363Y021214D01*
X034348Y021137D01*
X034363Y021059D01*
X034407Y020994D01*
X034473Y02095D01*
X03455Y020934D01*
X034627Y02095D01*
X034693Y020994D01*
X034737Y021059D01*
X034752Y021137D01*
X034737Y021214D01*
X034728Y021227D01*
Y023506D01*
X034737Y023519D01*
X034752Y023596D01*
X034737Y023674D01*
X034693Y02374D01*
X034627Y023783D01*
X03455Y023799D01*
D02*
G37*
G36*
X044558Y02218D02*
X04401D01*
X043462D01*
X043472Y022106D01*
X04352Y02199D01*
X043596Y021891D01*
X043695Y021815D01*
X043811Y021767D01*
X043904Y021755D01*
X043901Y021705D01*
X04346D01*
Y020755D01*
X04456D01*
Y021705D01*
X044119D01*
X044116Y021755D01*
X044209Y021767D01*
X044325Y021815D01*
X044424Y021891D01*
X0445Y02199D01*
X044548Y022106D01*
X044558Y02218D01*
D02*
G37*
G36*
X047428Y02214D02*
X04688D01*
X046332D01*
X046342Y022066D01*
X04639Y02195D01*
X046466Y021851D01*
X046565Y021775D01*
X046681Y021727D01*
X046774Y021715D01*
X046771Y021665D01*
X04633D01*
Y020715D01*
X04743D01*
Y021665D01*
X046989D01*
X046986Y021715D01*
X047079Y021727D01*
X047195Y021775D01*
X047294Y021851D01*
X04737Y02195D01*
X047418Y022066D01*
X047428Y02214D01*
D02*
G37*
G36*
X03504Y023799D02*
X034963Y023783D01*
X034897Y02374D01*
X034853Y023674D01*
X034838Y023596D01*
X034853Y023519D01*
X034872Y023492D01*
Y020736D01*
X034863Y020723D01*
X034848Y020645D01*
X034863Y020568D01*
X034907Y020502D01*
X034973Y020459D01*
X03505Y020443D01*
X035127Y020459D01*
X035193Y020502D01*
X035237Y020568D01*
X035252Y020645D01*
X035237Y020723D01*
X035228Y020736D01*
Y023526D01*
X035242Y023596D01*
X035227Y023674D01*
X035183Y02374D01*
X035118Y023783D01*
X03504Y023799D01*
D02*
G37*
G36*
X027477Y019144D02*
Y018798D01*
X027823D01*
X027816Y018852D01*
X027776Y018949D01*
X027712Y019032D01*
X027628Y019096D01*
X027531Y019137D01*
X027477Y019144D01*
D02*
G37*
G36*
X027377D02*
X027323Y019137D01*
X027226Y019096D01*
X027142Y019032D01*
X027078Y018949D01*
X027038Y018852D01*
X027031Y018798D01*
X027377D01*
Y019144D01*
D02*
G37*
G36*
X027823Y018698D02*
X027477D01*
Y018352D01*
X027531Y018359D01*
X027628Y018399D01*
X027712Y018463D01*
X027776Y018546D01*
X027816Y018643D01*
X027823Y018698D01*
D02*
G37*
G36*
X027377D02*
X027031D01*
X027038Y018643D01*
X027078Y018546D01*
X027142Y018463D01*
X027226Y018399D01*
X027323Y018359D01*
X027377Y018352D01*
Y018698D01*
D02*
G37*
G36*
X027477Y018144D02*
Y017798D01*
X027823D01*
X027816Y017852D01*
X027776Y017949D01*
X027712Y018032D01*
X027628Y018096D01*
X027531Y018137D01*
X027477Y018144D01*
D02*
G37*
G36*
X027377D02*
X027323Y018137D01*
X027226Y018096D01*
X027142Y018032D01*
X027078Y017949D01*
X027038Y017852D01*
X027031Y017798D01*
X027377D01*
Y018144D01*
D02*
G37*
G36*
X027823Y017698D02*
X027477D01*
Y017352D01*
X027531Y017359D01*
X027628Y017399D01*
X027712Y017463D01*
X027776Y017546D01*
X027816Y017643D01*
X027823Y017698D01*
D02*
G37*
G36*
X027377D02*
X027031D01*
X027038Y017643D01*
X027078Y017546D01*
X027142Y017463D01*
X027226Y017399D01*
X027323Y017359D01*
X027377Y017352D01*
Y017698D01*
D02*
G37*
%LPD*%
G36*
X03663Y028974D02*
X036682Y028931D01*
X036708Y028913D01*
X036733Y028899D01*
X036759Y028887D01*
X036784Y028877D01*
X036809Y02887D01*
X036834Y028866D01*
X036859Y028865D01*
Y028715D01*
X036834Y028714D01*
X036809Y02871D01*
X036784Y028703D01*
X036759Y028693D01*
X036733Y028681D01*
X036708Y028667D01*
X036682Y028649D01*
X036656Y028629D01*
X03663Y028606D01*
X036604Y028581D01*
Y028999D01*
X03663Y028974D01*
D02*
G37*
D41*
X02734Y03144D02*
X02736Y03146D01*
X02732Y03142D02*
X02734Y03144D01*
X02327Y03142D02*
X02732D01*
X0228Y03095D02*
X02327Y03142D01*
X0228Y02765D02*
Y03095D01*
X0161Y0285D02*
Y0301D01*
X01725Y03305D02*
X0234D01*
X01725Y03405D02*
X0234D01*
X0164D02*
X01725D01*
X0161Y03375D02*
X0164Y03405D01*
X0161Y0301D02*
Y03375D01*
D78*
X028366Y019811D02*
X028738D01*
X024467D02*
X028366D01*
X028427Y01975D01*
Y018748D02*
Y01975D01*
X036425Y030755D02*
X038165D01*
X03815Y02879D02*
X03818Y02876D01*
X03639Y02879D02*
X03815D01*
X038641Y029821D02*
X03865Y02983D01*
X028738Y019811D02*
X02933Y019219D01*
X022791Y02017D02*
X026071D01*
X039598Y022108D02*
X040372Y022882D01*
X039598Y018998D02*
Y022108D01*
X040372Y022882D02*
X045083D01*
X03941Y01881D02*
X039598Y018998D01*
X026071Y02017D02*
X027101Y0212D01*
X02883D01*
X035347Y02609D02*
X044295D01*
X035327Y02611D02*
X035347Y02609D01*
X044295D02*
X04455Y026345D01*
Y03447D01*
X041126Y031595D02*
X042816D01*
X040923Y031798D02*
X041126Y031595D01*
X040923Y031798D02*
Y032957D01*
X04077Y03311D02*
X040923Y032957D01*
X03236Y03311D02*
X04077D01*
X042065Y025705D02*
X0421Y02574D01*
X04418Y031076D02*
Y034065D01*
X043964Y03086D02*
X04418Y031076D01*
X04219Y03086D02*
X043964D01*
X04372Y03141D02*
Y031586D01*
X043579Y031269D02*
X04372Y03141D01*
X040448Y031269D02*
X043579D01*
X040407Y03131D02*
X040448Y031269D01*
X03791Y03131D02*
X040407D01*
X0405Y03158D02*
Y03205D01*
X040385Y032165D02*
X0405Y03205D01*
X035745Y032165D02*
X040385D01*
X0376Y02008D02*
Y024181D01*
Y02008D02*
X037869Y019811D01*
X028491Y024363D02*
X036937D01*
X027989Y023114D02*
Y023862D01*
Y023114D02*
X02842Y022683D01*
X037869Y019811D02*
X039311D01*
X036937Y024363D02*
X036937Y024363D01*
X027989Y023862D02*
X028491Y024363D01*
X036748Y024663D02*
X042442D01*
X036745Y02466D02*
X036748Y024663D01*
X030886Y02466D02*
X036745D01*
X030766Y02478D02*
X030886Y02466D01*
X042442Y024663D02*
X04253Y024576D01*
Y02335D02*
Y024576D01*
Y02335D02*
X04266Y02322D01*
X040082Y015448D02*
X04282D01*
Y01397D02*
Y015448D01*
X03602Y01881D02*
X03941D01*
X03574Y01909D02*
X03602Y01881D01*
X03574Y01909D02*
Y019715D01*
X035463Y019992D02*
X03574Y019715D01*
X034019Y019992D02*
X035463D01*
X0456Y0252D02*
X046518D01*
X046537Y025181D01*
X0454Y025D02*
X0456Y0252D01*
X0454Y0232D02*
Y025D01*
X045083Y022882D02*
X0454Y0232D01*
X03374Y019713D02*
X034019Y019992D01*
X03374Y01839D02*
Y019713D01*
Y01839D02*
X033904Y018226D01*
X03505Y020645D02*
Y023587D01*
X03504Y023596D02*
X03505Y023587D01*
X03455Y021137D02*
Y023596D01*
X03435Y02407D02*
X03633D01*
X033963Y023683D02*
X03435Y02407D01*
X03633D02*
X03635Y02409D01*
X03653D01*
X033904Y018226D02*
X034464D01*
X03455Y01814D01*
X033046Y019665D02*
X03347Y019241D01*
Y01762D02*
Y019241D01*
Y01762D02*
X033864Y017226D01*
X032157Y019665D02*
X033046D01*
X032861Y019311D02*
X03322Y018953D01*
Y0167D02*
Y018953D01*
Y0167D02*
X03378Y01614D01*
X030399Y019311D02*
X032861D01*
X036421Y029821D02*
X038641D01*
X03639Y02979D02*
X036421Y029821D01*
X035327Y029077D02*
X035677D01*
X03639Y02979D01*
X029Y02937D02*
X029293Y029077D01*
X028775Y029595D02*
X029Y02937D01*
X029293Y029077D02*
X035327D01*
X02861Y02525D02*
X029Y02564D01*
Y02937D01*
X02737Y02525D02*
X02861D01*
X02706Y02494D02*
X02737Y02525D01*
X02706Y024184D02*
Y02494D01*
X029441Y025604D02*
Y027089D01*
X029442Y027089D02*
X029442Y027089D01*
X029441Y027089D02*
X029442Y027089D01*
X027435Y024655D02*
X02756Y02478D01*
X027435Y023778D02*
Y024655D01*
X02756Y02478D02*
X030766D01*
X02734Y023683D02*
X027435Y023778D01*
X02542Y023683D02*
X02734D01*
X02442Y03038D02*
X02512Y03108D01*
X02442Y023194D02*
Y03038D01*
Y023194D02*
X02493Y022683D01*
X02542D01*
X019771Y0202D02*
X02155D01*
X01835Y021621D02*
X019771Y0202D01*
X03218Y03152D02*
Y03293D01*
X03236Y03311D01*
X03174Y03108D02*
X03218Y03152D01*
X02512Y03108D02*
X03174D01*
X029829Y030755D02*
X032746D01*
X029741Y02995D02*
Y030667D01*
X029829Y030755D01*
X033129Y024941D02*
X034019D01*
X03295Y02512D02*
X033129Y024941D01*
X04501Y023308D02*
Y02619D01*
X044922Y02322D02*
X04501Y023308D01*
X04266Y02322D02*
X044922D01*
X02883Y0212D02*
X02915Y02088D01*
X0299Y02013D01*
Y01929D02*
Y02013D01*
Y01929D02*
X03035Y01884D01*
X029612Y014611D02*
Y019992D01*
X028945Y02066D02*
X029612Y019992D01*
X028443Y02066D02*
X028945D01*
X029612Y014611D02*
X030032Y014191D01*
X02933Y01411D02*
Y019219D01*
Y01411D02*
X02965Y01379D01*
X01835Y021621D02*
Y03022D01*
X03035Y01884D02*
X03272D01*
X039566Y015964D02*
X040082Y015448D01*
X04764Y01399D02*
Y014905D01*
X046285Y01626D02*
X04764Y014905D01*
X040493Y01626D02*
X046285D01*
X039566Y015964D02*
Y018153D01*
X035632Y018472D02*
X039247D01*
X034964Y01914D02*
X035632Y018472D01*
X039247D02*
X039566Y018153D01*
X032745Y030756D02*
Y032165D01*
Y030756D02*
X032746Y030755D01*
X02842Y023683D02*
X033963D01*
X030311Y0194D02*
X030399Y019311D01*
X033033Y01336D02*
X04221D01*
X03006D02*
X033033D01*
X02965Y01377D02*
Y01379D01*
Y01377D02*
X03006Y01336D01*
X04455Y03447D02*
X0447Y03462D01*
X0437Y034545D02*
X04418Y034065D01*
X03455Y01914D02*
X034964D01*
X032945Y013448D02*
X033033Y01336D01*
X04221D02*
X04282Y01397D01*
X032945Y013448D02*
Y01437D01*
X030032Y014191D02*
X032252D01*
X032474Y014412D02*
Y016151D01*
X032252Y014191D02*
X032474Y014412D01*
X03916Y01368D02*
Y016789D01*
X038554Y017394D02*
X03916Y016789D01*
X034804Y017394D02*
X038554D01*
X03455Y01714D02*
X034804Y017394D01*
X04762Y01397D02*
X04764Y01399D01*
X02842Y020683D02*
X028443Y02066D01*
X033864Y017226D02*
X034464D01*
X03455Y01714D01*
X026418Y030661D02*
Y030753D01*
Y024883D02*
Y030661D01*
X036752Y033562D02*
X03677Y03358D01*
X031229Y033562D02*
X036752D01*
X034298Y033968D02*
X034306Y033976D01*
X03429Y03396D02*
X034298Y033968D01*
X034306Y033976D02*
X035834D01*
X03285Y034468D02*
X035165D01*
X032746Y030755D02*
X036425D01*
X034019Y024941D02*
X03405Y024971D01*
X03295Y02512D02*
Y027187D01*
X032862Y027275D02*
X03295Y027187D01*
X031476Y027275D02*
X032862D01*
X035745Y025395D02*
X03575Y0254D01*
X03574Y02539D02*
X035745Y025395D01*
X03361Y02539D02*
X03574D01*
X033442Y025558D02*
X03361Y02539D01*
X033442Y025558D02*
Y02806D01*
X033311Y028191D02*
X033442Y02806D01*
X031476Y028191D02*
X033311D01*
X0437Y034545D02*
Y03462D01*
X03785D02*
X040354D01*
X034355Y025705D02*
X042065D01*
X03435Y02571D02*
X034355Y025705D01*
X026418Y030753D02*
X02642Y030755D01*
X03378Y01614D02*
X03455D01*
D79*
X024674Y01643D02*
X024684Y01644D01*
X028368Y017689D02*
X028427Y017748D01*
D80*
X024684Y01644D02*
X02796D01*
X028368Y016848D01*
Y017689D01*
X039973Y021953D02*
X04021Y02219D01*
X039973Y016075D02*
Y021953D01*
X04021Y02219D02*
X04149D01*
X04343Y01583D02*
X04411Y01515D01*
Y01294D02*
Y01515D01*
X04317Y012D02*
X04411Y01294D01*
X02661Y012D02*
X04317D01*
X025029Y013581D02*
X02661Y012D01*
X039973Y016075D02*
X040218Y01583D01*
X022163Y016787D02*
Y0269D01*
Y016787D02*
X02252Y01643D01*
X040218Y01583D02*
X04343D01*
X025029Y013581D02*
Y016075D01*
X024674Y01643D02*
X025029Y016075D01*
X02252Y01643D02*
X024674D01*
X022163Y026913D02*
Y0301D01*
D83*
X027427Y018748D02*
D03*
Y017748D02*
D03*
X028427Y018748D02*
D03*
X03639Y02979D02*
D03*
Y02879D02*
D03*
Y02779D02*
D03*
X034741Y02995D02*
D03*
X033741D02*
D03*
X032741D02*
D03*
X031741D02*
D03*
X030741D02*
D03*
D84*
X028427Y017748D02*
D03*
X03639Y02679D02*
D03*
D85*
X04762Y01397D02*
D03*
X04282Y01877D02*
D03*
X04522Y01297D02*
D03*
X04762Y01877D02*
D03*
X04282Y01397D02*
D03*
D86*
X028335Y01475D02*
D03*
X026335D02*
D03*
X018147D02*
D03*
X016147D02*
D03*
X02355D02*
D03*
X02155D02*
D03*
D87*
X03285Y03545D02*
D03*
X03385D02*
D03*
X03485D02*
D03*
X03585D02*
D03*
X03685D02*
D03*
X03785D02*
D03*
X03885D02*
D03*
D88*
X03985D02*
D03*
D89*
X04366Y025181D02*
D03*
X02751Y0269D02*
D03*
X04401Y02123D02*
D03*
X04688Y02119D02*
D03*
X01725Y0351D02*
D03*
X046537Y025181D02*
D03*
D90*
X04366Y024181D02*
D03*
X02751Y0259D02*
D03*
X04401Y02223D02*
D03*
X04688Y02219D02*
D03*
X01725Y03305D02*
D03*
Y03405D02*
D03*
X046537Y024181D02*
D03*
D91*
X02842Y020683D02*
D03*
X035745Y032165D02*
D03*
D92*
X02842Y021683D02*
D03*
Y022683D02*
D03*
Y023683D02*
D03*
X02542D02*
D03*
Y022683D02*
D03*
Y021683D02*
D03*
Y020683D02*
D03*
X032745Y032165D02*
D03*
D93*
X03455Y01614D02*
D03*
Y01714D02*
D03*
Y01814D02*
D03*
Y01514D02*
D03*
D94*
Y01914D02*
D03*
D95*
X020116Y018525D02*
D03*
X018147D02*
D03*
D96*
X022163Y0301D02*
D03*
X0161D02*
D03*
D97*
X029741Y02995D02*
D03*
D98*
X0447Y03462D02*
D03*
X0437D02*
D03*
X0427D02*
D03*
D99*
X0417D02*
D03*
D100*
X024467Y019811D02*
D03*
X022791Y02017D02*
D03*
X035327Y02611D02*
D03*
X041325D02*
D03*
X042816Y031595D02*
D03*
X04372Y031586D02*
D03*
X03791Y03131D02*
D03*
X04219Y03086D02*
D03*
X0376Y024181D02*
D03*
X036937Y024363D02*
D03*
X039311Y019811D02*
D03*
X04282Y015448D02*
D03*
X03455Y023596D02*
D03*
X03504D02*
D03*
X029441Y025604D02*
D03*
X02706Y024184D02*
D03*
X02155Y0202D02*
D03*
X045004Y026196D02*
D03*
X01835Y03022D02*
D03*
X03272Y01884D02*
D03*
X040493Y01626D02*
D03*
X04149Y02219D02*
D03*
X03653Y02409D02*
D03*
X032157Y019665D02*
D03*
X032945Y01437D02*
D03*
X032474Y016151D02*
D03*
X03916Y01368D02*
D03*
X03685Y033562D02*
D03*
X031229D02*
D03*
X034298Y033968D02*
D03*
X035834Y033976D02*
D03*
X035165Y034468D02*
D03*
X03285D02*
D03*
X040494Y031586D02*
D03*
X034019Y024941D02*
D03*
X035745Y025395D02*
D03*
X031476Y027275D02*
D03*
Y028191D02*
D03*
X029442Y027089D02*
D03*
X03505Y020645D02*
D03*
X03455Y021137D02*
D03*
X03785Y03462D02*
D03*
X040354D02*
D03*
X042094Y025746D02*
D03*
X03435Y02571D02*
D03*
X035327Y029077D02*
D03*
X026418Y030661D02*
D03*
Y024883D02*
D03*
X028775Y029595D02*
D03*
X038144Y028766D02*
D03*
X038644Y029836D02*
D03*
X030311Y0194D02*
D03*
X038154Y030761D02*
D03*
X02734Y03144D02*
D03*
X0228Y02765D02*
D03*
X036425Y030755D02*
D03*
D101*
X022163Y0269D02*
D03*
X0161Y0285D02*
D03*
X0234Y03305D02*
D03*
Y03405D02*
D03*
M02*
