G04*
G04 #@! TF.GenerationSoftware,Altium Limited,Altium Designer,19.1.1 (5)*
G04*
G04 Layer_Color=8421504*
%FSTAX24Y24*%
%MOIN*%
G70*
G01*
G75*
%ADD24R,0.0600X0.0650*%
%ADD25R,0.0591X0.0787*%
%ADD26R,0.0650X0.0600*%
%ADD27R,0.0394X0.0886*%
%ADD28R,0.0551X0.1299*%
%ADD29R,0.1299X0.0551*%
%ADD30R,0.0550X0.0500*%
%ADD31R,0.0591X0.0512*%
%ADD32R,0.0177X0.0750*%
%ADD33R,0.0750X0.0177*%
%ADD34R,0.0472X0.0335*%
%ADD35R,0.0787X0.0591*%
%ADD36R,0.0945X0.0394*%
%ADD37R,0.0945X0.1299*%
%ADD38R,0.1181X0.2126*%
G04:AMPARAMS|DCode=39|XSize=39.4mil|YSize=133.9mil|CornerRadius=9.8mil|HoleSize=0mil|Usage=FLASHONLY|Rotation=90.000|XOffset=0mil|YOffset=0mil|HoleType=Round|Shape=RoundedRectangle|*
%AMROUNDEDRECTD39*
21,1,0.0394,0.1142,0,0,90.0*
21,1,0.0197,0.1339,0,0,90.0*
1,1,0.0197,0.0571,0.0098*
1,1,0.0197,0.0571,-0.0098*
1,1,0.0197,-0.0571,-0.0098*
1,1,0.0197,-0.0571,0.0098*
%
%ADD39ROUNDEDRECTD39*%
D24*
X03939Y024971D02*
D03*
X03809D02*
D03*
X030809Y028191D02*
D03*
X029509D02*
D03*
X030809Y027275D02*
D03*
X029509D02*
D03*
X029441Y02492D02*
D03*
X030741D02*
D03*
X04149Y02212D02*
D03*
X04019D02*
D03*
X041493Y023105D02*
D03*
X040193D02*
D03*
X03727Y020863D02*
D03*
X03597D02*
D03*
X03724Y021858D02*
D03*
X03594D02*
D03*
X03724Y022899D02*
D03*
X03594D02*
D03*
D25*
X023828Y02401D02*
D03*
Y025939D02*
D03*
X0254Y027449D02*
D03*
Y02552D02*
D03*
D26*
X035315Y027191D02*
D03*
Y028491D02*
D03*
X03435Y027191D02*
D03*
Y028491D02*
D03*
X030664Y01614D02*
D03*
Y01484D02*
D03*
X031813D02*
D03*
Y01614D02*
D03*
Y018297D02*
D03*
Y016997D02*
D03*
X03065D02*
D03*
Y018297D02*
D03*
X031764Y026446D02*
D03*
Y025146D02*
D03*
X032946Y018287D02*
D03*
Y016987D02*
D03*
D27*
X038182Y032936D02*
D03*
X038969D02*
D03*
X039757D02*
D03*
X040544D02*
D03*
X041332D02*
D03*
X042119D02*
D03*
X042906D02*
D03*
X043694D02*
D03*
Y026932D02*
D03*
X042906D02*
D03*
X042119D02*
D03*
X041332D02*
D03*
X040544D02*
D03*
X039757D02*
D03*
X038969D02*
D03*
X038182D02*
D03*
D28*
X041386Y01457D02*
D03*
X03989D02*
D03*
X041692Y024773D02*
D03*
X040196D02*
D03*
X03602Y014972D02*
D03*
X037516D02*
D03*
X03602Y016572D02*
D03*
X037516D02*
D03*
D29*
X025873Y018996D02*
D03*
Y0175D02*
D03*
X024321Y019011D02*
D03*
Y017515D02*
D03*
X024031Y030698D02*
D03*
Y029202D02*
D03*
X024032Y026902D02*
D03*
Y028398D02*
D03*
D30*
X03455Y02402D02*
D03*
Y02492D02*
D03*
X035818Y024071D02*
D03*
Y024971D02*
D03*
D31*
X03935Y019415D02*
D03*
Y01784D02*
D03*
X041712Y019415D02*
D03*
Y01784D02*
D03*
X035818Y01944D02*
D03*
Y017865D02*
D03*
X03818Y01944D02*
D03*
Y017865D02*
D03*
D32*
X030898Y020396D02*
D03*
X031213D02*
D03*
X031528Y020396D02*
D03*
X031843Y020396D02*
D03*
X032157D02*
D03*
X032472Y020396D02*
D03*
X032787Y020396D02*
D03*
X033102D02*
D03*
X0309Y024D02*
D03*
X031215Y024D02*
D03*
X03153Y024D02*
D03*
X031845D02*
D03*
X03216D02*
D03*
X032475D02*
D03*
X03279D02*
D03*
X033105D02*
D03*
D33*
X0338Y0211D02*
D03*
Y021415D02*
D03*
Y02173D02*
D03*
Y022045D02*
D03*
Y02236D02*
D03*
Y022675D02*
D03*
Y02299D02*
D03*
Y023305D02*
D03*
X030196Y021098D02*
D03*
Y021413D02*
D03*
Y021728D02*
D03*
Y022043D02*
D03*
X0302Y02236D02*
D03*
X030196Y022672D02*
D03*
X030196Y022987D02*
D03*
Y023302D02*
D03*
D34*
X02988Y026146D02*
D03*
X030862Y026516D02*
D03*
X030864Y025772D02*
D03*
X039142Y023596D02*
D03*
X03816Y023226D02*
D03*
X038158Y023971D02*
D03*
X039093Y020595D02*
D03*
X03811Y020225D02*
D03*
X038108Y020969D02*
D03*
X039093Y022165D02*
D03*
X03811Y021795D02*
D03*
X038108Y022539D02*
D03*
D35*
X03989Y020645D02*
D03*
X041819D02*
D03*
D36*
X027872Y028694D02*
D03*
Y0296D02*
D03*
Y030506D02*
D03*
D37*
X025589Y0296D02*
D03*
D38*
X027371Y033798D02*
D03*
X031229D02*
D03*
D39*
X02515Y035039D02*
D03*
Y0337D02*
D03*
Y034369D02*
D03*
Y033031D02*
D03*
Y032361D02*
D03*
M02*
