G04*
G04 #@! TF.GenerationSoftware,Altium Limited,Altium Designer,19.1.1 (5)*
G04*
G04 Layer_Color=32768*
%FSTAX24Y24*%
%MOIN*%
G70*
G01*
G75*
%ADD18C,0.0100*%
%ADD21C,0.0039*%
D18*
X037565Y033468D02*
X04699D01*
Y026401D02*
Y033468D01*
X037565Y026401D02*
X04699D01*
X037565D02*
Y033468D01*
X02739Y02019D02*
X02729Y02029D01*
X02709D01*
X02699Y02019D01*
Y01979D01*
X02709Y01969D01*
X02729D01*
X02739Y01979D01*
X02769Y01969D02*
X02789D01*
X02799Y01979D01*
Y01999D01*
X02789Y02009D01*
X02769D01*
X02759Y01999D01*
Y01979D01*
X02769Y01969D01*
X02819D02*
Y02009D01*
X02849D01*
X028589Y01999D01*
Y01969D01*
X028789D02*
Y02009D01*
X029089D01*
X029189Y01999D01*
Y01969D01*
X029389Y01999D02*
X029789D01*
X029989Y01969D02*
X030289D01*
X030389Y01979D01*
X030289Y01989D01*
X030089D01*
X029989Y01999D01*
X030089Y02009D01*
X030389D01*
X030589Y01969D02*
X030789D01*
X030689D01*
Y02009D01*
X030589D01*
X031089Y01969D02*
X031289D01*
X031189D01*
Y02029D01*
X031089D01*
X03407Y01997D02*
Y02057D01*
X03437D01*
X03447Y02047D01*
Y02027D01*
X03437Y02017D01*
X03407D01*
X03427D02*
X03447Y01997D01*
X03467D02*
Y02057D01*
X03497D01*
X03507Y02047D01*
Y02027D01*
X03497Y02017D01*
X03467D01*
X03527Y02057D02*
Y01997D01*
X03557D01*
X035669Y02007D01*
Y02017D01*
X03557Y02027D01*
X03527D01*
X03557D01*
X035669Y02037D01*
Y02047D01*
X03557Y02057D01*
X03527D01*
X035869Y01997D02*
X036069D01*
X035969D01*
Y02057D01*
X035869Y02047D01*
X02988Y02532D02*
Y02482D01*
X02998Y02472D01*
X03018D01*
X03028Y02482D01*
Y02532D01*
X03088Y02472D02*
X03048D01*
X03088Y02512D01*
Y02522D01*
X03078Y02532D01*
X03058D01*
X03048Y02522D01*
X032245Y029714D02*
X032145Y029614D01*
Y029415D01*
X032245Y029315D01*
X032345D01*
X032445Y029415D01*
Y029614D01*
X032545Y029714D01*
X032645D01*
X032745Y029614D01*
Y029415D01*
X032645Y029315D01*
X032145Y029914D02*
X032745D01*
X032545Y030114D01*
X032745Y030314D01*
X032145D01*
Y030514D02*
Y030714D01*
Y030614D01*
X032745D01*
Y030514D01*
Y030714D01*
X032145Y031014D02*
Y031414D01*
Y031214D01*
X032745D01*
X032245Y032014D02*
X032145Y031914D01*
Y031714D01*
X032245Y031614D01*
X032645D01*
X032745Y031714D01*
Y031914D01*
X032645Y032014D01*
X032145Y032214D02*
X032745D01*
X032445D01*
Y032613D01*
X032145D01*
X032745D01*
X032845Y032813D02*
Y033213D01*
X032145Y033813D02*
Y033413D01*
X032445D01*
Y033613D01*
Y033413D01*
X032745D01*
X032145Y034013D02*
X032745D01*
Y034413D01*
Y034613D02*
X032345D01*
X032145Y034813D01*
X032345Y035013D01*
X032745D01*
X032445D01*
Y034613D01*
X032245Y035613D02*
X032145Y035513D01*
Y035313D01*
X032245Y035213D01*
X032345D01*
X032445Y035313D01*
Y035513D01*
X032545Y035613D01*
X032645D01*
X032745Y035513D01*
Y035313D01*
X032645Y035213D01*
X032145Y035812D02*
X032745D01*
X032445D01*
Y036212D01*
X032145D01*
X032745D01*
X03555Y02347D02*
Y02287D01*
X03525D01*
X03515Y02297D01*
Y02317D01*
X03525Y02327D01*
X03555D01*
X03535D02*
X03515Y02347D01*
X03455Y02287D02*
X03495D01*
Y02347D01*
X03455D01*
X03495Y02317D02*
X03475D01*
X03435Y02287D02*
Y02347D01*
X03405D01*
X033951Y02337D01*
Y02297D01*
X03405Y02287D01*
X03435D01*
X03404Y02916D02*
Y02976D01*
X03434D01*
X03444Y02966D01*
Y02946D01*
X03434Y02936D01*
X03404D01*
X03424D02*
X03444Y02916D01*
X03504D02*
X03464D01*
X03504Y02956D01*
Y02966D01*
X03494Y02976D01*
X03474D01*
X03464Y02966D01*
X03524D02*
X03534Y02976D01*
X03554D01*
X035639Y02966D01*
Y02926D01*
X03554Y02916D01*
X03534D01*
X03524Y02926D01*
Y02966D01*
X035Y02916D02*
Y02976D01*
X0353D01*
X0354Y02966D01*
Y02946D01*
X0353Y02936D01*
X035D01*
X0352D02*
X0354Y02916D01*
X0356D02*
X0358D01*
X0357D01*
Y02976D01*
X0356Y02966D01*
X0361Y02926D02*
X0362Y02916D01*
X0364D01*
X0365Y02926D01*
Y02966D01*
X0364Y02976D01*
X0362D01*
X0361Y02966D01*
Y02956D01*
X0362Y02946D01*
X0365D01*
X032646Y018957D02*
Y019556D01*
X032946D01*
X033046Y019456D01*
Y019256D01*
X032946Y019156D01*
X032646D01*
X032846D02*
X033046Y018957D01*
X033246D02*
X033446D01*
X033346D01*
Y019556D01*
X033246Y019456D01*
X033746D02*
X033846Y019556D01*
X034045D01*
X034145Y019456D01*
Y019356D01*
X034045Y019256D01*
X034145Y019156D01*
Y019057D01*
X034045Y018957D01*
X033846D01*
X033746Y019057D01*
Y019156D01*
X033846Y019256D01*
X033746Y019356D01*
Y019456D01*
X033846Y019256D02*
X034045D01*
X031464Y027106D02*
Y027705D01*
X031764D01*
X031864Y027605D01*
Y027405D01*
X031764Y027305D01*
X031464D01*
X031664D02*
X031864Y027106D01*
X032064D02*
X032264D01*
X032164D01*
Y027705D01*
X032064Y027605D01*
X032963Y027705D02*
X032564D01*
Y027405D01*
X032763Y027505D01*
X032863D01*
X032963Y027405D01*
Y027206D01*
X032863Y027106D01*
X032663D01*
X032564Y027206D01*
X029181Y025634D02*
Y026233D01*
X029481D01*
X029581Y026134D01*
Y025934D01*
X029481Y025834D01*
X029181D01*
X029381D02*
X029581Y025634D01*
X029781D02*
X029981D01*
X029881D01*
Y026233D01*
X029781Y026134D01*
X03058Y025634D02*
Y026233D01*
X030281Y025934D01*
X03068D01*
X039932Y023815D02*
Y024415D01*
X040232D01*
X040332Y024315D01*
Y024115D01*
X040232Y024015D01*
X039932D01*
X040132D02*
X040332Y023815D01*
X040531D02*
X040731D01*
X040631D01*
Y024415D01*
X040531Y024315D01*
X041031D02*
X041131Y024415D01*
X041331D01*
X041431Y024315D01*
Y024215D01*
X041331Y024115D01*
X041231D01*
X041331D01*
X041431Y024015D01*
Y023915D01*
X041331Y023815D01*
X041131D01*
X041031Y023915D01*
X03568Y023606D02*
Y024206D01*
X03598D01*
X03608Y024106D01*
Y023906D01*
X03598Y023806D01*
X03568D01*
X03588D02*
X03608Y023606D01*
X03628D02*
X03648D01*
X03638D01*
Y024206D01*
X03628Y024106D01*
X03718Y023606D02*
X03678D01*
X03718Y024006D01*
Y024106D01*
X03708Y024206D01*
X03688D01*
X03678Y024106D01*
X039929Y022827D02*
Y023426D01*
X040229D01*
X040329Y023326D01*
Y023126D01*
X040229Y023026D01*
X039929D01*
X040129D02*
X040329Y022827D01*
X040529D02*
X040729D01*
X040629D01*
Y023426D01*
X040529Y023326D01*
X041029Y022827D02*
X041229D01*
X041129D01*
Y023426D01*
X041029Y023326D01*
X03568Y022562D02*
Y023162D01*
X03598D01*
X03608Y023062D01*
Y022862D01*
X03598Y022762D01*
X03568D01*
X03588D02*
X03608Y022562D01*
X03628D02*
X03648D01*
X03638D01*
Y023162D01*
X03628Y023062D01*
X03678D02*
X03688Y023162D01*
X03708D01*
X03718Y023062D01*
Y022662D01*
X03708Y022562D01*
X03688D01*
X03678Y022662D01*
Y023062D01*
X03571Y02157D02*
Y02217D01*
X03601D01*
X03611Y02207D01*
Y02187D01*
X03601Y02177D01*
X03571D01*
X03591D02*
X03611Y02157D01*
X03631Y02167D02*
X03641Y02157D01*
X03661D01*
X03671Y02167D01*
Y02207D01*
X03661Y02217D01*
X03641D01*
X03631Y02207D01*
Y02197D01*
X03641Y02187D01*
X03671D01*
X029248Y0289D02*
Y0295D01*
X029548D01*
X029648Y0294D01*
Y0292D01*
X029548Y0291D01*
X029248D01*
X029448D02*
X029648Y0289D01*
X029848Y0294D02*
X029948Y0295D01*
X030148D01*
X030248Y0294D01*
Y0293D01*
X030148Y0292D01*
X030248Y0291D01*
Y029D01*
X030148Y0289D01*
X029948D01*
X029848Y029D01*
Y0291D01*
X029948Y0292D01*
X029848Y0293D01*
Y0294D01*
X029948Y0292D02*
X030148D01*
X02924Y027976D02*
Y028576D01*
X02954D01*
X02964Y028476D01*
Y028276D01*
X02954Y028176D01*
X02924D01*
X02944D02*
X02964Y027976D01*
X02984Y028576D02*
X03024D01*
Y028476D01*
X02984Y028076D01*
Y027976D01*
X031513Y018957D02*
Y019556D01*
X031812D01*
X031912Y019456D01*
Y019256D01*
X031812Y019156D01*
X031513D01*
X031712D02*
X031912Y018957D01*
X032412D02*
Y019556D01*
X032112Y019256D01*
X032512D01*
X031501Y01681D02*
Y01741D01*
X031801D01*
X031901Y01731D01*
Y01711D01*
X031801Y01701D01*
X031501D01*
X031701D02*
X031901Y01681D01*
X032101Y01731D02*
X032201Y01741D01*
X032401D01*
X032501Y01731D01*
Y01721D01*
X032401Y01711D01*
X032301D01*
X032401D01*
X032501Y01701D01*
Y01691D01*
X032401Y01681D01*
X032201D01*
X032101Y01691D01*
X03034Y018957D02*
Y019556D01*
X03064D01*
X03074Y019456D01*
Y019256D01*
X03064Y019156D01*
X03034D01*
X03054D02*
X03074Y018957D01*
X03134D02*
X03094D01*
X03134Y019356D01*
Y019456D01*
X03124Y019556D01*
X03104D01*
X03094Y019456D01*
X030356Y01681D02*
Y01741D01*
X030656D01*
X030756Y01731D01*
Y01711D01*
X030656Y01701D01*
X030356D01*
X030556D02*
X030756Y01681D01*
X030956D02*
X031156D01*
X031056D01*
Y01741D01*
X030956Y01731D01*
X03782Y02568D02*
Y02628D01*
X03812D01*
X03822Y02618D01*
Y02598D01*
X03812Y02588D01*
X03782D01*
X03802D02*
X03822Y02568D01*
X03842Y02618D02*
X03852Y02628D01*
X03872D01*
X03882Y02618D01*
Y02578D01*
X03872Y02568D01*
X03852D01*
X03842Y02578D01*
Y02618D01*
X030101Y027139D02*
Y027539D01*
X030001Y027639D01*
X029801D01*
X029701Y027539D01*
Y027139D01*
X029801Y027039D01*
X030001D01*
X029901Y027239D02*
X030101Y027039D01*
X030001D02*
X030101Y027139D01*
X030601Y027039D02*
Y027639D01*
X030301Y027339D01*
X030701D01*
X038332Y021585D02*
Y021985D01*
X038232Y022085D01*
X038032D01*
X037933Y021985D01*
Y021585D01*
X038032Y021485D01*
X038232D01*
X038132Y021685D02*
X038332Y021485D01*
X038232D02*
X038332Y021585D01*
X038532Y021985D02*
X038632Y022085D01*
X038832D01*
X038932Y021985D01*
Y021885D01*
X038832Y021785D01*
X038732D01*
X038832D01*
X038932Y021685D01*
Y021585D01*
X038832Y021485D01*
X038632D01*
X038532Y021585D01*
X038332Y023159D02*
Y023559D01*
X038232Y023659D01*
X038032D01*
X037933Y023559D01*
Y023159D01*
X038032Y023059D01*
X038232D01*
X038132Y023259D02*
X038332Y023059D01*
X038232D02*
X038332Y023159D01*
X038932Y023059D02*
X038532D01*
X038932Y023459D01*
Y023559D01*
X038832Y023659D01*
X038632D01*
X038532Y023559D01*
X038382Y024586D02*
Y024986D01*
X038282Y025086D01*
X038082D01*
X037982Y024986D01*
Y024586D01*
X038082Y024486D01*
X038282D01*
X038182Y024686D02*
X038382Y024486D01*
X038282D02*
X038382Y024586D01*
X038582Y024486D02*
X038782D01*
X038682D01*
Y025086D01*
X038582Y024986D01*
X01515Y01768D02*
Y01708D01*
Y01738D01*
X01555D01*
Y01768D01*
Y01708D01*
X01575Y01768D02*
Y01708D01*
X01605D01*
X01615Y01718D01*
Y01758D01*
X01605Y01768D01*
X01575D01*
X01635Y01758D02*
X01645Y01768D01*
X01665D01*
X016749Y01758D01*
Y01718D01*
X01665Y01708D01*
X01645D01*
X01635Y01718D01*
Y01758D01*
X035948Y02606D02*
X035848Y02616D01*
X035648D01*
X035548Y02606D01*
Y02566D01*
X035648Y02556D01*
X035848D01*
X035948Y02566D01*
Y02586D01*
X035748D01*
X036148Y02556D02*
Y02616D01*
X036448D01*
X036547Y02606D01*
Y02586D01*
X036448Y02576D01*
X036148D01*
X036348D02*
X036547Y02556D01*
X037147Y02616D02*
X036747D01*
Y02556D01*
X037147D01*
X036747Y02586D02*
X036947D01*
X037747Y02616D02*
X037347D01*
Y02556D01*
X037747D01*
X037347Y02586D02*
X037547D01*
X037947Y02556D02*
Y02616D01*
X038347Y02556D01*
Y02616D01*
X02342Y02727D02*
Y02667D01*
X02372D01*
X02382Y02677D01*
Y02717D01*
X02372Y02727D01*
X02342D01*
X02432Y02667D02*
Y02727D01*
X02402Y02697D01*
X02442D01*
X03956Y02206D02*
Y02146D01*
X03986D01*
X03996Y02156D01*
Y02196D01*
X03986Y02206D01*
X03956D01*
X04016Y02196D02*
X04026Y02206D01*
X04046D01*
X04056Y02196D01*
Y02186D01*
X04046Y02176D01*
X04036D01*
X04046D01*
X04056Y02166D01*
Y02156D01*
X04046Y02146D01*
X04026D01*
X04016Y02156D01*
X02499Y02878D02*
Y02818D01*
X02529D01*
X02539Y02828D01*
Y02868D01*
X02529Y02878D01*
X02499D01*
X02599Y02818D02*
X02559D01*
X02599Y02858D01*
Y02868D01*
X02589Y02878D01*
X02569D01*
X02559Y02868D01*
X040365Y026283D02*
X040265Y026383D01*
X040065D01*
X039965Y026283D01*
Y025883D01*
X040065Y025783D01*
X040265D01*
X040365Y025883D01*
X040565Y026383D02*
X040965D01*
Y026283D01*
X040565Y025883D01*
Y025783D01*
X040052Y01608D02*
X039952Y01618D01*
X039752D01*
X039652Y01608D01*
Y01568D01*
X039752Y01558D01*
X039952D01*
X040052Y01568D01*
X040652Y01618D02*
X040452Y01608D01*
X040252Y01588D01*
Y01568D01*
X040352Y01558D01*
X040552D01*
X040652Y01568D01*
Y01578D01*
X040552Y01588D01*
X040252D01*
X025668Y02013D02*
X025568Y02023D01*
X025368D01*
X025268Y02013D01*
Y01973D01*
X025368Y019631D01*
X025568D01*
X025668Y01973D01*
X026268Y02023D02*
X025868D01*
Y01993D01*
X026068Y02003D01*
X026168D01*
X026268Y01993D01*
Y01973D01*
X026168Y019631D01*
X025968D01*
X025868Y01973D01*
X024116Y020147D02*
X024016Y020247D01*
X023816D01*
X023716Y020147D01*
Y019747D01*
X023816Y019647D01*
X024016D01*
X024116Y019747D01*
X024616Y019647D02*
Y020247D01*
X024316Y019947D01*
X024716D01*
X024Y03015D02*
X0239Y03025D01*
X0237D01*
X0236Y03015D01*
Y02975D01*
X0237Y02965D01*
X0239D01*
X024Y02975D01*
X0242Y03015D02*
X0243Y03025D01*
X0245D01*
X0246Y03015D01*
Y03005D01*
X0245Y02995D01*
X0244D01*
X0245D01*
X0246Y02985D01*
Y02975D01*
X0245Y02965D01*
X0243D01*
X0242Y02975D01*
X023978Y029173D02*
X023878Y029273D01*
X023678D01*
X023578Y029173D01*
Y028774D01*
X023678Y028674D01*
X023878D01*
X023978Y028774D01*
X024578Y028674D02*
X024178D01*
X024578Y029073D01*
Y029173D01*
X024478Y029273D01*
X024278D01*
X024178Y029173D01*
X03618Y01648D02*
X03608Y01658D01*
X03588D01*
X03578Y01648D01*
Y01608D01*
X03588Y01598D01*
X03608D01*
X03618Y01608D01*
X03638Y01598D02*
X03658D01*
X03648D01*
Y01658D01*
X03638Y01648D01*
X03618Y01808D02*
X03608Y01818D01*
X03588D01*
X03578Y01808D01*
Y01768D01*
X03588Y01758D01*
X03608D01*
X03618Y01768D01*
X03638Y01808D02*
X03648Y01818D01*
X03668D01*
X03678Y01808D01*
Y01768D01*
X03668Y01758D01*
X03648D01*
X03638Y01768D01*
Y01808D01*
X03911Y02065D02*
Y02005D01*
X03941D01*
X03951Y02015D01*
Y02025D01*
X03941Y02035D01*
X03911D01*
X03941D01*
X03951Y02045D01*
Y02055D01*
X03941Y02065D01*
X03911D01*
X03971D02*
X04011D01*
X03991D01*
Y02005D01*
X04031D02*
X04051D01*
X04041D01*
Y02065D01*
X04031Y02055D01*
X03558Y02067D02*
Y02007D01*
X03588D01*
X03598Y02017D01*
Y02027D01*
X03588Y02037D01*
X03558D01*
X03588D01*
X03598Y02047D01*
Y02057D01*
X03588Y02067D01*
X03558D01*
X03618D02*
X03658D01*
X03638D01*
Y02007D01*
X03678Y02057D02*
X03688Y02067D01*
X03708D01*
X037179Y02057D01*
Y02017D01*
X03708Y02007D01*
X03688D01*
X03678Y02017D01*
Y02057D01*
X023381Y030974D02*
Y031373D01*
X023581Y031573D01*
X023781Y031373D01*
Y030974D01*
Y031274D01*
X023381D01*
X023981Y030974D02*
Y031573D01*
X024181Y031373D01*
X024381Y031573D01*
Y030974D01*
X024981Y031473D02*
X024881Y031573D01*
X024681D01*
X024581Y031473D01*
Y031373D01*
X024681Y031274D01*
X024881D01*
X024981Y031174D01*
Y031074D01*
X024881Y030974D01*
X024681D01*
X024581Y031074D01*
X025181Y030974D02*
X02538D01*
X02528D01*
Y031573D01*
X025181Y031473D01*
X02568Y030974D02*
X02588D01*
X02578D01*
Y031573D01*
X02568Y031473D01*
X02618Y030974D02*
X02638D01*
X02628D01*
Y031573D01*
X02618Y031473D01*
X02668Y031573D02*
X02708D01*
Y031473D01*
X02668Y031074D01*
Y030974D01*
X02728Y031274D02*
X02768D01*
X02788Y031473D02*
X02798Y031573D01*
X02818D01*
X02828Y031473D01*
Y031373D01*
X02818Y031274D01*
X02808D01*
X02818D01*
X02828Y031174D01*
Y031074D01*
X02818Y030974D01*
X02798D01*
X02788Y031074D01*
X028479Y030974D02*
Y031074D01*
X028579D01*
Y030974D01*
X028479D01*
X028979Y031473D02*
X029079Y031573D01*
X029279D01*
X029379Y031473D01*
Y031373D01*
X029279Y031274D01*
X029179D01*
X029279D01*
X029379Y031174D01*
Y031074D01*
X029279Y030974D01*
X029079D01*
X028979Y031074D01*
X029579Y031573D02*
Y031174D01*
X029779Y030974D01*
X029979Y031174D01*
Y031573D01*
D21*
X042177Y029934D02*
X042377D01*
X042277Y029834D02*
Y030034D01*
X041701Y013881D02*
Y015259D01*
X039575Y013881D02*
Y015259D01*
Y013881D02*
X041701D01*
X039575Y015259D02*
X041701D01*
X040441Y01457D02*
X040835D01*
X040638Y014373D02*
Y014767D01*
X025184Y019311D02*
X026562D01*
X025184Y017185D02*
X026562D01*
Y019311D01*
X025184Y017185D02*
Y019311D01*
X025873Y018051D02*
Y018445D01*
X025676Y018248D02*
X02607D01*
X023632Y019326D02*
X02501D01*
X023632Y0172D02*
X02501D01*
Y019326D01*
X023632Y0172D02*
Y019326D01*
X024321Y018066D02*
Y01846D01*
X024124Y018263D02*
X024518D01*
X042007Y024084D02*
Y025462D01*
X039881Y024084D02*
Y025462D01*
Y024084D02*
X042007D01*
X039881Y025462D02*
X042007D01*
X040747Y024773D02*
X041141D01*
X040944Y024576D02*
Y02497D01*
X035705Y014283D02*
Y015661D01*
X037831Y014283D02*
Y015661D01*
X035705D02*
X037831D01*
X035705Y014283D02*
X037831D01*
X036571Y014972D02*
X036964D01*
X036768Y014775D02*
Y015169D01*
X035705Y015883D02*
Y017261D01*
X037831Y015883D02*
Y017261D01*
X035705D02*
X037831D01*
X035705Y015883D02*
X037831D01*
X036571Y016572D02*
X036964D01*
X036768Y016375D02*
Y016769D01*
X028443Y028183D02*
Y031017D01*
X025018Y028183D02*
Y031017D01*
Y028183D02*
X028443D01*
X025018Y031017D02*
X028443D01*
X026533Y0296D02*
X026927D01*
X02673Y029403D02*
Y029797D01*
X023342Y031013D02*
X02472D01*
X023342Y028887D02*
X02472D01*
Y031013D01*
X023342Y028887D02*
Y031013D01*
X024031Y029753D02*
Y030147D01*
X023834Y02995D02*
X024228D01*
X023343Y026587D02*
X024721D01*
X023343Y028713D02*
X024721D01*
X023343Y026587D02*
Y028713D01*
X024721Y026587D02*
Y028713D01*
X024032Y027453D02*
Y027847D01*
X023835Y02765D02*
X024229D01*
M02*
