G04*
G04 #@! TF.GenerationSoftware,Altium Limited,Altium Designer,19.1.1 (5)*
G04*
G04 Layer_Color=16711935*
%FSTAX24Y24*%
%MOIN*%
G70*
G01*
G75*
%ADD59C,0.0678*%
%ADD60R,0.0678X0.0678*%
%ADD61C,0.1280*%
%ADD62C,0.1180*%
%ADD63C,0.0710*%
%ADD64R,0.0710X0.0710*%
%ADD65R,0.0980X0.0830*%
%ADD66O,0.0980X0.0830*%
%ADD67R,0.0592X0.0592*%
%ADD68C,0.0592*%
%ADD69O,0.1080X0.0680*%
%ADD70R,0.1080X0.0680*%
%ADD71R,0.0789X0.0789*%
%ADD72R,0.0749X0.0749*%
%ADD73R,0.0678X0.0678*%
%ADD74O,0.0830X0.0980*%
%ADD75R,0.0830X0.0980*%
%ADD76C,0.0277*%
%ADD77C,0.0580*%
D59*
X027427Y018748D02*
D03*
Y017748D02*
D03*
X028427Y018748D02*
D03*
X03639Y02979D02*
D03*
Y02879D02*
D03*
Y02779D02*
D03*
X034741Y02995D02*
D03*
X033741D02*
D03*
X032741D02*
D03*
X031741D02*
D03*
X030741D02*
D03*
D60*
X028427Y017748D02*
D03*
X03639Y02679D02*
D03*
D61*
X04762Y01397D02*
D03*
X04282Y01877D02*
D03*
X04522Y01297D02*
D03*
X04762Y01877D02*
D03*
X04282Y01397D02*
D03*
D62*
X028335Y01475D02*
D03*
X026335D02*
D03*
X018147D02*
D03*
X016147D02*
D03*
X02355D02*
D03*
X02155D02*
D03*
D63*
X03285Y03545D02*
D03*
X03385D02*
D03*
X03485D02*
D03*
X03585D02*
D03*
X03685D02*
D03*
X03785D02*
D03*
X03885D02*
D03*
D64*
X03985D02*
D03*
D65*
X04366Y025181D02*
D03*
X02751Y0269D02*
D03*
X04401Y02123D02*
D03*
X04688Y02119D02*
D03*
X01725Y0351D02*
D03*
X046537Y025181D02*
D03*
D66*
X04366Y024181D02*
D03*
X02751Y0259D02*
D03*
X04401Y02223D02*
D03*
X04688Y02219D02*
D03*
X01725Y03305D02*
D03*
Y03405D02*
D03*
X046537Y024181D02*
D03*
D67*
X02842Y020683D02*
D03*
X035745Y032165D02*
D03*
D68*
X02842Y021683D02*
D03*
Y022683D02*
D03*
Y023683D02*
D03*
X02542D02*
D03*
Y022683D02*
D03*
Y021683D02*
D03*
Y020683D02*
D03*
X032745Y032165D02*
D03*
D69*
X03455Y01614D02*
D03*
Y01714D02*
D03*
Y01814D02*
D03*
Y01514D02*
D03*
D70*
Y01914D02*
D03*
D71*
X020116Y018525D02*
D03*
X018147D02*
D03*
D72*
X022163Y0301D02*
D03*
X0161D02*
D03*
D73*
X029741Y02995D02*
D03*
D74*
X0447Y03462D02*
D03*
X0437D02*
D03*
X0427D02*
D03*
D75*
X0417D02*
D03*
D76*
X024467Y019811D02*
D03*
X022791Y02017D02*
D03*
X035327Y02611D02*
D03*
X041325D02*
D03*
X042816Y031595D02*
D03*
X04372Y031586D02*
D03*
X03791Y03131D02*
D03*
X04219Y03086D02*
D03*
X0376Y024181D02*
D03*
X036937Y024363D02*
D03*
X039311Y019811D02*
D03*
X04282Y015448D02*
D03*
X03455Y023596D02*
D03*
X03504D02*
D03*
X029441Y025604D02*
D03*
X02706Y024184D02*
D03*
X02155Y0202D02*
D03*
X045004Y026196D02*
D03*
X01835Y03022D02*
D03*
X03272Y01884D02*
D03*
X040493Y01626D02*
D03*
X04149Y02219D02*
D03*
X03653Y02409D02*
D03*
X032157Y019665D02*
D03*
X032945Y01437D02*
D03*
X032474Y016151D02*
D03*
X03916Y01368D02*
D03*
X03685Y033562D02*
D03*
X031229D02*
D03*
X034298Y033968D02*
D03*
X035834Y033976D02*
D03*
X035165Y034468D02*
D03*
X03285D02*
D03*
X040494Y031586D02*
D03*
X034019Y024941D02*
D03*
X035745Y025395D02*
D03*
X031476Y027275D02*
D03*
Y028191D02*
D03*
X029442Y027089D02*
D03*
X03505Y020645D02*
D03*
X03455Y021137D02*
D03*
X03785Y03462D02*
D03*
X040354D02*
D03*
X042094Y025746D02*
D03*
X03435Y02571D02*
D03*
X035327Y029077D02*
D03*
X026418Y030661D02*
D03*
Y024883D02*
D03*
X028775Y029595D02*
D03*
X038144Y028766D02*
D03*
X038644Y029836D02*
D03*
X030311Y0194D02*
D03*
X038154Y030761D02*
D03*
X02734Y03144D02*
D03*
X0228Y02765D02*
D03*
X036425Y030755D02*
D03*
D77*
X022163Y0269D02*
D03*
X0161Y0285D02*
D03*
X0234Y03305D02*
D03*
Y03405D02*
D03*
M02*
