G04*
G04 #@! TF.GenerationSoftware,Altium Limited,Altium Designer,19.1.1 (5)*
G04*
G04 Layer_Color=65535*
%FSTAX24Y24*%
%MOIN*%
G70*
G01*
G75*
%ADD10C,0.0070*%
%ADD11C,0.0118*%
%ADD12C,0.0010*%
%ADD13C,0.0098*%
%ADD14C,0.0079*%
%ADD15C,0.0050*%
%ADD16C,0.0040*%
%ADD17C,0.0020*%
%ADD18C,0.0100*%
%ADD19C,0.0005*%
%ADD20C,0.0010*%
%ADD21C,0.0039*%
%ADD22C,0.0080*%
%ADD23R,0.0740X0.0299*%
G36*
X016115Y035045D02*
X016105D01*
X015755Y034695D01*
Y035405D01*
X016115Y035045D01*
D02*
G37*
G36*
X026695Y026875D02*
X026685D01*
X026335Y026525D01*
Y027235D01*
X026695Y026875D01*
D02*
G37*
G36*
X027585Y01535D02*
X027435D01*
Y0151D01*
X027235D01*
Y01535D01*
X027085D01*
X027335Y0156D01*
X027585Y01535D01*
D02*
G37*
G36*
X0228D02*
X02265D01*
Y0151D01*
X02245D01*
Y01535D01*
X0223D01*
X02255Y0156D01*
X0228Y01535D01*
D02*
G37*
G36*
X017397D02*
X017247D01*
Y0151D01*
X017047D01*
Y01535D01*
X016897D01*
X017147Y0156D01*
X017397Y01535D01*
D02*
G37*
G36*
X0307Y01967D02*
X0309Y01987D01*
X0311Y01967D01*
X0307Y01967D01*
D02*
G37*
G36*
X042485Y025516D02*
Y024806D01*
X042835Y025156D01*
X042845D01*
X042485Y025516D01*
D02*
G37*
G36*
X041345Y033125D02*
X042055D01*
X041705Y033475D01*
Y033485D01*
X041345Y033125D01*
D02*
G37*
G36*
X043694Y032387D02*
X043444Y031887D01*
X043944D01*
X043694Y032387D01*
D02*
G37*
G36*
X045185Y020895D02*
Y021605D01*
X044835Y021255D01*
X044825D01*
X045185Y020895D01*
D02*
G37*
G36*
X048055Y020855D02*
Y021565D01*
X047705Y021215D01*
X047695D01*
X048055Y020855D01*
D02*
G37*
G36*
X045362Y025516D02*
Y024806D01*
X045712Y025156D01*
X045722D01*
X045362Y025516D01*
D02*
G37*
G36*
X03749Y033221D02*
X037344D01*
X037344D01*
X037343D01*
X037341D01*
X037339D01*
X037336Y03322D01*
X037333D01*
X037326Y03322D01*
X037318Y033219D01*
X03731Y033218D01*
X037302Y033217D01*
X037299Y033216D01*
X037296Y033215D01*
X037295Y033215D01*
X037293Y033214D01*
X037291Y033212D01*
X037287Y03321D01*
X037283Y033207D01*
X037279Y033204D01*
X037275Y033199D01*
X037272Y033194D01*
X037272Y033193D01*
X037271Y033192D01*
X03727Y033188D01*
X037268Y033184D01*
X037266Y033179D01*
X037265Y033172D01*
X037264Y033165D01*
X037264Y033158D01*
Y033154D01*
X037264Y033152D01*
Y033149D01*
X037264Y033145D01*
X037266Y033137D01*
X037268Y033129D01*
X037271Y03312D01*
X037275Y033112D01*
X037277Y033109D01*
X03728Y033105D01*
X03728Y033105D01*
X037281Y033105D01*
X037282Y033104D01*
X037283Y033103D01*
X037286Y033102D01*
X037288Y0331D01*
X037291Y033099D01*
X037294Y033097D01*
X037298Y033096D01*
X037303Y033095D01*
X037308Y033093D01*
X037314Y033092D01*
X037321Y033091D01*
X037328Y03309D01*
X037336Y03309D01*
X037344D01*
X03749D01*
Y033056D01*
X037344D01*
X037344D01*
X037342D01*
X037341D01*
X037338D01*
X037335Y033057D01*
X037331D01*
X037327Y033057D01*
X037322Y033057D01*
X037313Y033058D01*
X037302Y03306D01*
X037292Y033062D01*
X037288Y033063D01*
X037283Y033065D01*
X037283D01*
X037282Y033065D01*
X037281Y033066D01*
X03728Y033067D01*
X037276Y033069D01*
X037271Y033072D01*
X037265Y033077D01*
X037259Y033082D01*
X037253Y033088D01*
X037247Y033096D01*
Y033097D01*
X037247Y033097D01*
X037246Y033098D01*
X037245Y0331D01*
X037244Y033102D01*
X037243Y033105D01*
X037242Y033108D01*
X03724Y033112D01*
X037239Y033116D01*
X037238Y03312D01*
X037237Y033125D01*
X037236Y03313D01*
X037235Y033136D01*
X037234Y033142D01*
X037234Y033155D01*
Y033158D01*
X037234Y033161D01*
Y033164D01*
X037234Y033167D01*
X037235Y033171D01*
X037235Y033175D01*
X037236Y033184D01*
X037239Y033194D01*
X037242Y033204D01*
X037246Y033213D01*
Y033213D01*
X037246Y033214D01*
X037247Y033215D01*
X037248Y033216D01*
X037251Y03322D01*
X037255Y033225D01*
X03726Y033231D01*
X037266Y033236D01*
X037273Y033241D01*
X037281Y033245D01*
X037281D01*
X037282Y033245D01*
X037283Y033245D01*
X037285Y033246D01*
X037287Y033247D01*
X03729Y033248D01*
X037294Y033249D01*
X037298Y03325D01*
X037302Y03325D01*
X037307Y033251D01*
X037312Y033252D01*
X037317Y033253D01*
X037323Y033254D01*
X03733Y033254D01*
X037337Y033254D01*
X037344D01*
X03749D01*
Y033221D01*
D02*
G37*
G36*
X037428Y032989D02*
X037428Y032989D01*
X037429Y032987D01*
X03743Y032985D01*
X037431Y032983D01*
X037432Y032981D01*
X037436Y032974D01*
X03744Y032967D01*
X037445Y03296D01*
X037451Y032952D01*
X037457Y032944D01*
X037457Y032944D01*
X037458Y032944D01*
X037459Y032943D01*
X03746Y032941D01*
X037464Y032938D01*
X037468Y032934D01*
X037473Y032929D01*
X037479Y032924D01*
X037485Y03292D01*
X037491Y032917D01*
Y032897D01*
X037238D01*
Y032928D01*
X037435D01*
X037434Y032928D01*
X037433Y03293D01*
X037431Y032932D01*
X037428Y032936D01*
X037425Y03294D01*
X037421Y032945D01*
X037417Y032951D01*
X037413Y032957D01*
Y032958D01*
X037413Y032958D01*
X037412Y03296D01*
X03741Y032964D01*
X037408Y032968D01*
X037405Y032973D01*
X037402Y032979D01*
X0374Y032984D01*
X037398Y03299D01*
X037428D01*
Y032989D01*
D02*
G37*
D10*
X04581Y01426D02*
G03*
X04465Y01427I-000585J-000575D01*
G01*
X045398Y016212D02*
G03*
X045398Y016212I-000178J0D01*
G01*
X044738Y018322D02*
G03*
X044738Y018322I-000178J0D01*
G01*
X046248Y018312D02*
G03*
X046248Y018312I-000178J0D01*
G01*
X026723Y015212D02*
G03*
X026736Y015201I-000388J-000462D01*
G01*
X028419Y01628D02*
G03*
X028419Y01628I-000064J0D01*
G01*
X026399Y01627D02*
G03*
X026399Y01627I-000064J0D01*
G01*
X028722Y015213D02*
G03*
X028736Y015201I-000387J-000463D01*
G01*
X016536Y015212D02*
G03*
X016548Y015201I-000388J-000462D01*
G01*
X018231Y01628D02*
G03*
X018231Y01628I-000064J0D01*
G01*
X016211Y01627D02*
G03*
X016211Y01627I-000064J0D01*
G01*
X018535Y015213D02*
G03*
X018548Y015201I-000387J-000463D01*
G01*
X021938Y015212D02*
G03*
X021951Y015201I-000388J-000462D01*
G01*
X023634Y01628D02*
G03*
X023634Y01628I-000064J0D01*
G01*
X021614Y01627D02*
G03*
X021614Y01627I-000064J0D01*
G01*
X023937Y015213D02*
G03*
X023951Y015201I-000387J-000463D01*
G01*
X0435Y01426D02*
X04464D01*
X04582Y01425D02*
X04695D01*
X04483Y01823D02*
X04522Y01784D01*
Y01641D02*
Y01784D01*
X04607Y01849D02*
X04634Y01876D01*
X047D01*
X04424D02*
X0445Y0185D01*
X04348Y01876D02*
X04424D01*
X04207Y01257D02*
Y01997D01*
X04837Y01257D02*
Y01997D01*
X04207Y01257D02*
X04837D01*
X04207Y01997D02*
X04837D01*
X04523Y01368D02*
Y01601D01*
X025355Y01575D02*
X029325D01*
X025335Y01375D02*
Y01525D01*
X029335Y01375D02*
Y01626D01*
X029285D02*
X029335D01*
X029285D02*
Y01657D01*
X029335D01*
Y01675D01*
X025335D02*
X029335D01*
X025335Y01525D02*
Y01675D01*
X025275Y0163D02*
Y01655D01*
X027335Y01396D02*
Y01547D01*
X025335Y01375D02*
X029335D01*
X015167Y01575D02*
X019137D01*
X015147Y01375D02*
Y01525D01*
X019147Y01375D02*
Y01626D01*
X019097D02*
X019147D01*
X019097D02*
Y01657D01*
X019147D01*
Y01675D01*
X015147D02*
X019147D01*
X015147Y01525D02*
Y01675D01*
X015087Y0163D02*
Y01655D01*
X017147Y01396D02*
Y01547D01*
X015147Y01375D02*
X019147D01*
X04295Y023671D02*
X04325D01*
Y024171D01*
X04295D02*
X04325D01*
X04297Y025191D02*
X04327D01*
Y025691D01*
X04297D02*
X04327D01*
X04481Y023431D02*
Y025931D01*
X04291Y023431D02*
X04481D01*
X04291D02*
Y025931D01*
X04481D01*
X0268Y02539D02*
X0271D01*
Y02589D01*
X0268D02*
X0271D01*
X02682Y02691D02*
X02712D01*
Y02741D01*
X02682D02*
X02712D01*
X02866Y02515D02*
Y02765D01*
X02676Y02515D02*
X02866D01*
X02676D02*
Y02765D01*
X02866D01*
X0352Y01454D02*
Y01964D01*
X034Y01454D02*
X0352D01*
X034D02*
Y01964D01*
X0352D01*
X034Y01874D02*
X0352D01*
X02057Y01575D02*
X02454D01*
X02055Y01375D02*
Y01525D01*
X02455Y01375D02*
Y01626D01*
X0245D02*
X02455D01*
X0245D02*
Y01657D01*
X02455D01*
Y01675D01*
X02055D02*
X02455D01*
X02055Y01525D02*
Y01675D01*
X02049Y0163D02*
Y01655D01*
X02255Y01396D02*
Y01547D01*
X02055Y01375D02*
X02455D01*
X04286Y02048D02*
X04476D01*
Y02298D01*
X04286D02*
X04476D01*
X04286Y02048D02*
Y02298D01*
X0444Y02072D02*
X0447D01*
X0444D02*
Y02122D01*
X0447D01*
X04442Y02224D02*
X04472D01*
X04442D02*
Y02274D01*
X04472D01*
X04573Y02044D02*
X04763D01*
Y02294D01*
X04573D02*
X04763D01*
X04573Y02044D02*
Y02294D01*
X04727Y02068D02*
X04757D01*
X04727D02*
Y02118D01*
X04757D01*
X04729Y0222D02*
X04759D01*
X04729D02*
Y0227D01*
X04759D01*
X01625Y03284D02*
X01655D01*
Y03334D01*
X01625D02*
X01655D01*
X01626Y03483D02*
X01656D01*
Y03533D01*
X01626D02*
X01656D01*
X01725Y03205D02*
X01865D01*
X01625Y03605D02*
X01865D01*
X01625Y03205D02*
Y03605D01*
Y03205D02*
X01725D01*
X01865D02*
Y03605D01*
X0457Y03462D02*
Y03602D01*
X0407Y03362D02*
Y03602D01*
Y03362D02*
X0457D01*
Y03462D01*
X0407Y03602D02*
X0457D01*
X04172Y03362D02*
Y03392D01*
X04222D01*
Y03362D02*
Y03392D01*
X0442Y03364D02*
Y03394D01*
X0447D01*
Y03364D02*
Y03394D01*
X045787Y025931D02*
X047687D01*
X045787Y023431D02*
Y025931D01*
Y023431D02*
X047687D01*
Y025931D01*
X045847Y025691D02*
X046147D01*
Y025191D02*
Y025691D01*
X045847Y025191D02*
X046147D01*
X045827Y024171D02*
X046127D01*
Y023671D02*
Y024171D01*
X045827Y023671D02*
X046127D01*
X024177Y031914D02*
X024247Y031984D01*
X024237Y031854D02*
X024307Y031924D01*
D11*
X044156Y0333D02*
G03*
X044156Y0333I-000059J0D01*
G01*
D12*
X026329Y023487D02*
G03*
X026329Y02388I-000197J000197D01*
G01*
X02692D02*
G03*
X02692Y023487I000197J-000197D01*
G01*
X026329Y022487D02*
G03*
X026329Y02288I-000197J000197D01*
G01*
X02692D02*
G03*
X02692Y022487I000197J-000197D01*
G01*
X026329Y021487D02*
G03*
X026329Y02188I-000197J000197D01*
G01*
X02692D02*
G03*
X02692Y021487I000197J-000197D01*
G01*
Y02088D02*
G03*
X02692Y020487I000197J-000197D01*
G01*
X026329D02*
G03*
X026329Y02088I-000197J000197D01*
G01*
X034245Y032361D02*
G03*
X034245Y031968I000197J-000197D01*
G01*
X033654D02*
G03*
X033654Y032361I-000197J000197D01*
G01*
X026133Y02088D02*
X027707D01*
Y020487D02*
Y02088D01*
X026133Y020487D02*
X027707D01*
X026133Y021487D02*
Y02188D01*
X027707D01*
Y021487D02*
Y02188D01*
X026133Y021487D02*
X027707D01*
X026133Y022487D02*
Y02288D01*
X027707D01*
Y022487D02*
Y02288D01*
X026133Y022487D02*
X027707D01*
X026133Y023487D02*
Y02388D01*
X027707D01*
Y023487D02*
Y02388D01*
X026133Y023487D02*
X027707D01*
X033458Y032361D02*
X035032D01*
Y031968D02*
Y032361D01*
X033458Y031968D02*
X035032D01*
D13*
X030642Y020596D02*
G03*
X030642Y020596I-000049J0D01*
G01*
X030521Y026496D02*
G03*
X030521Y026496I-000049J0D01*
G01*
X027921Y028281D02*
G03*
X027921Y028281I-000049J0D01*
G01*
X038599Y023246D02*
G03*
X038599Y023246I-000049J0D01*
G01*
X03855Y020245D02*
G03*
X03855Y020245I-000049J0D01*
G01*
Y021815D02*
G03*
X03855Y021815I-000049J0D01*
G01*
X025799Y031801D02*
G03*
X025799Y031801I-000049J0D01*
G01*
D14*
X026927Y017149D02*
X028927D01*
Y019346D01*
X026927D02*
X028927D01*
X026927Y017149D02*
Y019346D01*
X027927Y017149D02*
Y018248D01*
X028927D01*
X03235Y03495D02*
X04035D01*
Y03595D01*
X03235D02*
X04035D01*
X03235Y03495D02*
Y03595D01*
X03935Y03495D02*
Y03595D01*
X040323Y01396D02*
X040953D01*
X040323Y01518D02*
X040953D01*
X026484Y017933D02*
Y018563D01*
X025263Y017933D02*
Y018563D01*
X024931Y017948D02*
Y018578D01*
X023711Y017948D02*
Y018578D01*
X040629Y024163D02*
X041259D01*
X040629Y025383D02*
X041259D01*
X036453Y015583D02*
X037083D01*
X036453Y014362D02*
X037083D01*
X036453Y017183D02*
X037083D01*
X036453Y015962D02*
X037083D01*
X033181Y021019D02*
X033181Y023381D01*
X030819Y021019D02*
Y023381D01*
Y021019D02*
X033181D01*
X030819Y023381D02*
X033181Y023381D01*
X027281Y028281D02*
Y030919D01*
X026179Y028281D02*
Y030919D01*
Y028281D02*
X027281D01*
X026179Y030919D02*
X027281D01*
X024641Y029635D02*
Y030265D01*
X02342Y029635D02*
Y030265D01*
X023422Y027335D02*
Y027965D01*
X024643Y027335D02*
Y027965D01*
X03589Y02729D02*
X03689D01*
X03589Y026192D02*
X03689D01*
X03589D02*
Y030389D01*
X03689Y026192D02*
Y030389D01*
X03589D02*
X03689D01*
X031662Y031436D02*
Y032696D01*
Y03494D02*
Y036161D01*
X026938Y031436D02*
Y032657D01*
Y03494D02*
Y036161D01*
X031662D01*
X026938Y031436D02*
X031662D01*
X030241Y02945D02*
Y03045D01*
X029143Y02945D02*
X035339D01*
X029143Y03045D02*
X035339D01*
X029143Y02945D02*
Y03045D01*
X035339Y02945D02*
Y03045D01*
X02349Y031631D02*
Y035798D01*
X020073D02*
X02349D01*
X020073Y031631D02*
Y035798D01*
Y031631D02*
X02349D01*
X01975D02*
X020073D01*
X019407Y032215D02*
X01975Y031631D01*
X019407Y032215D02*
Y035215D01*
X01975Y035798D01*
X020073D01*
X02024Y031798D02*
X023323D01*
X02024D02*
Y035631D01*
X023323D01*
Y031798D02*
Y035631D01*
Y031798D02*
X02349Y031631D01*
X023323Y035631D02*
X02349Y035798D01*
X020073D02*
X02024Y035631D01*
X020073Y031631D02*
X02024Y031798D01*
D15*
X03973Y024581D02*
Y025351D01*
X03775Y024581D02*
X03973D01*
X03775D02*
Y025351D01*
X03973D01*
X034925Y026851D02*
X035695D01*
X034925D02*
Y028831D01*
X035695D01*
Y026851D02*
Y028831D01*
X03396Y026851D02*
X03473D01*
X03396D02*
Y028831D01*
X03473D01*
Y026851D02*
Y028831D01*
X02503Y019987D02*
Y02438D01*
X02881D01*
Y019987D02*
Y02438D01*
X02503Y019987D02*
X02881D01*
X02503D02*
Y02438D01*
X02881D01*
Y019987D02*
Y02438D01*
X02503Y019987D02*
X02881D01*
X032355Y031468D02*
X036135D01*
Y032861D01*
X032355D02*
X036135D01*
X032355Y031468D02*
Y032861D01*
Y031468D02*
X036135D01*
Y032861D01*
X032355D02*
X036135D01*
X032355Y031468D02*
Y032861D01*
X031149Y027801D02*
Y028571D01*
X029169Y027801D02*
X031149D01*
X029169D02*
Y028571D01*
X031149D01*
Y026885D02*
Y027655D01*
X029169Y026885D02*
X031149D01*
X029169D02*
Y027655D01*
X031149D01*
X029101Y02454D02*
Y02531D01*
X031081D01*
Y02454D02*
Y02531D01*
X029101Y02454D02*
X031081D01*
X04183Y02173D02*
Y0225D01*
X03985Y02173D02*
X04183D01*
X03985D02*
Y0225D01*
X04183D01*
X041833Y022715D02*
Y023485D01*
X039853Y022715D02*
X041833D01*
X039853D02*
Y023485D01*
X041833D01*
X030284Y01648D02*
X031054D01*
Y0145D02*
Y01648D01*
X030284Y0145D02*
X031054D01*
X030284D02*
Y01648D01*
X031423Y0145D02*
X032193D01*
X031423D02*
Y01648D01*
X032193D01*
Y0145D02*
Y01648D01*
X031433Y018637D02*
X032203D01*
Y016657D02*
Y018637D01*
X031433Y016657D02*
X032203D01*
X031433D02*
Y018637D01*
X03026Y016657D02*
X03103D01*
X03026D02*
Y018637D01*
X03103D01*
Y016657D02*
Y018637D01*
X031384Y026786D02*
X032154D01*
Y024806D02*
Y026786D01*
X031384Y024806D02*
X032154D01*
X031384D02*
Y026786D01*
X032566Y018627D02*
X033336D01*
Y016647D02*
Y018627D01*
X032566Y016647D02*
X033336D01*
X032566D02*
Y018627D01*
X03761Y020473D02*
Y021243D01*
X03563Y020473D02*
X03761Y020473D01*
X03563Y020473D02*
Y021243D01*
X03761Y021243D01*
X03758Y021468D02*
Y022238D01*
X0356Y021468D02*
X03758Y021468D01*
X0356Y022238D02*
X0356Y021468D01*
X0356Y022238D02*
X03758D01*
Y022509D02*
Y023279D01*
X0356Y022509D02*
X03758Y022509D01*
X0356Y023279D02*
X0356Y022509D01*
X0356Y023279D02*
X03758D01*
X024107Y031934D02*
X024182Y03186D01*
X024107Y031934D02*
X024387Y032064D01*
X024182Y03186D02*
X024257Y031784D01*
X024387Y032064D01*
X024182Y03186D02*
X024387Y032064D01*
D16*
X03843Y025271D02*
X03905D01*
X03843Y024671D02*
X03905D01*
X035615Y027531D02*
Y028151D01*
X035015Y027531D02*
Y028151D01*
X03465Y027531D02*
Y028151D01*
X03405Y027531D02*
Y028151D01*
X029849Y028491D02*
X030469D01*
X029849Y027891D02*
X030469D01*
X029849Y027575D02*
X030469D01*
X029849Y026975D02*
X030469D01*
X0342Y02492D02*
X03425D01*
X0342Y02402D02*
Y02492D01*
Y02402D02*
X03425D01*
X03485Y02492D02*
X0349D01*
Y02402D02*
Y02492D01*
X03485Y02402D02*
X0349D01*
X035468Y024971D02*
X035518D01*
X035468Y024071D02*
Y024971D01*
Y024071D02*
X035518D01*
X036118Y024971D02*
X036168D01*
Y024071D02*
Y024971D01*
X036118Y024071D02*
X036168D01*
X029781Y02462D02*
X030401D01*
X029781Y02522D02*
X030401D01*
X04053Y02242D02*
X04115D01*
X04053Y02182D02*
X04115D01*
X040533Y023405D02*
X041153D01*
X040533Y022805D02*
X041153D01*
X030364Y01518D02*
Y0158D01*
X030964Y01518D02*
Y0158D01*
X032113Y01518D02*
Y0158D01*
X031513Y01518D02*
Y0158D01*
Y017337D02*
Y017957D01*
X032113Y017337D02*
Y017957D01*
X03095Y017337D02*
Y017957D01*
X03035Y017337D02*
Y017957D01*
X031464Y025486D02*
Y026106D01*
X032064Y025486D02*
Y026106D01*
X032646Y017327D02*
Y017947D01*
X033246Y017327D02*
Y017947D01*
X03631Y021163D02*
X03693D01*
X03631Y020563D02*
X03693D01*
X03628Y022158D02*
X0369Y022158D01*
X03628Y021558D02*
X0369Y021558D01*
X03628Y023199D02*
X0369Y023199D01*
X03628Y022599D02*
X0369Y022599D01*
D17*
X023528Y025439D02*
X024128D01*
X023528Y024939D02*
X023828Y025239D01*
X024128Y024939D01*
X023328Y023939D02*
X023428D01*
X023328D02*
Y025939D01*
X023428D01*
X024228Y023939D02*
X024328D01*
Y025989D01*
X024228D02*
X024328D01*
X041319Y020345D02*
Y020945D01*
X040819D02*
X041119Y020645D01*
X040819Y020345D02*
X041119Y020645D01*
X039819Y021045D02*
Y021145D01*
X041819D01*
Y021045D02*
Y021145D01*
X039819Y020145D02*
Y020245D01*
Y020145D02*
X041869D01*
Y020245D01*
X0251Y02602D02*
X0257D01*
X0254Y02622D02*
X0257Y02652D01*
X0251D02*
X0254Y02622D01*
X0258Y02752D02*
X0259D01*
Y02552D02*
Y02752D01*
X0258Y02552D02*
X0259D01*
X0249Y02752D02*
X025D01*
X0249Y02547D02*
Y02752D01*
Y02547D02*
X025D01*
D18*
X044055Y033117D02*
X046989D01*
X037565D02*
X037821D01*
X044054Y026752D02*
X046989D01*
X037565D02*
X037821D01*
X046989D02*
Y033117D01*
X037565Y026752D02*
Y033117D01*
X015194Y01762D02*
X023068D01*
Y031006D01*
X015194D02*
X023068D01*
X015194Y01762D02*
Y031006D01*
X019001Y031358D02*
X026087D01*
X019001D02*
Y036082D01*
X026087D01*
Y031358D02*
Y036082D01*
X01715Y017195D02*
X017045D01*
X017097D01*
Y016932D01*
X017045Y01688D01*
X016992D01*
X01694Y016932D01*
X017307Y01709D02*
X017412D01*
X017465Y017037D01*
Y01688D01*
X017307D01*
X017255Y016932D01*
X017307Y016985D01*
X017465D01*
X01778Y01709D02*
X017622D01*
X01757Y017037D01*
Y016932D01*
X017622Y01688D01*
X01778D01*
X017885D02*
Y017195D01*
Y016985D02*
X018042Y01709D01*
X017885Y016985D02*
X018042Y01688D01*
X018199Y017037D02*
X018409D01*
X018514Y01688D02*
Y01709D01*
X018619Y017195D01*
X018724Y01709D01*
Y01688D01*
Y017037D01*
X018514D01*
X019039Y017142D02*
X018987Y017195D01*
X018882D01*
X018829Y017142D01*
Y016932D01*
X018882Y01688D01*
X018987D01*
X019039Y016932D01*
X019185Y02179D02*
X0195D01*
X019343D01*
Y022D01*
X019185D01*
X0195D01*
Y022105D02*
Y02221D01*
Y022157D01*
X01929D01*
Y022105D01*
X019343Y022367D02*
Y022577D01*
X019185Y022682D02*
X0195D01*
Y022892D01*
Y022997D02*
Y023102D01*
Y023049D01*
X01929D01*
Y022997D01*
X0195Y023259D02*
X01929D01*
Y023417D01*
X019343Y023469D01*
X0195D01*
Y023574D02*
X019185D01*
X019395D02*
X01929Y023732D01*
X019395Y023574D02*
X0195Y023732D01*
X019343Y023889D02*
Y024099D01*
X0195Y024204D02*
X01929D01*
X019185Y024309D01*
X01929Y024414D01*
X0195D01*
X019343D01*
Y024204D01*
X019238Y024729D02*
X019185Y024676D01*
Y024571D01*
X019238Y024519D01*
X019448D01*
X0195Y024571D01*
Y024676D01*
X019448Y024729D01*
X019343Y024834D02*
Y025044D01*
X019185Y025149D02*
X0195D01*
Y025306D01*
X019448Y025358D01*
X019238D01*
X019185Y025306D01*
Y025149D01*
X019238Y025673D02*
X019185Y025621D01*
Y025516D01*
X019238Y025463D01*
X019448D01*
X0195Y025516D01*
Y025621D01*
X019448Y025673D01*
X019343Y025778D02*
Y025988D01*
X0195Y026093D02*
Y026198D01*
Y026146D01*
X019185D01*
X019238Y026093D01*
X0195Y026565D02*
Y026356D01*
X01929Y026565D01*
X019238D01*
X019185Y026513D01*
Y026408D01*
X019238Y026356D01*
X019185Y02667D02*
X019395D01*
X0195Y026775D01*
X019395Y02688D01*
X019185D01*
X029041Y020087D02*
X028988Y020034D01*
Y019929D01*
X029041Y019877D01*
X029093D01*
X029146Y019929D01*
Y020034D01*
X029198Y020087D01*
X029251D01*
X029303Y020034D01*
Y019929D01*
X029251Y019877D01*
X028988Y020192D02*
X029303D01*
X029198Y020297D01*
X029303Y020402D01*
X028988D01*
X029146Y020507D02*
Y020717D01*
X028988Y020821D02*
X029251D01*
X029303Y020874D01*
Y020979D01*
X029251Y021031D01*
X028988D01*
X029303Y021136D02*
X029093D01*
X028988Y021241D01*
X029093Y021346D01*
X029303D01*
X029146D01*
Y021136D01*
X029303Y021451D02*
X028988D01*
Y021609D01*
X029041Y021661D01*
X029146D01*
X029198Y021609D01*
Y021451D01*
Y021556D02*
X029303Y021661D01*
X028988Y021766D02*
Y021976D01*
Y021871D01*
X029303D01*
X029048Y02244D02*
X028995Y022387D01*
Y022282D01*
X029048Y02223D01*
X0291D01*
X029153Y022282D01*
Y022387D01*
X029205Y02244D01*
X029258D01*
X02931Y022387D01*
Y022282D01*
X029258Y02223D01*
X028995Y022545D02*
X02931D01*
X029205Y02265D01*
X02931Y022755D01*
X028995D01*
X029153Y02286D02*
Y02307D01*
X028995Y023175D02*
X02931D01*
Y023384D01*
X028995Y023647D02*
Y023542D01*
X029048Y023489D01*
X029258D01*
X02931Y023542D01*
Y023647D01*
X029258Y023699D01*
X029048D01*
X028995Y023647D01*
X02931Y023804D02*
X0291D01*
X028995Y023909D01*
X0291Y024014D01*
X02931D01*
X029153D01*
Y023804D01*
X028995Y024119D02*
X02931D01*
Y024277D01*
X029258Y024329D01*
X029048D01*
X028995Y024277D01*
Y024119D01*
X03176Y02446D02*
Y02467D01*
X031865Y024775D01*
X03197Y02467D01*
Y02446D01*
Y024617D01*
X03176D01*
X032075Y024775D02*
X032285D01*
X03218D01*
Y02446D01*
X03239D02*
Y02467D01*
X032442D01*
X032495Y024617D01*
Y02446D01*
Y024617D01*
X032547Y02467D01*
X0326Y024617D01*
Y02446D01*
X032862D02*
X032757D01*
X032705Y024512D01*
Y024617D01*
X032757Y02467D01*
X032862D01*
X032914Y024617D01*
Y024565D01*
X032705D01*
X033124Y024355D02*
X033177D01*
X033229Y024408D01*
Y02467D01*
X033072D01*
X033019Y024617D01*
Y024512D01*
X033072Y02446D01*
X033229D01*
X033387Y02467D02*
X033492D01*
X033544Y024617D01*
Y02446D01*
X033387D01*
X033334Y024512D01*
X033387Y024565D01*
X033544D01*
X033649Y024722D02*
X033702Y024775D01*
X033807D01*
X033859Y024722D01*
Y02467D01*
X033807Y024617D01*
X033859Y024565D01*
Y024512D01*
X033807Y02446D01*
X033702D01*
X033649Y024512D01*
Y024565D01*
X033702Y024617D01*
X033649Y02467D01*
Y024722D01*
X033702Y024617D02*
X033807D01*
X04628Y03473D02*
Y03453D01*
X04638Y03443D01*
X04648Y03453D01*
Y03473D01*
X04673Y03443D02*
X04663D01*
X04658Y03448D01*
Y03458D01*
X04663Y03463D01*
X04673D01*
X04678Y03458D01*
Y03453D01*
X04658D01*
X04688Y03463D02*
Y03443D01*
Y03453D01*
X04693Y03458D01*
X04698Y03463D01*
X04703D01*
X04718Y03458D02*
X04738D01*
X04748Y03443D02*
X04758D01*
X04753D01*
Y03473D01*
X04748Y03468D01*
X04773Y03443D02*
Y03448D01*
X04778D01*
Y03443D01*
X04773D01*
X047979Y03468D02*
X048029Y03473D01*
X048129D01*
X048179Y03468D01*
Y03448D01*
X048129Y03443D01*
X048029D01*
X047979Y03448D01*
Y03468D01*
X04618Y03524D02*
X04613Y03529D01*
X04603D01*
X04598Y03524D01*
Y03519D01*
X04603Y03514D01*
X04613D01*
X04618Y03509D01*
Y03504D01*
X04613Y03499D01*
X04603D01*
X04598Y03504D01*
X04628Y03499D02*
Y03519D01*
X04633D01*
X04638Y03514D01*
Y03499D01*
Y03514D01*
X04643Y03519D01*
X04648Y03514D01*
Y03499D01*
X04663Y03519D02*
X04673D01*
X04678Y03514D01*
Y03499D01*
X04663D01*
X04658Y03504D01*
X04663Y03509D01*
X04678D01*
X04688Y03519D02*
Y03499D01*
Y03509D01*
X04693Y03514D01*
X04698Y03519D01*
X04703D01*
X04723Y03524D02*
Y03519D01*
X04718D01*
X04728D01*
X04723D01*
Y03504D01*
X04728Y03499D01*
X04743Y03529D02*
Y03499D01*
X047579D01*
X047629Y03504D01*
Y03524D01*
X047579Y03529D01*
X04743D01*
X047779Y03499D02*
X047879D01*
X047929Y03504D01*
Y03514D01*
X047879Y03519D01*
X047779D01*
X047729Y03514D01*
Y03504D01*
X047779Y03499D01*
X048079D02*
X048179D01*
X048229Y03504D01*
Y03514D01*
X048179Y03519D01*
X048079D01*
X048029Y03514D01*
Y03504D01*
X048079Y03499D01*
X048329Y03519D02*
Y03499D01*
Y03509D01*
X048379Y03514D01*
X048429Y03519D01*
X048479D01*
X019446Y019234D02*
X019047D01*
X018847Y019434D01*
X019047Y019634D01*
X019446D01*
X019147D01*
Y019234D01*
X018947Y020234D02*
X018847Y020134D01*
Y019934D01*
X018947Y019834D01*
X019346D01*
X019446Y019934D01*
Y020134D01*
X019346Y020234D01*
X015815Y028589D02*
Y028389D01*
X015915Y028289D01*
X016315D01*
X016415Y028389D01*
Y028589D01*
X016315Y028689D01*
X015915D01*
X015815Y028589D01*
X016115Y028889D02*
Y029289D01*
X021878Y028707D02*
Y028507D01*
X021978Y028407D01*
X022378D01*
X022478Y028507D01*
Y028707D01*
X022378Y028807D01*
X021978D01*
X021878Y028707D01*
X022178Y029007D02*
Y029407D01*
X021978Y029207D02*
X022378D01*
X01684Y03127D02*
Y03148D01*
X016945Y031585D01*
X01705Y03148D01*
Y03127D01*
Y031427D01*
X01684D01*
X017365Y031532D02*
X017312Y031585D01*
X017207D01*
X017155Y031532D01*
Y031322D01*
X017207Y03127D01*
X017312D01*
X017365Y031322D01*
X01747Y031218D02*
X01768D01*
X017785Y031585D02*
Y03127D01*
X017942D01*
X017994Y031322D01*
Y031532D01*
X017942Y031585D01*
X017785D01*
X018309Y031532D02*
X018257Y031585D01*
X018152D01*
X018099Y031532D01*
Y031322D01*
X018152Y03127D01*
X018257D01*
X018309Y031322D01*
X04247Y02349D02*
X042155D01*
X042365D02*
X04226Y023647D01*
X042365Y02349D02*
X04247Y023647D01*
X042155Y024015D02*
Y023805D01*
X04247D01*
Y024015D01*
X042313Y023805D02*
Y02391D01*
X042155Y02412D02*
X042208D01*
X042313Y024225D01*
X042208Y02433D01*
X042155D01*
X042313Y024225D02*
X04247D01*
X042313Y024435D02*
Y024644D01*
X042155Y024749D02*
X04247D01*
Y024907D01*
X042418Y024959D01*
X042208D01*
X042155Y024907D01*
Y024749D01*
Y025222D02*
Y025117D01*
X042208Y025064D01*
X042418D01*
X04247Y025117D01*
Y025222D01*
X042418Y025274D01*
X042208D01*
X042155Y025222D01*
Y025537D02*
Y025432D01*
X042208Y025379D01*
X042418D01*
X04247Y025432D01*
Y025537D01*
X042418Y025589D01*
X042208D01*
X042155Y025537D01*
X04247Y025694D02*
X042155D01*
Y025851D01*
X042208Y025904D01*
X042313D01*
X042365Y025851D01*
Y025694D01*
Y025799D02*
X04247Y025904D01*
X042245Y02069D02*
X04256D01*
X042455Y020795D01*
X04256Y0209D01*
X042245D01*
X04256Y021005D02*
X04235D01*
X042245Y02111D01*
X04235Y021215D01*
X04256D01*
X042403D01*
Y021005D01*
X04256Y02132D02*
X042245D01*
Y021477D01*
X042298Y02153D01*
X042403D01*
X042455Y021477D01*
Y02132D01*
Y021425D02*
X04256Y02153D01*
Y021635D02*
X042245D01*
X04256Y021844D01*
X042245D01*
Y021949D02*
Y022054D01*
Y022002D01*
X04256D01*
Y021949D01*
Y022054D01*
Y022212D02*
X042245D01*
X04256Y022422D01*
X042245D01*
X042298Y022737D02*
X042245Y022684D01*
Y022579D01*
X042298Y022527D01*
X042508D01*
X04256Y022579D01*
Y022684D01*
X042508Y022737D01*
X042403D01*
Y022632D01*
X02688Y028105D02*
Y02779D01*
X027038D01*
X02709Y027842D01*
Y027895D01*
X027038Y027947D01*
X02688D01*
X027038D01*
X02709Y028D01*
Y028052D01*
X027038Y028105D01*
X02688D01*
X027195D02*
Y027842D01*
X027248Y02779D01*
X027353D01*
X027405Y027842D01*
Y028105D01*
X02751D02*
X02772D01*
Y028052D01*
X02751Y027842D01*
Y02779D01*
X02772D01*
X027825Y028105D02*
X028035D01*
Y028052D01*
X027825Y027842D01*
Y02779D01*
X028035D01*
X02835Y028105D02*
X02814D01*
Y02779D01*
X02835D01*
X02814Y027947D02*
X028245D01*
X028455Y02779D02*
Y028105D01*
X028612D01*
X028665Y028052D01*
Y027947D01*
X028612Y027895D01*
X028455D01*
X02856D02*
X028665Y02779D01*
X037564Y033694D02*
Y033432D01*
X037616Y033379D01*
X037721D01*
X037774Y033432D01*
Y033694D01*
X037879Y033379D02*
X037984D01*
X037931D01*
Y033694D01*
X037879Y033642D01*
X02679Y024752D02*
X026737Y024805D01*
X026632D01*
X02658Y024752D01*
Y0247D01*
X026632Y024647D01*
X026737D01*
X02679Y024595D01*
Y024542D01*
X026737Y02449D01*
X026632D01*
X02658Y024542D01*
X026895Y024805D02*
Y02449D01*
X027Y024595D01*
X027105Y02449D01*
Y024805D01*
X02721D02*
X027315D01*
X027262D01*
Y02449D01*
X02721D01*
X027315D01*
X027472Y024805D02*
X027682D01*
X027577D01*
Y02449D01*
X027997Y024752D02*
X027944Y024805D01*
X027839D01*
X027787Y024752D01*
Y024542D01*
X027839Y02449D01*
X027944D01*
X027997Y024542D01*
X028102Y024805D02*
Y02449D01*
Y024647D01*
X028312D01*
Y024805D01*
Y02449D01*
X042125Y020058D02*
Y020373D01*
X042283D01*
X042335Y020321D01*
Y020216D01*
X042283Y020163D01*
X042125D01*
X04223D02*
X042335Y020058D01*
X04244Y020373D02*
Y020058D01*
X04265D01*
X042755Y020321D02*
X042807Y020373D01*
X042912D01*
X042965Y020321D01*
Y020268D01*
X042912Y020216D01*
X04286D01*
X042912D01*
X042965Y020163D01*
Y020111D01*
X042912Y020058D01*
X042807D01*
X042755Y020111D01*
X032535Y03618D02*
Y036495D01*
X032692D01*
X032745Y036442D01*
Y036337D01*
X032692Y036285D01*
X032535D01*
X03264D02*
X032745Y03618D01*
X03306Y036495D02*
X03285D01*
Y036337D01*
X032955D01*
X03285D01*
Y03618D01*
X033165Y036495D02*
X03327D01*
X033217D01*
Y03618D01*
X033165D01*
X03327D01*
X033427Y036495D02*
Y03618D01*
X033585D01*
X033637Y036232D01*
Y036442D01*
X033585Y036495D01*
X033427D01*
X033742Y036337D02*
X033952D01*
X034057Y03618D02*
Y036495D01*
X034214D01*
X034267Y036442D01*
Y036337D01*
X034214Y036285D01*
X034057D01*
X034162D02*
X034267Y03618D01*
X034582Y036442D02*
X034529Y036495D01*
X034424D01*
X034372Y036442D01*
Y036232D01*
X034424Y03618D01*
X034529D01*
X034582Y036232D01*
X034896Y036495D02*
X034687D01*
Y036337D01*
X034792Y03639D01*
X034844D01*
X034896Y036337D01*
Y036232D01*
X034844Y03618D01*
X034739D01*
X034687Y036232D01*
X035211Y03618D02*
X035001D01*
X035211Y03639D01*
Y036442D01*
X035159Y036495D01*
X035054D01*
X035001Y036442D01*
X035526Y03618D02*
X035316D01*
X035526Y03639D01*
Y036442D01*
X035474Y036495D01*
X035369D01*
X035316Y036442D01*
X01578Y03153D02*
X015465D01*
Y031687D01*
X015518Y03174D01*
X015623D01*
X015675Y031687D01*
Y03153D01*
X015465Y031845D02*
Y03195D01*
Y031897D01*
X01578D01*
Y031845D01*
Y03195D01*
Y032107D02*
X015465D01*
Y032265D01*
X015518Y032317D01*
X015623D01*
X015675Y032265D01*
Y032107D01*
Y032212D02*
X01578Y032317D01*
X015623Y032422D02*
Y032632D01*
X015518Y032947D02*
X015465Y032894D01*
Y032789D01*
X015518Y032737D01*
X01557D01*
X015623Y032789D01*
Y032894D01*
X015675Y032947D01*
X015728D01*
X01578Y032894D01*
Y032789D01*
X015728Y032737D01*
X015465Y033262D02*
Y033052D01*
X01578D01*
Y033262D01*
X015623Y033052D02*
Y033157D01*
X01578Y033367D02*
X015465D01*
X01578Y033577D01*
X015465D01*
X015518Y033891D02*
X015465Y033839D01*
Y033734D01*
X015518Y033682D01*
X01557D01*
X015623Y033734D01*
Y033839D01*
X015675Y033891D01*
X015728D01*
X01578Y033839D01*
Y033734D01*
X015728Y033682D01*
X015465Y034154D02*
Y034049D01*
X015518Y033996D01*
X015728D01*
X01578Y034049D01*
Y034154D01*
X015728Y034206D01*
X015518D01*
X015465Y034154D01*
X01578Y034311D02*
X015465D01*
Y034469D01*
X015518Y034521D01*
X015623D01*
X015675Y034469D01*
Y034311D01*
Y034416D02*
X01578Y034521D01*
X040927Y036525D02*
X040822D01*
X04077Y036472D01*
Y036262D01*
X040822Y03621D01*
X040927D01*
X04098Y036262D01*
Y036472D01*
X040927Y036525D01*
X041085D02*
Y03621D01*
X041295D01*
X04161Y036525D02*
X0414D01*
Y03621D01*
X04161D01*
X0414Y036367D02*
X041505D01*
X041715Y036525D02*
Y03621D01*
X041872D01*
X041924Y036262D01*
Y036472D01*
X041872Y036525D01*
X041715D01*
X037062Y027191D02*
X037377D01*
Y027401D01*
X037062Y027663D02*
Y027558D01*
X037114Y027506D01*
X037324D01*
X037377Y027558D01*
Y027663D01*
X037324Y027716D01*
X037114D01*
X037062Y027663D01*
X037377Y02782D02*
X037167D01*
X037062Y027925D01*
X037167Y02803D01*
X037377D01*
X037219D01*
Y02782D01*
X037062Y028135D02*
X037377D01*
Y028293D01*
X037324Y028345D01*
X037114D01*
X037062Y028293D01*
Y028135D01*
X037429Y02845D02*
Y02866D01*
X037062Y028975D02*
Y028765D01*
X037377D01*
Y028975D01*
X037219Y028765D02*
Y02887D01*
X037114Y02929D02*
X037062Y029237D01*
Y029132D01*
X037114Y02908D01*
X037167D01*
X037219Y029132D01*
Y029237D01*
X037272Y02929D01*
X037324D01*
X037377Y029237D01*
Y029132D01*
X037324Y02908D01*
X037377Y029395D02*
X037062D01*
Y029552D01*
X037114Y029605D01*
X037219D01*
X037272Y029552D01*
Y029395D01*
X029509Y031017D02*
Y030702D01*
X029719D01*
X029981Y031017D02*
X029876D01*
X029824Y030965D01*
Y030755D01*
X029876Y030702D01*
X029981D01*
X030034Y030755D01*
Y030965D01*
X029981Y031017D01*
X030139Y030702D02*
Y030912D01*
X030244Y031017D01*
X030349Y030912D01*
Y030702D01*
Y03086D01*
X030139D01*
X030454Y031017D02*
Y030702D01*
X030611D01*
X030664Y030755D01*
Y030965D01*
X030611Y031017D01*
X030454D01*
X030768Y03065D02*
X030978D01*
X031083Y030702D02*
Y030912D01*
X031188Y031017D01*
X031293Y030912D01*
Y030702D01*
Y03086D01*
X031083D01*
X031398Y031017D02*
X031608D01*
X031503D01*
Y030702D01*
X031713D02*
Y031017D01*
X031818Y030912D01*
X031923Y031017D01*
Y030702D01*
X01912Y036605D02*
Y03629D01*
X01933D01*
X019435D02*
Y036605D01*
X01954Y0365D01*
X019645Y036605D01*
Y03629D01*
X01996D02*
X01975D01*
X01996Y0365D01*
Y036552D01*
X019907Y036605D01*
X019802D01*
X01975Y036552D01*
X020274Y036605D02*
X020065D01*
Y036447D01*
X02017Y0365D01*
X020222D01*
X020274Y036447D01*
Y036342D01*
X020222Y03629D01*
X020117D01*
X020065Y036342D01*
X020379D02*
X020432Y03629D01*
X020537D01*
X020589Y036342D01*
Y036552D01*
X020537Y036605D01*
X020432D01*
X020379Y036552D01*
Y0365D01*
X020432Y036447D01*
X020589D01*
X020904Y036605D02*
X020799Y036552D01*
X020694Y036447D01*
Y036342D01*
X020747Y03629D01*
X020852D01*
X020904Y036342D01*
Y036395D01*
X020852Y036447D01*
X020694D01*
X021009D02*
X021219D01*
X021534Y036605D02*
X021324D01*
Y036447D01*
X021429Y0365D01*
X021481D01*
X021534Y036447D01*
Y036342D01*
X021481Y03629D01*
X021376D01*
X021324Y036342D01*
X021639Y036605D02*
Y036395D01*
X021744Y03629D01*
X021849Y036395D01*
Y036605D01*
X027989Y017155D02*
Y01684D01*
X028199D01*
X028304Y017155D02*
X028409D01*
X028356D01*
Y01684D01*
X028304D01*
X028409D01*
X028776Y017102D02*
X028724Y017155D01*
X028619D01*
X028566Y017102D01*
Y016892D01*
X028619Y01684D01*
X028724D01*
X028776Y016892D01*
Y016997D01*
X028671D01*
X028881Y017155D02*
Y01684D01*
Y016997D01*
X029091D01*
Y017155D01*
Y01684D01*
X029196Y017155D02*
X029406D01*
X029301D01*
Y01684D01*
X02718Y036595D02*
Y03628D01*
X02739D01*
X027495D02*
X0276D01*
X027547D01*
Y036595D01*
X027495Y036542D01*
X0222Y017245D02*
X022095D01*
X022147D01*
Y016982D01*
X022095Y01693D01*
X022042D01*
X02199Y016982D01*
X022357Y01714D02*
X022462D01*
X022515Y017087D01*
Y01693D01*
X022357D01*
X022305Y016982D01*
X022357Y017035D01*
X022515D01*
X02283Y01714D02*
X022672D01*
X02262Y017087D01*
Y016982D01*
X022672Y01693D01*
X02283D01*
X022935D02*
Y017245D01*
Y017035D02*
X023092Y01714D01*
X022935Y017035D02*
X023092Y01693D01*
X023249Y017087D02*
X023459D01*
X023564Y017245D02*
Y01693D01*
X023722D01*
X023774Y016982D01*
Y017192D01*
X023722Y017245D01*
X023564D01*
X024089Y017192D02*
X024037Y017245D01*
X023932D01*
X023879Y017192D01*
Y016982D01*
X023932Y01693D01*
X024037D01*
X024089Y016982D01*
X044995Y02351D02*
X04531D01*
Y023667D01*
X045258Y02372D01*
X045205D01*
X045153Y023667D01*
Y02351D01*
Y023667D01*
X0451Y02372D01*
X045048D01*
X044995Y023667D01*
Y02351D01*
Y023825D02*
Y024035D01*
Y02393D01*
X04531D01*
X045362Y02414D02*
Y02435D01*
X044995Y024455D02*
X04531D01*
Y024664D01*
X044995Y024769D02*
Y024874D01*
Y024822D01*
X04531D01*
Y024769D01*
Y024874D01*
X045048Y025242D02*
X044995Y025189D01*
Y025084D01*
X045048Y025032D01*
X045258D01*
X04531Y025084D01*
Y025189D01*
X045258Y025242D01*
X045153D01*
Y025137D01*
X044995Y025347D02*
X04531D01*
X045153D01*
Y025557D01*
X044995D01*
X04531D01*
X044995Y025662D02*
Y025871D01*
Y025766D01*
X04531D01*
X045235Y02067D02*
X04555D01*
Y020827D01*
X045498Y02088D01*
X045445D01*
X045393Y020827D01*
Y02067D01*
Y020827D01*
X04534Y02088D01*
X045288D01*
X045235Y020827D01*
Y02067D01*
Y020985D02*
Y021195D01*
Y02109D01*
X04555D01*
X045602Y0213D02*
Y02151D01*
X045235Y021615D02*
X04555D01*
Y021772D01*
X045498Y021824D01*
X045288D01*
X045235Y021772D01*
Y021615D01*
Y022087D02*
Y021982D01*
X045288Y021929D01*
X045498D01*
X04555Y021982D01*
Y022087D01*
X045498Y022139D01*
X045288D01*
X045235Y022087D01*
Y022402D02*
Y022297D01*
X045288Y022244D01*
X045498D01*
X04555Y022297D01*
Y022402D01*
X045498Y022454D01*
X045288D01*
X045235Y022402D01*
X04555Y022559D02*
X045235D01*
Y022717D01*
X045288Y022769D01*
X045393D01*
X045445Y022717D01*
Y022559D01*
Y022664D02*
X04555Y022769D01*
D19*
X041914Y028964D02*
Y030844D01*
X041909Y028934D02*
Y030874D01*
X041904Y028914D02*
Y030894D01*
X041899Y028894D02*
Y030914D01*
X041894Y028879D02*
Y030929D01*
X041889Y028864D02*
Y030944D01*
X041884Y028854D02*
Y030954D01*
X041879Y028839D02*
Y030969D01*
Y028539D02*
Y028589D01*
X041874Y028829D02*
Y030979D01*
Y028529D02*
Y028604D01*
X041869Y029519D02*
Y030989D01*
Y028819D02*
Y028954D01*
Y028519D02*
Y028609D01*
X041864Y029549D02*
Y030999D01*
Y028809D02*
Y028929D01*
Y028579D02*
Y028614D01*
Y028514D02*
Y028549D01*
X041859Y029564D02*
Y031009D01*
Y028799D02*
Y028909D01*
Y028594D02*
Y028624D01*
Y028509D02*
Y028534D01*
X041854Y029584D02*
Y031014D01*
Y028794D02*
Y028889D01*
Y028599D02*
Y028624D01*
Y028504D02*
Y028529D01*
X041849Y029594D02*
Y031024D01*
Y028784D02*
Y028874D01*
Y028609D02*
Y028629D01*
Y028499D02*
Y028524D01*
X041844Y029609D02*
Y031034D01*
Y028779D02*
Y028864D01*
Y028614D02*
Y028634D01*
Y028554D02*
Y028599D01*
Y028499D02*
Y028519D01*
X041839Y029619D02*
Y031039D01*
Y028769D02*
Y028849D01*
Y028614D02*
Y028634D01*
Y028539D02*
Y028599D01*
Y028494D02*
Y028514D01*
X041834Y029629D02*
Y031044D01*
Y028764D02*
Y028839D01*
Y028619D02*
Y028639D01*
Y028534D02*
Y028599D01*
Y028494D02*
Y028509D01*
X041829Y029639D02*
Y031054D01*
Y028754D02*
Y028829D01*
Y028619D02*
Y028639D01*
Y028584D02*
Y028599D01*
Y028534D02*
Y028559D01*
Y028489D02*
Y028509D01*
X041824Y029649D02*
Y031059D01*
Y028749D02*
Y028819D01*
Y028624D02*
Y028639D01*
Y028584D02*
Y028599D01*
Y028534D02*
Y028554D01*
Y028489D02*
Y028504D01*
X041819Y029659D02*
Y031064D01*
Y028744D02*
Y028814D01*
Y028624D02*
Y028644D01*
Y028584D02*
Y028599D01*
Y028534D02*
Y028554D01*
Y028489D02*
Y028504D01*
X041814Y029664D02*
Y031074D01*
Y028734D02*
Y028804D01*
Y028624D02*
Y028644D01*
Y028584D02*
Y028599D01*
Y028534D02*
Y028554D01*
Y028489D02*
Y028504D01*
X041809Y029674D02*
Y031079D01*
Y028729D02*
Y028799D01*
Y028624D02*
Y028644D01*
Y028534D02*
Y028599D01*
Y028484D02*
Y028504D01*
X041804Y029679D02*
Y031084D01*
Y028724D02*
Y028789D01*
Y028624D02*
Y028644D01*
Y028539D02*
Y028599D01*
Y028484D02*
Y028504D01*
X041799Y029689D02*
Y031089D01*
Y028719D02*
Y028784D01*
Y028629D02*
Y028644D01*
Y028549D02*
Y028599D01*
Y028484D02*
Y028504D01*
X041794Y029694D02*
Y031094D01*
Y028714D02*
Y028774D01*
Y028624D02*
Y028644D01*
Y028584D02*
Y028599D01*
Y028549D02*
Y028574D01*
Y028484D02*
Y028504D01*
X041789Y029699D02*
Y031099D01*
Y028709D02*
Y028769D01*
Y028624D02*
Y028644D01*
Y028584D02*
Y028599D01*
Y028544D02*
Y028564D01*
Y028489D02*
Y028504D01*
X041784Y029704D02*
Y031104D01*
Y028704D02*
Y028764D01*
Y028624D02*
Y028644D01*
Y028584D02*
Y028599D01*
Y028539D02*
Y028564D01*
Y028489D02*
Y028504D01*
X041779Y029714D02*
Y031109D01*
Y028699D02*
Y028754D01*
Y028624D02*
Y028639D01*
Y028584D02*
Y028599D01*
Y028539D02*
Y028559D01*
Y028489D02*
Y028509D01*
X041774Y029719D02*
Y031114D01*
Y028694D02*
Y028749D01*
Y028619D02*
Y028639D01*
Y028584D02*
Y028599D01*
Y028534D02*
Y028554D01*
Y028489D02*
Y028509D01*
X041769Y029724D02*
Y031119D01*
Y028689D02*
Y028744D01*
Y028619D02*
Y028634D01*
Y028584D02*
Y028599D01*
Y028529D02*
Y028554D01*
Y028494D02*
Y028514D01*
X041764Y029729D02*
Y031124D01*
Y028684D02*
Y028739D01*
Y028614D02*
Y028634D01*
Y028584D02*
Y028599D01*
Y028529D02*
Y028549D01*
Y028494D02*
Y028514D01*
X041759Y029734D02*
Y031129D01*
Y028679D02*
Y028734D01*
Y028609D02*
Y028629D01*
Y028499D02*
Y028519D01*
X041754Y029739D02*
Y031134D01*
Y028679D02*
Y028729D01*
Y028604D02*
Y028629D01*
Y028504D02*
Y028529D01*
X041749Y029744D02*
Y031134D01*
Y028674D02*
Y028724D01*
Y028594D02*
Y028624D01*
Y028509D02*
Y028534D01*
X041744Y029744D02*
Y031139D01*
Y028669D02*
Y028719D01*
Y028584D02*
Y028619D01*
Y028514D02*
Y028544D01*
X041739Y029749D02*
Y031144D01*
Y028664D02*
Y028714D01*
Y028519D02*
Y028609D01*
X041734Y029754D02*
Y031149D01*
Y028659D02*
Y028714D01*
Y028524D02*
Y028604D01*
X041729Y029759D02*
Y031149D01*
Y028659D02*
Y028709D01*
Y028539D02*
Y028589D01*
X041724Y029764D02*
Y031154D01*
Y028654D02*
Y028704D01*
X041719Y029769D02*
Y031159D01*
Y028649D02*
Y028699D01*
X041714Y029769D02*
Y031164D01*
Y028649D02*
Y028694D01*
X041709Y029774D02*
Y031164D01*
Y028644D02*
Y028694D01*
X041704Y029779D02*
Y031169D01*
Y028639D02*
Y028689D01*
X041699Y029779D02*
Y031169D01*
Y028639D02*
Y028684D01*
X041694Y029784D02*
Y031174D01*
Y028634D02*
Y028684D01*
X041689Y029789D02*
Y031179D01*
Y028634D02*
Y028679D01*
X041684Y029789D02*
Y031179D01*
Y028629D02*
Y028674D01*
X041679Y029794D02*
Y031184D01*
Y028624D02*
Y028674D01*
X041674Y029794D02*
Y031184D01*
Y028624D02*
Y028669D01*
X041669Y029799D02*
Y031189D01*
Y028619D02*
Y028669D01*
X041664Y029799D02*
Y031189D01*
Y028619D02*
Y028664D01*
X041659Y029804D02*
Y031194D01*
Y028614D02*
Y028659D01*
X041654Y030099D02*
Y031194D01*
Y029804D02*
Y030074D01*
Y029019D02*
Y029039D01*
Y028614D02*
Y028659D01*
X041649Y030119D02*
Y031199D01*
Y029809D02*
Y030059D01*
Y028999D02*
Y029059D01*
Y028614D02*
Y028654D01*
X041644Y030129D02*
Y031199D01*
Y029809D02*
Y030049D01*
Y028989D02*
Y029069D01*
Y028609D02*
Y028654D01*
X041639Y030999D02*
Y031199D01*
Y030989D02*
Y030994D01*
Y030889D02*
Y030899D01*
Y030669D02*
Y030884D01*
Y030574D02*
Y030579D01*
Y030559D02*
Y030569D01*
Y030344D02*
Y030554D01*
Y030229D02*
Y030234D01*
Y030134D02*
Y030224D01*
Y029814D02*
Y030039D01*
Y028979D02*
Y029074D01*
Y028609D02*
Y028654D01*
X041634Y031004D02*
Y031204D01*
Y030669D02*
Y030869D01*
Y030349D02*
Y030554D01*
Y030139D02*
Y030224D01*
Y029814D02*
Y030034D01*
Y029184D02*
Y029639D01*
Y028974D02*
Y029079D01*
Y028604D02*
Y028649D01*
X041629Y031004D02*
Y031204D01*
Y030669D02*
Y030869D01*
Y030349D02*
Y030549D01*
Y030144D02*
Y030224D01*
Y029814D02*
Y030029D01*
Y029179D02*
Y029639D01*
Y028969D02*
Y029084D01*
Y028604D02*
Y028649D01*
X041624Y030999D02*
Y031209D01*
Y030674D02*
Y030869D01*
Y030349D02*
Y030549D01*
Y030149D02*
Y030229D01*
Y029819D02*
Y030024D01*
Y029184D02*
Y029639D01*
Y028969D02*
Y029089D01*
Y028604D02*
Y028644D01*
X041619Y030999D02*
Y031209D01*
Y030674D02*
Y030869D01*
Y030354D02*
Y030549D01*
Y030154D02*
Y030229D01*
Y029819D02*
Y030024D01*
Y029184D02*
Y029639D01*
Y028964D02*
Y029094D01*
Y028599D02*
Y028644D01*
X041614Y030999D02*
Y031209D01*
Y030674D02*
Y030864D01*
Y030354D02*
Y030549D01*
Y030154D02*
Y030229D01*
Y029824D02*
Y030019D01*
Y029184D02*
Y029639D01*
Y028959D02*
Y029094D01*
Y028599D02*
Y028644D01*
X041609Y030999D02*
Y031214D01*
Y030679D02*
Y030864D01*
Y030354D02*
Y030544D01*
Y030159D02*
Y030229D01*
Y029824D02*
Y030019D01*
Y029184D02*
Y029639D01*
Y028959D02*
Y029099D01*
Y028594D02*
Y028639D01*
X041604Y030994D02*
Y031214D01*
Y030679D02*
Y030864D01*
Y030354D02*
Y030544D01*
Y030159D02*
Y030234D01*
Y029824D02*
Y030014D01*
Y029184D02*
Y029639D01*
Y028954D02*
Y029099D01*
Y028594D02*
Y028639D01*
X041599Y030994D02*
Y031214D01*
Y030679D02*
Y030864D01*
Y030354D02*
Y030544D01*
Y030159D02*
Y030234D01*
Y029829D02*
Y030014D01*
Y029184D02*
Y029639D01*
Y028954D02*
Y029099D01*
Y028594D02*
Y028634D01*
X041594Y030994D02*
Y031219D01*
Y030684D02*
Y030859D01*
Y030359D02*
Y030539D01*
Y030164D02*
Y030234D01*
Y029829D02*
Y030014D01*
Y029184D02*
Y029639D01*
Y028954D02*
Y029104D01*
Y028594D02*
Y028634D01*
X041589Y030994D02*
Y031219D01*
Y030684D02*
Y030859D01*
Y030359D02*
Y030539D01*
Y030164D02*
Y030234D01*
Y029829D02*
Y030014D01*
Y029184D02*
Y029639D01*
Y028954D02*
Y029104D01*
Y028589D02*
Y028634D01*
X041584Y030989D02*
Y031219D01*
Y030684D02*
Y030859D01*
Y030359D02*
Y030539D01*
Y030164D02*
Y030239D01*
Y029829D02*
Y030014D01*
Y029184D02*
Y029639D01*
Y028954D02*
Y029104D01*
Y028589D02*
Y028634D01*
X041579Y030989D02*
Y031219D01*
Y030684D02*
Y030859D01*
Y030359D02*
Y030539D01*
Y030164D02*
Y030239D01*
Y029834D02*
Y030009D01*
Y029184D02*
Y029639D01*
Y028954D02*
Y029104D01*
Y028589D02*
Y028629D01*
X041574Y030989D02*
Y031224D01*
Y030689D02*
Y030859D01*
Y030364D02*
Y030534D01*
Y030164D02*
Y030239D01*
Y029834D02*
Y030014D01*
Y029184D02*
Y029639D01*
Y028954D02*
Y029104D01*
Y028584D02*
Y028629D01*
X041569Y030989D02*
Y031224D01*
Y030689D02*
Y030854D01*
Y030364D02*
Y030534D01*
Y030164D02*
Y030239D01*
Y029834D02*
Y030014D01*
Y029184D02*
Y029639D01*
Y028954D02*
Y029104D01*
Y028584D02*
Y028629D01*
X041564Y030984D02*
Y031224D01*
Y030689D02*
Y030854D01*
Y030364D02*
Y030534D01*
Y030159D02*
Y030244D01*
Y029834D02*
Y030014D01*
Y029184D02*
Y029639D01*
Y028954D02*
Y029104D01*
Y028584D02*
Y028629D01*
X041559Y030984D02*
Y031224D01*
Y030694D02*
Y030854D01*
Y030364D02*
Y030529D01*
Y030159D02*
Y030244D01*
Y029839D02*
Y030014D01*
Y029184D02*
Y029639D01*
Y028954D02*
Y029099D01*
Y028584D02*
Y028624D01*
X041554Y030984D02*
Y031224D01*
Y030694D02*
Y030854D01*
Y030369D02*
Y030529D01*
Y030159D02*
Y030244D01*
Y029839D02*
Y030014D01*
Y029184D02*
Y029639D01*
Y028959D02*
Y029099D01*
Y028584D02*
Y028624D01*
X041549Y030979D02*
Y031229D01*
Y030694D02*
Y030849D01*
Y030369D02*
Y030529D01*
Y030159D02*
Y030244D01*
Y029839D02*
Y030019D01*
Y029184D02*
Y029639D01*
Y028959D02*
Y029099D01*
Y028579D02*
Y028624D01*
X041544Y030979D02*
Y031229D01*
Y030694D02*
Y030849D01*
Y030369D02*
Y030529D01*
Y030154D02*
Y030249D01*
Y029839D02*
Y030019D01*
Y029184D02*
Y029639D01*
Y028959D02*
Y029094D01*
Y028579D02*
Y028624D01*
X041539Y030979D02*
Y031229D01*
Y030699D02*
Y030849D01*
Y030369D02*
Y030524D01*
Y030154D02*
Y030249D01*
Y029839D02*
Y030024D01*
Y029184D02*
Y029639D01*
Y028964D02*
Y029094D01*
Y028579D02*
Y028624D01*
X041534Y030979D02*
Y031229D01*
Y030699D02*
Y030849D01*
Y030374D02*
Y030524D01*
Y030149D02*
Y030249D01*
Y029839D02*
Y030029D01*
Y029184D02*
Y029639D01*
Y028969D02*
Y029089D01*
Y028579D02*
Y028619D01*
X041529Y030974D02*
Y031229D01*
Y030699D02*
Y030849D01*
Y030374D02*
Y030524D01*
Y030144D02*
Y030254D01*
Y029839D02*
Y030029D01*
Y029184D02*
Y029639D01*
Y028969D02*
Y029084D01*
Y028579D02*
Y028619D01*
X041524Y030974D02*
Y031229D01*
Y030704D02*
Y030844D01*
Y030374D02*
Y030519D01*
Y030139D02*
Y030254D01*
Y029844D02*
Y030034D01*
Y029179D02*
Y029639D01*
Y028974D02*
Y029079D01*
Y028579D02*
Y028619D01*
X041519Y030974D02*
Y031229D01*
Y030704D02*
Y030844D01*
Y030374D02*
Y030519D01*
Y030134D02*
Y030254D01*
Y029844D02*
Y030039D01*
Y029184D02*
Y029639D01*
Y028984D02*
Y029074D01*
Y028579D02*
Y028619D01*
X041514Y030974D02*
Y031234D01*
Y030704D02*
Y030844D01*
Y030374D02*
Y030519D01*
Y030124D02*
Y030254D01*
Y029844D02*
Y030049D01*
Y029504D02*
Y029639D01*
Y028989D02*
Y029069D01*
Y028574D02*
Y028619D01*
X041509Y030969D02*
Y031234D01*
Y030709D02*
Y030844D01*
Y030379D02*
Y030519D01*
Y030114D02*
Y030259D01*
Y029844D02*
Y030059D01*
Y029504D02*
Y029639D01*
Y028999D02*
Y029054D01*
Y028574D02*
Y028619D01*
X041504Y030969D02*
Y031234D01*
Y030709D02*
Y030839D01*
Y030379D02*
Y030514D01*
Y030094D02*
Y030259D01*
Y029844D02*
Y030089D01*
Y029504D02*
Y029639D01*
Y029029D02*
Y029034D01*
Y028574D02*
Y028619D01*
X041499Y030969D02*
Y031234D01*
Y030709D02*
Y030839D01*
Y030379D02*
Y030514D01*
Y029844D02*
Y030259D01*
Y029504D02*
Y029639D01*
Y028574D02*
Y028619D01*
X041494Y030969D02*
Y031234D01*
Y030709D02*
Y030839D01*
Y030379D02*
Y030514D01*
Y029844D02*
Y030259D01*
Y029504D02*
Y029639D01*
Y028574D02*
Y028619D01*
X041489Y030964D02*
Y031234D01*
Y030714D02*
Y030839D01*
Y030379D02*
Y030509D01*
Y029844D02*
Y030264D01*
Y029504D02*
Y029639D01*
Y028574D02*
Y028619D01*
X041484Y030964D02*
Y031234D01*
Y030714D02*
Y030839D01*
Y030384D02*
Y030509D01*
Y029844D02*
Y030264D01*
Y029504D02*
Y029639D01*
Y028574D02*
Y028619D01*
X041479Y030964D02*
Y031234D01*
Y030714D02*
Y030834D01*
Y030384D02*
Y030509D01*
Y029844D02*
Y030264D01*
Y029504D02*
Y029639D01*
Y028574D02*
Y028619D01*
X041474Y030959D02*
Y031234D01*
Y030719D02*
Y030834D01*
Y030384D02*
Y030509D01*
Y029844D02*
Y030264D01*
Y029504D02*
Y029639D01*
Y028574D02*
Y028619D01*
X041469Y030959D02*
Y031234D01*
Y030719D02*
Y030834D01*
Y030384D02*
Y030504D01*
Y029844D02*
Y030269D01*
Y029504D02*
Y029639D01*
Y028574D02*
Y028619D01*
X041464Y030959D02*
Y031234D01*
Y030719D02*
Y030834D01*
Y030389D02*
Y030504D01*
Y029844D02*
Y030269D01*
Y029504D02*
Y029639D01*
Y028574D02*
Y028619D01*
X041459Y030959D02*
Y031234D01*
Y030719D02*
Y030829D01*
Y030389D02*
Y030504D01*
Y029844D02*
Y030269D01*
Y029504D02*
Y029639D01*
Y028574D02*
Y028619D01*
X041454Y030954D02*
Y031234D01*
Y030724D02*
Y030829D01*
Y030389D02*
Y030499D01*
Y029844D02*
Y030269D01*
Y029504D02*
Y029639D01*
Y028574D02*
Y028619D01*
X041449Y030954D02*
Y031234D01*
Y030724D02*
Y030829D01*
Y030389D02*
Y030499D01*
Y029844D02*
Y030274D01*
Y029504D02*
Y029639D01*
Y028574D02*
Y028619D01*
X041444Y030954D02*
Y031234D01*
Y030724D02*
Y030829D01*
Y030614D02*
Y030619D01*
Y030394D02*
Y030499D01*
Y030154D02*
Y030274D01*
Y029844D02*
Y030024D01*
Y029504D02*
Y029639D01*
Y028964D02*
Y029094D01*
Y028574D02*
Y028619D01*
X041439Y030954D02*
Y031234D01*
Y030729D02*
Y030824D01*
Y030609D02*
Y030619D01*
Y030394D02*
Y030499D01*
Y030154D02*
Y030274D01*
Y029844D02*
Y030024D01*
Y029504D02*
Y029639D01*
Y028964D02*
Y029094D01*
Y028574D02*
Y028619D01*
X041434Y030949D02*
Y031234D01*
Y030729D02*
Y030824D01*
Y030609D02*
Y030619D01*
Y030394D02*
Y030494D01*
Y030154D02*
Y030279D01*
Y029844D02*
Y030024D01*
Y029504D02*
Y029639D01*
Y028964D02*
Y029094D01*
Y028574D02*
Y028619D01*
X041429Y030949D02*
Y031234D01*
Y030729D02*
Y030824D01*
Y030609D02*
Y030619D01*
Y030394D02*
Y030494D01*
Y030154D02*
Y030279D01*
Y029844D02*
Y030024D01*
Y029504D02*
Y029639D01*
Y028964D02*
Y029094D01*
Y028574D02*
Y028619D01*
X041424Y030949D02*
Y031234D01*
Y030734D02*
Y030824D01*
Y030609D02*
Y030624D01*
Y030399D02*
Y030494D01*
Y030154D02*
Y030279D01*
Y029844D02*
Y030024D01*
Y029504D02*
Y029639D01*
Y028964D02*
Y029094D01*
Y028574D02*
Y028619D01*
X041419Y030949D02*
Y031234D01*
Y030734D02*
Y030824D01*
Y030604D02*
Y030624D01*
Y030399D02*
Y030494D01*
Y030149D02*
Y030279D01*
Y029844D02*
Y030024D01*
Y029504D02*
Y029639D01*
Y028964D02*
Y029094D01*
Y028574D02*
Y028619D01*
X041414Y030944D02*
Y031234D01*
Y030734D02*
Y030819D01*
Y030604D02*
Y030624D01*
Y030399D02*
Y030489D01*
Y030154D02*
Y030284D01*
Y029844D02*
Y030024D01*
Y029504D02*
Y029639D01*
Y028964D02*
Y029094D01*
Y028574D02*
Y028619D01*
X041409Y030944D02*
Y031234D01*
Y030734D02*
Y030819D01*
Y030604D02*
Y030629D01*
Y030399D02*
Y030489D01*
Y030154D02*
Y030284D01*
Y029844D02*
Y030024D01*
Y029504D02*
Y029639D01*
Y028964D02*
Y029094D01*
Y028574D02*
Y028619D01*
X041404Y030944D02*
Y031234D01*
Y030739D02*
Y030819D01*
Y030599D02*
Y030629D01*
Y030399D02*
Y030489D01*
Y030154D02*
Y030284D01*
Y029844D02*
Y030024D01*
Y029504D02*
Y029639D01*
Y028964D02*
Y029094D01*
Y028574D02*
Y028619D01*
X041399Y030939D02*
Y031234D01*
Y030739D02*
Y030819D01*
Y030599D02*
Y030629D01*
Y030404D02*
Y030484D01*
Y030154D02*
Y030284D01*
Y029844D02*
Y030024D01*
Y029504D02*
Y029639D01*
Y028964D02*
Y029094D01*
Y028574D02*
Y028619D01*
X041394Y030939D02*
Y031234D01*
Y030739D02*
Y030814D01*
Y030599D02*
Y030629D01*
Y030404D02*
Y030484D01*
Y030154D02*
Y030289D01*
Y029844D02*
Y030024D01*
Y029504D02*
Y029639D01*
Y028964D02*
Y029094D01*
Y028574D02*
Y028619D01*
X041389Y030939D02*
Y031234D01*
Y030744D02*
Y030814D01*
Y030599D02*
Y030634D01*
Y030404D02*
Y030484D01*
Y030154D02*
Y030289D01*
Y029844D02*
Y030024D01*
Y029204D02*
Y029639D01*
Y028964D02*
Y029094D01*
Y028574D02*
Y028619D01*
X041384Y030939D02*
Y031234D01*
Y030744D02*
Y030814D01*
Y030594D02*
Y030634D01*
Y030404D02*
Y030484D01*
Y030154D02*
Y030289D01*
Y029844D02*
Y030024D01*
Y029204D02*
Y029639D01*
Y028964D02*
Y029094D01*
Y028574D02*
Y028619D01*
X041379Y030934D02*
Y031234D01*
Y030744D02*
Y030814D01*
Y030594D02*
Y030634D01*
Y030409D02*
Y030479D01*
Y030154D02*
Y030289D01*
Y029844D02*
Y030024D01*
Y029204D02*
Y029639D01*
Y028964D02*
Y029094D01*
Y028574D02*
Y028619D01*
X041374Y030934D02*
Y031234D01*
Y030749D02*
Y030814D01*
Y030594D02*
Y030639D01*
Y030409D02*
Y030479D01*
Y030154D02*
Y030294D01*
Y029844D02*
Y030024D01*
Y029204D02*
Y029639D01*
Y028964D02*
Y029094D01*
Y028574D02*
Y028619D01*
X041369Y030934D02*
Y031234D01*
Y030749D02*
Y030809D01*
Y030589D02*
Y030639D01*
Y030409D02*
Y030479D01*
Y030154D02*
Y030294D01*
Y029844D02*
Y030024D01*
Y029204D02*
Y029639D01*
Y028964D02*
Y029094D01*
Y028574D02*
Y028619D01*
X041364Y030934D02*
Y031234D01*
Y030749D02*
Y030809D01*
Y030589D02*
Y030639D01*
Y030409D02*
Y030474D01*
Y030154D02*
Y030294D01*
Y029844D02*
Y030024D01*
Y029204D02*
Y029639D01*
Y028964D02*
Y029094D01*
Y028574D02*
Y028619D01*
X041359Y030929D02*
Y031234D01*
Y030749D02*
Y030809D01*
Y030589D02*
Y030639D01*
Y030414D02*
Y030474D01*
Y030154D02*
Y030299D01*
Y029844D02*
Y030024D01*
Y029204D02*
Y029639D01*
Y028964D02*
Y029094D01*
Y028574D02*
Y028619D01*
X041354Y030929D02*
Y031234D01*
Y030754D02*
Y030809D01*
Y030589D02*
Y030644D01*
Y030414D02*
Y030474D01*
Y030154D02*
Y030299D01*
Y029844D02*
Y030024D01*
Y029204D02*
Y029639D01*
Y028964D02*
Y029094D01*
Y028574D02*
Y028619D01*
X041349Y030929D02*
Y031234D01*
Y030754D02*
Y030804D01*
Y030584D02*
Y030644D01*
Y030414D02*
Y030474D01*
Y030154D02*
Y030299D01*
Y029844D02*
Y030024D01*
Y029204D02*
Y029639D01*
Y028964D02*
Y029094D01*
Y028574D02*
Y028619D01*
X041344Y030924D02*
Y031234D01*
Y030754D02*
Y030804D01*
Y030584D02*
Y030644D01*
Y030414D02*
Y030469D01*
Y030154D02*
Y030299D01*
Y029844D02*
Y030024D01*
Y029204D02*
Y029639D01*
Y028964D02*
Y029094D01*
Y028574D02*
Y028619D01*
X041339Y030924D02*
Y031234D01*
Y030759D02*
Y030804D01*
Y030584D02*
Y030649D01*
Y030414D02*
Y030469D01*
Y030154D02*
Y030304D01*
Y029844D02*
Y030024D01*
Y029204D02*
Y029639D01*
Y028964D02*
Y029094D01*
Y028574D02*
Y028619D01*
X041334Y030924D02*
Y031234D01*
Y030759D02*
Y030804D01*
Y030579D02*
Y030649D01*
Y030419D02*
Y030469D01*
Y030154D02*
Y030304D01*
Y029844D02*
Y030024D01*
Y029204D02*
Y029639D01*
Y028964D02*
Y029094D01*
Y028574D02*
Y028619D01*
X041329Y030924D02*
Y031234D01*
Y030759D02*
Y030804D01*
Y030579D02*
Y030649D01*
Y030419D02*
Y030464D01*
Y030154D02*
Y030304D01*
Y029844D02*
Y030024D01*
Y029204D02*
Y029639D01*
Y028964D02*
Y029094D01*
Y028574D02*
Y028619D01*
X041324Y030919D02*
Y031234D01*
Y030759D02*
Y030799D01*
Y030579D02*
Y030649D01*
Y030419D02*
Y030464D01*
Y030154D02*
Y030304D01*
Y029844D02*
Y030024D01*
Y029204D02*
Y029639D01*
Y028964D02*
Y029094D01*
Y028574D02*
Y028619D01*
X041319Y030919D02*
Y031234D01*
Y030764D02*
Y030799D01*
Y030579D02*
Y030654D01*
Y030419D02*
Y030464D01*
Y030154D02*
Y030309D01*
Y029844D02*
Y030024D01*
Y029204D02*
Y029639D01*
Y028964D02*
Y029094D01*
Y028574D02*
Y028619D01*
X041314Y030919D02*
Y031234D01*
Y030764D02*
Y030799D01*
Y030574D02*
Y030654D01*
Y030424D02*
Y030459D01*
Y030154D02*
Y030309D01*
Y029844D02*
Y030024D01*
Y029204D02*
Y029639D01*
Y028964D02*
Y029094D01*
Y028574D02*
Y028619D01*
X041309Y030919D02*
Y031234D01*
Y030764D02*
Y030799D01*
Y030574D02*
Y030654D01*
Y030424D02*
Y030459D01*
Y030154D02*
Y030309D01*
Y029844D02*
Y030024D01*
Y029204D02*
Y029639D01*
Y028964D02*
Y029094D01*
Y028574D02*
Y028619D01*
X041304Y030914D02*
Y031234D01*
Y030769D02*
Y030794D01*
Y030574D02*
Y030659D01*
Y030424D02*
Y030459D01*
Y030154D02*
Y030309D01*
Y029844D02*
Y030024D01*
Y029204D02*
Y029639D01*
Y028964D02*
Y029094D01*
Y028574D02*
Y028619D01*
X041299Y030914D02*
Y031234D01*
Y030769D02*
Y030794D01*
Y030569D02*
Y030659D01*
Y030424D02*
Y030459D01*
Y030154D02*
Y030314D01*
Y029844D02*
Y030024D01*
Y029204D02*
Y029639D01*
Y028964D02*
Y029094D01*
Y028574D02*
Y028619D01*
X041294Y030914D02*
Y031234D01*
Y030769D02*
Y030794D01*
Y030569D02*
Y030659D01*
Y030429D02*
Y030454D01*
Y030154D02*
Y030314D01*
Y029844D02*
Y030024D01*
Y029204D02*
Y029639D01*
Y028964D02*
Y029094D01*
Y028574D02*
Y028619D01*
X041289Y030914D02*
Y031234D01*
Y030774D02*
Y030794D01*
Y030569D02*
Y030659D01*
Y030429D02*
Y030454D01*
Y030154D02*
Y030314D01*
Y029844D02*
Y030024D01*
Y029204D02*
Y029639D01*
Y028964D02*
Y029094D01*
Y028574D02*
Y028619D01*
X041284Y030909D02*
Y031234D01*
Y030774D02*
Y030794D01*
Y030569D02*
Y030664D01*
Y030429D02*
Y030454D01*
Y030154D02*
Y030314D01*
Y029844D02*
Y030024D01*
Y029204D02*
Y029639D01*
Y028964D02*
Y029094D01*
Y028574D02*
Y028619D01*
X041279Y030909D02*
Y031234D01*
Y030774D02*
Y030789D01*
Y030564D02*
Y030664D01*
Y030429D02*
Y030454D01*
Y030154D02*
Y030319D01*
Y029844D02*
Y030024D01*
Y029204D02*
Y029639D01*
Y028964D02*
Y029094D01*
Y028574D02*
Y028619D01*
X041274Y030909D02*
Y031234D01*
Y030774D02*
Y030789D01*
Y030564D02*
Y030664D01*
Y030429D02*
Y030449D01*
Y030154D02*
Y030319D01*
Y029844D02*
Y030024D01*
Y029204D02*
Y029639D01*
Y028964D02*
Y029094D01*
Y028574D02*
Y028619D01*
X041269Y030904D02*
Y031234D01*
Y030779D02*
Y030789D01*
Y030564D02*
Y030669D01*
Y030434D02*
Y030449D01*
Y030154D02*
Y030319D01*
Y029844D02*
Y030024D01*
Y029204D02*
Y029639D01*
Y028964D02*
Y029094D01*
Y028574D02*
Y028619D01*
X041264Y030904D02*
Y031234D01*
Y030779D02*
Y030789D01*
Y030559D02*
Y030669D01*
Y030434D02*
Y030449D01*
Y030154D02*
Y030324D01*
Y029844D02*
Y030024D01*
Y029504D02*
Y029639D01*
Y028964D02*
Y029094D01*
Y028574D02*
Y028619D01*
X041259Y030904D02*
Y031234D01*
Y030779D02*
Y030784D01*
Y030559D02*
Y030669D01*
Y030434D02*
Y030444D01*
Y030154D02*
Y030324D01*
Y029844D02*
Y030024D01*
Y029504D02*
Y029639D01*
Y028964D02*
Y029094D01*
Y028574D02*
Y028619D01*
X041254Y030904D02*
Y031234D01*
Y030559D02*
Y030669D01*
Y030434D02*
Y030444D01*
Y030154D02*
Y030324D01*
Y029844D02*
Y030024D01*
Y029504D02*
Y029639D01*
Y028964D02*
Y029094D01*
Y028574D02*
Y028619D01*
X041249Y030899D02*
Y031234D01*
Y030559D02*
Y030674D01*
Y030439D02*
Y030444D01*
Y030154D02*
Y030324D01*
Y029844D02*
Y030024D01*
Y029504D02*
Y029639D01*
Y028964D02*
Y029094D01*
Y028574D02*
Y028619D01*
X041244Y030899D02*
Y031234D01*
Y030554D02*
Y030674D01*
Y030439D02*
Y030444D01*
Y030154D02*
Y030329D01*
Y029844D02*
Y030024D01*
Y029504D02*
Y029639D01*
Y028964D02*
Y029094D01*
Y028574D02*
Y028619D01*
X041239Y030899D02*
Y031234D01*
Y030554D02*
Y030674D01*
Y030154D02*
Y030329D01*
Y029844D02*
Y030024D01*
Y029504D02*
Y029639D01*
Y028964D02*
Y029094D01*
Y028574D02*
Y028619D01*
X041234Y030899D02*
Y031234D01*
Y030554D02*
Y030679D01*
Y030154D02*
Y030329D01*
Y029844D02*
Y030024D01*
Y029504D02*
Y029639D01*
Y028964D02*
Y029094D01*
Y028574D02*
Y028619D01*
X041229Y030894D02*
Y031234D01*
Y030549D02*
Y030679D01*
Y030154D02*
Y030329D01*
Y029844D02*
Y030024D01*
Y029504D02*
Y029639D01*
Y028964D02*
Y029094D01*
Y028574D02*
Y028619D01*
X041224Y030894D02*
Y031234D01*
Y030549D02*
Y030679D01*
Y030154D02*
Y030334D01*
Y029844D02*
Y030024D01*
Y029504D02*
Y029639D01*
Y028964D02*
Y029094D01*
Y028574D02*
Y028619D01*
X041219Y030894D02*
Y031234D01*
Y030549D02*
Y030684D01*
Y030154D02*
Y030334D01*
Y029844D02*
Y030024D01*
Y029504D02*
Y029639D01*
Y028964D02*
Y029094D01*
Y028574D02*
Y028619D01*
X041214Y030889D02*
Y031234D01*
Y030544D02*
Y030684D01*
Y030154D02*
Y030334D01*
Y029844D02*
Y030024D01*
Y029504D02*
Y029639D01*
Y028964D02*
Y029094D01*
Y028574D02*
Y028619D01*
X041209Y030889D02*
Y031234D01*
Y030544D02*
Y030684D01*
Y030154D02*
Y030334D01*
Y029844D02*
Y030024D01*
Y029504D02*
Y029639D01*
Y028964D02*
Y029094D01*
Y028574D02*
Y028619D01*
X041204Y030889D02*
Y031234D01*
Y030544D02*
Y030684D01*
Y030154D02*
Y030339D01*
Y029844D02*
Y030024D01*
Y029504D02*
Y029639D01*
Y028964D02*
Y029094D01*
Y028574D02*
Y028619D01*
X041199Y030889D02*
Y031234D01*
Y030544D02*
Y030689D01*
Y030154D02*
Y030339D01*
Y029844D02*
Y030024D01*
Y029504D02*
Y029639D01*
Y028964D02*
Y029094D01*
Y028574D02*
Y028619D01*
X041194Y030884D02*
Y031234D01*
Y030539D02*
Y030689D01*
Y030154D02*
Y030339D01*
Y029844D02*
Y030024D01*
Y029504D02*
Y029639D01*
Y028964D02*
Y029094D01*
Y028574D02*
Y028619D01*
X041189Y030884D02*
Y031234D01*
Y030539D02*
Y030689D01*
Y030154D02*
Y030339D01*
Y029844D02*
Y030024D01*
Y029504D02*
Y029639D01*
Y028964D02*
Y029094D01*
Y028574D02*
Y028619D01*
X041184Y030884D02*
Y031234D01*
Y030539D02*
Y030694D01*
Y030154D02*
Y030344D01*
Y029844D02*
Y030024D01*
Y029504D02*
Y029639D01*
Y028964D02*
Y029094D01*
Y028574D02*
Y028619D01*
X041179Y030884D02*
Y031234D01*
Y030539D02*
Y030694D01*
Y030154D02*
Y030344D01*
Y029844D02*
Y030024D01*
Y029504D02*
Y029639D01*
Y028964D02*
Y029094D01*
Y028574D02*
Y028619D01*
X041174Y030879D02*
Y031234D01*
Y030534D02*
Y030694D01*
Y030154D02*
Y030344D01*
Y029844D02*
Y030024D01*
Y029504D02*
Y029639D01*
Y028964D02*
Y029094D01*
Y028574D02*
Y028619D01*
X041169Y030879D02*
Y031234D01*
Y030534D02*
Y030694D01*
Y030154D02*
Y030349D01*
Y029844D02*
Y030024D01*
Y029504D02*
Y029639D01*
Y028964D02*
Y029094D01*
Y028574D02*
Y028619D01*
X041164Y030879D02*
Y031234D01*
Y030534D02*
Y030699D01*
Y030154D02*
Y030349D01*
Y029844D02*
Y030024D01*
Y029504D02*
Y029639D01*
Y028964D02*
Y029094D01*
Y028574D02*
Y028619D01*
X041159Y030879D02*
Y031234D01*
Y030529D02*
Y030699D01*
Y030154D02*
Y030349D01*
Y029844D02*
Y030024D01*
Y029504D02*
Y029639D01*
Y028964D02*
Y029094D01*
Y028574D02*
Y028619D01*
X041154Y030874D02*
Y031234D01*
Y030529D02*
Y030699D01*
Y030154D02*
Y030349D01*
Y029844D02*
Y030024D01*
Y029504D02*
Y029639D01*
Y028964D02*
Y029094D01*
Y028574D02*
Y028619D01*
X041149Y030874D02*
Y031234D01*
Y030529D02*
Y030704D01*
Y030154D02*
Y030354D01*
Y029844D02*
Y030024D01*
Y029504D02*
Y029639D01*
Y028964D02*
Y029094D01*
Y028574D02*
Y028619D01*
X041144Y030874D02*
Y031229D01*
Y030529D02*
Y030704D01*
Y030154D02*
Y030354D01*
Y029844D02*
Y030024D01*
Y029504D02*
Y029639D01*
Y028964D02*
Y029094D01*
Y028579D02*
Y028619D01*
X041139Y030869D02*
Y031229D01*
Y030524D02*
Y030704D01*
Y030154D02*
Y030354D01*
Y029849D02*
Y030024D01*
Y029504D02*
Y029639D01*
Y028964D02*
Y029094D01*
Y028579D02*
Y028619D01*
X041134Y030869D02*
Y031229D01*
Y030524D02*
Y030704D01*
Y030154D02*
Y030354D01*
Y029849D02*
Y030024D01*
Y029504D02*
Y029639D01*
Y028964D02*
Y029094D01*
Y028579D02*
Y028619D01*
X041129Y030869D02*
Y031229D01*
Y030524D02*
Y030709D01*
Y030154D02*
Y030359D01*
Y029849D02*
Y030024D01*
Y029504D02*
Y029639D01*
Y028964D02*
Y029094D01*
Y028579D02*
Y028619D01*
X041124Y030869D02*
Y031229D01*
Y030519D02*
Y030709D01*
Y030154D02*
Y030359D01*
Y029849D02*
Y030024D01*
Y029504D02*
Y029639D01*
Y028964D02*
Y029094D01*
Y028579D02*
Y028624D01*
X041119Y030864D02*
Y031229D01*
Y030519D02*
Y030709D01*
Y030154D02*
Y030359D01*
Y029849D02*
Y030024D01*
Y029504D02*
Y029639D01*
Y028964D02*
Y029094D01*
Y028579D02*
Y028624D01*
X041114Y030864D02*
Y031229D01*
Y030519D02*
Y030714D01*
Y030154D02*
Y030359D01*
Y029849D02*
Y030024D01*
Y029504D02*
Y029639D01*
Y028964D02*
Y029094D01*
Y028584D02*
Y028624D01*
X041109Y030864D02*
Y031224D01*
Y030514D02*
Y030714D01*
Y030154D02*
Y030364D01*
Y029849D02*
Y030024D01*
Y029504D02*
Y029639D01*
Y028964D02*
Y029094D01*
Y028584D02*
Y028624D01*
X041104Y030864D02*
Y031224D01*
Y030514D02*
Y030714D01*
Y030154D02*
Y030364D01*
Y029849D02*
Y030024D01*
Y029504D02*
Y029639D01*
Y028964D02*
Y029094D01*
Y028584D02*
Y028624D01*
X041099Y030859D02*
Y031224D01*
Y030514D02*
Y030714D01*
Y030154D02*
Y030364D01*
Y029854D02*
Y030024D01*
Y029504D02*
Y029639D01*
Y028964D02*
Y029094D01*
Y028584D02*
Y028629D01*
X041094Y030859D02*
Y031224D01*
Y030514D02*
Y030719D01*
Y030154D02*
Y030364D01*
Y029854D02*
Y030024D01*
Y029504D02*
Y029639D01*
Y028964D02*
Y029094D01*
Y028584D02*
Y028629D01*
X041089Y030859D02*
Y031224D01*
Y030509D02*
Y030719D01*
Y030154D02*
Y030369D01*
Y029854D02*
Y030024D01*
Y029504D02*
Y029639D01*
Y028964D02*
Y029094D01*
Y028589D02*
Y028629D01*
X041084Y030859D02*
Y031219D01*
Y030509D02*
Y030719D01*
Y030154D02*
Y030369D01*
Y029854D02*
Y030024D01*
Y029504D02*
Y029639D01*
Y028964D02*
Y029094D01*
Y028589D02*
Y028629D01*
X041079Y030854D02*
Y031219D01*
Y030509D02*
Y030724D01*
Y030154D02*
Y030369D01*
Y029854D02*
Y030024D01*
Y029504D02*
Y029639D01*
Y028964D02*
Y029094D01*
Y028589D02*
Y028634D01*
X041074Y030854D02*
Y031219D01*
Y030504D02*
Y030724D01*
Y030154D02*
Y030374D01*
Y029859D02*
Y030024D01*
Y029504D02*
Y029639D01*
Y028964D02*
Y029094D01*
Y028589D02*
Y028634D01*
X041069Y030854D02*
Y031214D01*
Y030504D02*
Y030724D01*
Y030154D02*
Y030374D01*
Y029859D02*
Y030024D01*
Y029504D02*
Y029639D01*
Y028964D02*
Y029094D01*
Y028594D02*
Y028634D01*
X041064Y030849D02*
Y031214D01*
Y030504D02*
Y030724D01*
Y030154D02*
Y030374D01*
Y029859D02*
Y030024D01*
Y029504D02*
Y029639D01*
Y028964D02*
Y029094D01*
Y028594D02*
Y028639D01*
X041059Y030849D02*
Y031214D01*
Y030504D02*
Y030729D01*
Y030154D02*
Y030374D01*
Y029859D02*
Y030024D01*
Y029504D02*
Y029639D01*
Y028964D02*
Y029094D01*
Y028594D02*
Y028639D01*
X041054Y030849D02*
Y031214D01*
Y030499D02*
Y030729D01*
Y030149D02*
Y030379D01*
Y029864D02*
Y030024D01*
Y029504D02*
Y029639D01*
Y028964D02*
Y029094D01*
Y028599D02*
Y028639D01*
X041049Y030849D02*
Y031209D01*
Y030499D02*
Y030729D01*
Y030149D02*
Y030379D01*
Y029864D02*
Y030024D01*
Y029504D02*
Y029639D01*
Y028964D02*
Y029094D01*
Y028599D02*
Y028644D01*
X041044Y030844D02*
Y031209D01*
Y030499D02*
Y030734D01*
Y030154D02*
Y030379D01*
Y029864D02*
Y030024D01*
Y029504D02*
Y029639D01*
Y028964D02*
Y029094D01*
Y028599D02*
Y028644D01*
X041039Y030844D02*
Y031204D01*
Y030494D02*
Y030734D01*
Y030154D02*
Y030379D01*
Y029864D02*
Y030024D01*
Y029504D02*
Y029639D01*
Y028964D02*
Y029094D01*
Y028604D02*
Y028644D01*
X041034Y030844D02*
Y031204D01*
Y030494D02*
Y030734D01*
Y030154D02*
Y030384D01*
Y029869D02*
Y030024D01*
Y029504D02*
Y029639D01*
Y028964D02*
Y029094D01*
Y028604D02*
Y028649D01*
X041029Y030839D02*
Y031204D01*
Y030824D02*
Y030829D01*
Y030494D02*
Y030744D01*
Y030479D02*
Y030484D01*
Y030464D02*
Y030474D01*
Y030149D02*
Y030384D01*
Y029869D02*
Y030024D01*
Y029504D02*
Y029629D01*
Y029074D02*
Y029084D01*
Y028984D02*
Y029064D01*
Y028964D02*
Y028969D01*
Y028604D02*
Y028649D01*
X041024Y029869D02*
Y031199D01*
Y028609D02*
Y028654D01*
X041019Y029874D02*
Y031199D01*
Y028609D02*
Y028654D01*
X041014Y029874D02*
Y031194D01*
Y028614D02*
Y028659D01*
X041009Y029874D02*
Y031194D01*
Y028614D02*
Y028659D01*
X041004Y029879D02*
Y031194D01*
Y028619D02*
Y028664D01*
X040999Y029879D02*
Y031189D01*
Y028619D02*
Y028664D01*
X040994Y029884D02*
Y031189D01*
Y028624D02*
Y028669D01*
X040989Y029884D02*
Y031184D01*
Y028624D02*
Y028669D01*
X040984Y029884D02*
Y031184D01*
Y028629D02*
Y028674D01*
X040979Y029889D02*
Y031179D01*
Y028629D02*
Y028674D01*
X040974Y029889D02*
Y031174D01*
Y028634D02*
Y028679D01*
X040969Y029894D02*
Y031174D01*
Y028634D02*
Y028684D01*
X040964Y029894D02*
Y031169D01*
Y028639D02*
Y028684D01*
X040959Y029899D02*
Y031169D01*
Y028639D02*
Y028689D01*
X040954Y029899D02*
Y031164D01*
Y028644D02*
Y028694D01*
X040949Y029904D02*
Y031159D01*
Y028649D02*
Y028699D01*
X040944Y029904D02*
Y031159D01*
Y028649D02*
Y028699D01*
X040939Y029909D02*
Y031154D01*
Y028654D02*
Y028704D01*
X040934Y029909D02*
Y031149D01*
Y028659D02*
Y028709D01*
X040929Y029914D02*
Y031144D01*
Y028664D02*
Y028714D01*
X040924Y029919D02*
Y031144D01*
Y028664D02*
Y028719D01*
X040919Y029919D02*
Y031139D01*
Y028669D02*
Y028724D01*
X040914Y029924D02*
Y031134D01*
Y028674D02*
Y028724D01*
X040909Y029929D02*
Y031129D01*
Y028679D02*
Y028729D01*
X040904Y029929D02*
Y031129D01*
Y028684D02*
Y028734D01*
X040899Y029934D02*
Y031124D01*
Y028684D02*
Y028739D01*
X040894Y029939D02*
Y031119D01*
Y028689D02*
Y028749D01*
X040889Y029939D02*
Y031114D01*
Y028694D02*
Y028754D01*
X040884Y029944D02*
Y031109D01*
Y028699D02*
Y028759D01*
X040879Y029949D02*
Y031104D01*
Y028704D02*
Y028764D01*
X040874Y029954D02*
Y031099D01*
Y028709D02*
Y028769D01*
X040869Y029959D02*
Y031094D01*
Y028714D02*
Y028779D01*
X040864Y029959D02*
Y031089D01*
Y028719D02*
Y028784D01*
X040859Y029964D02*
Y031084D01*
Y028724D02*
Y028789D01*
X040854Y029969D02*
Y031074D01*
Y028734D02*
Y028799D01*
X040849Y029974D02*
Y031069D01*
Y028739D02*
Y028804D01*
X040844Y029979D02*
Y031064D01*
Y028744D02*
Y028814D01*
X040839Y029984D02*
Y031059D01*
Y028749D02*
Y028824D01*
X040834Y029989D02*
Y031054D01*
Y028759D02*
Y028834D01*
X040829Y029994D02*
Y031044D01*
Y028764D02*
Y028844D01*
X040824Y029999D02*
Y031039D01*
Y028769D02*
Y028854D01*
X040819Y030004D02*
Y031029D01*
Y028779D02*
Y028864D01*
X040814Y030009D02*
Y031024D01*
Y028784D02*
Y028879D01*
X040809Y030014D02*
Y031014D01*
Y028794D02*
Y028894D01*
X040804Y030019D02*
Y031004D01*
Y028804D02*
Y028909D01*
X040799Y030029D02*
Y030994D01*
Y028814D02*
Y028934D01*
X040794Y030034D02*
Y030984D01*
Y028824D02*
Y028969D01*
X040789Y028834D02*
Y030974D01*
X040784Y028844D02*
Y030964D01*
X040779Y028854D02*
Y030954D01*
X040774Y028869D02*
Y030939D01*
X040769Y028884D02*
Y030924D01*
X040764Y028899D02*
Y030909D01*
X040759Y028919D02*
Y030889D01*
X040754Y028939D02*
Y030864D01*
X040749Y028979D02*
Y030829D01*
D20*
X026133Y020487D02*
Y02088D01*
X033458Y031968D02*
Y032361D01*
D21*
X041319Y018194D02*
Y01906D01*
X039823Y01973D02*
X04124D01*
X039823Y017525D02*
X04124D01*
X039744Y018194D02*
Y01906D01*
X037786Y01822D02*
Y019086D01*
X03629Y019755D02*
X037708D01*
X03629Y01755D02*
X037708D01*
X036212Y01822D02*
Y019086D01*
D22*
X024811Y031721D02*
X024793Y031759D01*
X024736Y031815D01*
X02513D01*
D23*
X02385Y032362D02*
D03*
Y033031D02*
D03*
Y0337D02*
D03*
Y034369D02*
D03*
Y035038D02*
D03*
M02*
