M48
;Layer_Color=9474304
;FILE_FORMAT=2:4
INCH,LZ
;TYPE=PLATED
T1F00S00C0.0118
T2F00S00C0.0280
T3F00S00C0.0315
T4F00S00C0.0320
T5F00S00C0.0340
T6F00S00C0.0354
T7F00S00C0.0402
T8F00S00C0.0433
T9F00S00C0.0450
T10F00S00C0.0500
%
T01
X032945Y01437
X03916Y01368
X04282Y015448
X040493Y01626
X039311Y019811
X04149Y02219
X041325Y02611
X042094Y025746
X045004Y026196
X04219Y03086
X038154Y030761
X038644Y029836
X038144Y028766
X035327Y029077
X036425Y030755
X035327Y02611
X035745Y025395
X03435Y02571
X034019Y024941
X03455Y023596
X03504
X03653Y02409
X036937Y024363
X0376Y024181
X03505Y020645
X03455Y021137
X032157Y019665
X03272Y01884
X032474Y016151
X031476Y027275
Y028191
X029442Y027089
X029441Y025604
X026418Y024883
X02706Y024184
X024467Y019811
X022791Y02017
X02155Y0202
X0228Y02765
X026418Y030661
X028775Y029595
X01835Y03022
X030311Y0194
X02734Y03144
X031229Y033562
X03285Y034468
X034298Y033968
X035165Y034468
X035834Y033976
X03685Y033562
X03785Y03462
X040354
X040494Y031586
X042816Y031595
X04372Y031586
X03791Y03131
T02
X0161Y0285
X022163Y0269
X0234Y03305
Y03405
T03
X02542Y020683
Y021683
Y022683
Y023683
X02842
Y022683
Y021683
Y020683
X032745Y032165
X035745
T04
X03455Y01514
Y01614
Y01714
Y01814
Y01914
T05
X04688Y02119
Y02219
X046537Y024181
Y025181
X04366
Y024181
X04401Y02223
Y02123
X02751Y0259
Y0269
X01725Y03305
Y03405
Y0351
X0417Y03462
X0427
X0437
X0447
T06
X018147Y018525
X020116
X022163Y0301
X0161
T07
X031741Y02995
X032741
X033741
X034741
X03639Y02979
Y02879
Y02779
Y02679
X030741Y02995
X029741
X028427Y018748
X027427
Y017748
X028427
T08
X03285Y03545
X03385
X03485
X03585
X03685
X03785
X03885
X03985
T09
X04282Y01397
X04522Y01297
X04762Y01397
Y01877
X04282
T10
X016147Y01475
X018147
X02155
X02355
X026335
X028335
M30
