G04*
G04 #@! TF.GenerationSoftware,Altium Limited,Altium Designer,19.1.1 (5)*
G04*
G04 Layer_Color=255*
%FSTAX24Y24*%
%MOIN*%
G70*
G01*
G75*
%ADD83C,0.0598*%
%ADD84R,0.0598X0.0598*%
%ADD85C,0.1200*%
%ADD86C,0.1100*%
%ADD87C,0.0630*%
%ADD88R,0.0630X0.0630*%
%ADD89R,0.0900X0.0750*%
%ADD90O,0.0900X0.0750*%
%ADD91R,0.0512X0.0512*%
%ADD92C,0.0512*%
%ADD93O,0.1000X0.0600*%
%ADD94R,0.1000X0.0600*%
%ADD95R,0.0709X0.0709*%
%ADD96R,0.0669X0.0669*%
%ADD97R,0.0598X0.0598*%
%ADD98O,0.0750X0.0900*%
%ADD99R,0.0750X0.0900*%
D83*
X027427Y018748D02*
D03*
Y017748D02*
D03*
X028427Y018748D02*
D03*
X03639Y02979D02*
D03*
Y02879D02*
D03*
Y02779D02*
D03*
X034741Y02995D02*
D03*
X033741D02*
D03*
X032741D02*
D03*
X031741D02*
D03*
X030741D02*
D03*
D84*
X028427Y017748D02*
D03*
X03639Y02679D02*
D03*
D85*
X04762Y01397D02*
D03*
X04282Y01877D02*
D03*
X04522Y01297D02*
D03*
X04762Y01877D02*
D03*
X04282Y01397D02*
D03*
D86*
X028335Y01475D02*
D03*
X026335D02*
D03*
X018147D02*
D03*
X016147D02*
D03*
X02355D02*
D03*
X02155D02*
D03*
D87*
X03285Y03545D02*
D03*
X03385D02*
D03*
X03485D02*
D03*
X03585D02*
D03*
X03685D02*
D03*
X03785D02*
D03*
X03885D02*
D03*
D88*
X03985D02*
D03*
D89*
X04366Y025181D02*
D03*
X02751Y0269D02*
D03*
X04401Y02123D02*
D03*
X04688Y02119D02*
D03*
X01725Y0351D02*
D03*
X046537Y025181D02*
D03*
D90*
X04366Y024181D02*
D03*
X02751Y0259D02*
D03*
X04401Y02223D02*
D03*
X04688Y02219D02*
D03*
X01725Y03305D02*
D03*
Y03405D02*
D03*
X046537Y024181D02*
D03*
D91*
X02842Y020683D02*
D03*
X035745Y032165D02*
D03*
D92*
X02842Y021683D02*
D03*
Y022683D02*
D03*
Y023683D02*
D03*
X02542D02*
D03*
Y022683D02*
D03*
Y021683D02*
D03*
Y020683D02*
D03*
X032745Y032165D02*
D03*
D93*
X03455Y01614D02*
D03*
Y01714D02*
D03*
Y01814D02*
D03*
Y01514D02*
D03*
D94*
Y01914D02*
D03*
D95*
X020116Y018525D02*
D03*
X018147D02*
D03*
D96*
X022163Y0301D02*
D03*
X0161D02*
D03*
D97*
X029741Y02995D02*
D03*
D98*
X0447Y03462D02*
D03*
X0437D02*
D03*
X0427D02*
D03*
D99*
X0417D02*
D03*
M02*
